<svg width="51" height="50" viewBox="0 0 51 50" fill="none" xmlns="http://www.w3.org/2000/svg">
<g id="biologia" clip-path="url(#clip0_415_2755)">
<g id="Clip path group">
<mask id="mask0_415_2755" style="mask-type:luminance" maskUnits="userSpaceOnUse" x="0" y="0" width="17" height="50">
<g id="edcf109165">
<path id="Vector" d="M0.783203 0H16.9904V50H0.783203V0Z" fill="white"/>
</g>
</mask>
<g mask="url(#mask0_415_2755)">
<g id="Group">
<path id="Vector_2" d="M4.21604 45.9849C4.57596 45.4555 5.00195 44.9202 5.47381 44.3722H12.2998C12.7717 44.9202 13.1977 45.4555 13.5568 45.9849H4.21604ZM8.13861 41.5118C8.38582 41.2565 8.63302 40.9978 8.88644 40.7365C9.13986 40.9978 9.38706 41.2565 9.63504 41.5118C10.0463 41.9365 10.4435 42.3493 10.8322 42.7586H6.94147C7.32938 42.3493 7.72661 41.9365 8.13861 41.5118ZM6.29937 35.5001H11.4735C10.6596 36.546 9.77885 37.5384 8.88644 38.4932C7.9948 37.5384 7.11405 36.546 6.29937 35.5001ZM8.88644 11.535C9.77885 12.489 10.6596 13.4822 11.4735 14.5306H6.29937C7.11405 13.4822 7.9948 12.489 8.88644 11.535ZM8.13861 8.51636C7.72661 8.09425 7.32938 7.67894 6.94147 7.27215H10.8322C10.4435 7.67894 10.0463 8.09425 9.63504 8.51636C9.38706 8.77167 9.13986 9.03039 8.88644 9.29165C8.63302 9.03039 8.38582 8.77167 8.13861 8.51636ZM4.21604 4.04588H13.5568C13.1977 4.57182 12.7717 5.10797 12.2998 5.65944H5.47381C5.00195 5.10797 4.57596 4.57182 4.21604 4.04588ZM2.46075 27.4349C2.37136 26.9123 2.31927 26.3702 2.29051 25.8222H15.4824C15.4536 26.3702 15.4015 26.9123 15.3129 27.4349H6.67639V29.0484H14.9328C14.7719 29.5965 14.59 30.1386 14.3746 30.6611H3.39903C3.18292 30.1386 3.0018 29.5965 2.84011 29.0484H5.20329V27.4349H2.46075ZM15.3129 22.5959C15.4015 23.1159 15.4536 23.658 15.4824 24.2094H2.29051C2.31927 23.658 2.37136 23.1159 2.46075 22.5959H15.3129ZM4.17562 17.7569C4.48967 17.1705 4.83482 16.6037 5.20329 16.0523V16.1442H12.5704V16.0523C12.9381 16.6037 13.284 17.1705 13.5973 17.7569H11.8334V19.3696H14.3746C14.59 19.8896 14.7719 20.4317 14.9328 20.9832H2.84011C3.0018 20.4317 3.18292 19.8896 3.39903 19.3696H10.3603V17.7569H4.17562ZM5.20329 33.9759C4.83482 33.4244 4.48967 32.8568 4.17562 32.2738H13.5973C13.284 32.8568 12.9381 33.4244 12.5704 33.9759V33.8874H5.20329V33.9759ZM10.6479 40.3391C10.4147 40.1 10.1815 39.8574 9.94521 39.6115C13.4363 35.8627 16.9904 31.2594 16.9904 25.0154C16.9904 18.7679 13.4363 14.1655 9.94521 10.4167C10.1815 10.1708 10.4147 9.92823 10.6479 9.68824C13.6548 6.576 16.2535 3.88843 16.2535 0.820453V0.0136719H14.7804V0.820453C14.7804 1.34895 14.6568 1.88765 14.4376 2.43316H3.33529C3.11685 1.88765 2.99325 1.34895 2.99325 0.820453V0.0136719H1.51937V0.820453C1.51937 3.88843 4.11809 6.576 7.12571 9.68824C7.35814 9.92823 7.59135 10.1708 7.82767 10.4167C4.33653 14.1655 0.783203 18.7679 0.783203 25.0154C0.783203 31.2594 4.33653 35.8627 7.82767 39.6115C7.59135 39.8574 7.35814 40.1 7.12571 40.3391C4.11809 43.4522 1.51937 46.1398 1.51937 49.2111V50.0179H2.99325V49.2111C2.99325 48.6784 3.11685 48.1397 3.33529 47.5984H14.4376C14.6568 48.1397 14.7804 48.6784 14.7804 49.2111V50.0179H16.2535V49.2111C16.2535 46.1398 13.6548 43.4522 10.6479 40.3391Z" fill="black"/>
</g>
</g>
</g>
<g id="Clip path group_2">
<mask id="mask1_415_2755" style="mask-type:luminance" maskUnits="userSpaceOnUse" x="16" y="-1" width="31" height="51">
<g id="c4c4cc044f">
<path id="Vector_3" d="M16.9902 -0.326904H46.4577V49.9999H16.9902V-0.326904Z" fill="white"/>
</g>
</mask>
<g mask="url(#mask1_415_2755)">
<g id="Group_2">
<path id="Vector_4" d="M44.9846 48.4042H18.4633V47.5983C18.4633 46.2621 19.4537 45.1788 20.6734 45.1788H33.9344V43.5652H32.4605V41.1457C32.4605 38.922 34.1124 37.1135 36.1445 37.1135C38.1757 37.1135 39.8276 38.922 39.8276 41.1457V43.5652H35.4075V45.1788H42.7746C43.9951 45.1788 44.9846 46.2621 44.9846 47.5983V48.4042ZM23.0101 38.7262C23.3156 37.7875 24.1326 37.1135 25.0935 37.1135H32.5414C32.1099 37.5731 31.7555 38.1211 31.4912 38.7262H23.0101ZM39.7872 33.4617C40.685 32.9077 41.3015 31.8643 41.3015 30.661C41.3015 29.2338 40.4464 28.0364 39.2726 27.6117C38.4493 24.1523 36.6941 20.9864 34.2679 18.5661L36.3629 16.27C40.441 20.3907 42.7746 26.1905 42.7746 32.2737C42.7746 35.1315 42.2592 37.9543 41.2751 40.5755C41.1312 39.013 40.4005 37.6395 39.3324 36.7161C39.5719 35.6514 39.7242 34.5579 39.7872 33.4617ZM36.8806 30.661C36.8806 29.7691 37.5429 29.0483 38.3545 29.0483C39.1661 29.0483 39.8276 29.7691 39.8276 30.661C39.8276 31.5495 39.1661 32.2737 38.3545 32.2737C37.5429 32.2737 36.8806 31.5495 36.8806 30.661ZM23.1975 17.7789L32.4691 7.62772L37.3214 12.9399L28.049 23.0902L23.1975 17.7789ZM27.3128 27.1232L19.5136 18.5856L20.6819 17.3065L28.4812 25.8441L27.3128 27.1232ZM37.6261 5.20823L39.5314 7.29411L36.89 10.1859L34.9815 8.09408L37.6261 5.20823ZM39.0969 1.96323L42.4722 5.67119L41.31 6.9571L37.9285 3.26106L39.0969 1.96323ZM42.7746 43.5652H41.586C43.3242 40.1219 44.2477 36.231 44.2477 32.2737C44.2477 25.7624 41.7562 19.549 37.4046 15.1296L39.4047 12.9399L37.9316 11.3263L40.5731 8.4345L41.3124 9.24383L44.5501 5.66864L39.0883 -0.326904L35.8537 3.26787L36.5845 4.06784L33.9399 6.9537L32.4691 5.34694L22.1558 16.6385L20.6819 15.0249L17.4302 18.5856L27.3128 29.404L30.5646 25.8441L29.0907 24.2306L33.2262 19.7073C35.35 21.8085 36.9156 24.5267 37.721 27.5138C36.4002 27.8321 35.4075 29.1206 35.4075 30.661C35.4075 32.4124 36.691 33.837 38.2853 33.8779C38.2247 34.5519 38.1298 35.2225 37.9977 35.8812C37.4217 35.6387 36.7974 35.5 36.1445 35.5H25.0935C23.0622 35.5 21.4103 37.3084 21.4103 39.533V40.3389H31.0481C31.0108 40.6011 30.9874 40.8683 30.9874 41.1457V43.5652H20.6734C18.6421 43.5652 16.9902 45.3737 16.9902 47.5983V50.0178H46.4577V47.5983C46.4577 45.3737 44.8066 43.5652 42.7746 43.5652Z" fill="black"/>
</g>
</g>
</g>
</g>
<defs>
<clipPath id="clip0_415_2755">
<rect width="50" height="50" fill="white" transform="translate(0.785156)"/>
</clipPath>
</defs>
</svg>
