<svg width="51" height="51" viewBox="0 0 51 51" fill="none" xmlns="http://www.w3.org/2000/svg">
<g id="filosofia" clip-path="url(#clip0_415_2631)">
<g id="Clip path group">
<mask id="mask0_415_2631" style="mask-type:luminance" maskUnits="userSpaceOnUse" x="0" y="0" width="51" height="51">
<g id="b2048a18f6">
<path id="Vector" d="M0.5 0.125H50.5V50.125H0.5V0.125Z" fill="white"/>
</g>
</mask>
<g mask="url(#mask0_415_2631)">
<g id="Group">
<path id="Vector_2" d="M8.41853 40.3907L8.03665 40.3391C8.06549 40.3374 8.0952 40.3374 8.12404 40.3391C8.22541 40.3374 8.32416 40.3543 8.41853 40.3907ZM50.5003 14.2146V20.2464C50.5003 20.4468 50.4793 20.6455 50.4391 20.8425C50.3989 21.0395 50.3386 21.2306 50.26 21.4158C50.1805 21.6009 50.0835 21.7777 49.969 21.9442C49.8545 22.1108 49.7243 22.2655 49.5784 22.4076C49.4324 22.5496 49.2734 22.6764 49.1021 22.7872C48.9308 22.8988 48.749 22.9935 48.5585 23.0704C48.368 23.1474 48.1714 23.2057 47.9695 23.2446C47.7668 23.2843 47.5623 23.3038 47.3561 23.3038H45.5052C44.9424 23.3055 44.4181 23.1677 43.9313 22.892V42.934C43.9313 43.0354 43.9112 43.1327 43.8719 43.2257C43.8317 43.3195 43.7749 43.4024 43.7015 43.4734C43.6281 43.5453 43.5433 43.6002 43.4472 43.6391C43.3511 43.678 43.2506 43.6975 43.1466 43.6975H33.1293C33.0253 43.6975 32.9248 43.678 32.8287 43.64C32.7325 43.6011 32.6478 43.5453 32.5744 43.4743C32.501 43.4024 32.4442 43.3195 32.404 43.2257C32.3646 43.1327 32.3445 43.0354 32.3445 42.934V38.709L28.6 40.8921V45.0714C28.7599 45.0985 28.9163 45.1391 29.0684 45.1932C29.2213 45.2481 29.3672 45.3166 29.5062 45.3969C29.6451 45.4781 29.7762 45.5711 29.8977 45.676C30.0191 45.7808 30.1292 45.8958 30.2289 46.0209C30.3285 46.1452 30.415 46.278 30.4893 46.4183C30.5636 46.5587 30.623 46.7049 30.6693 46.8563C30.7156 47.0076 30.7471 47.1624 30.7637 47.3188C30.7803 47.476 30.782 47.6333 30.7681 47.7906C30.7549 47.9478 30.727 48.1026 30.6833 48.2548C30.6405 48.4069 30.5828 48.5541 30.512 48.6961C30.4403 48.8382 30.3565 48.9726 30.2595 49.0994C30.1625 49.2254 30.0541 49.3429 29.9352 49.4495C29.8155 49.5568 29.6871 49.6524 29.5499 49.7361C29.4118 49.8198 29.2676 49.89 29.1164 49.9483C28.9652 50.0058 28.8097 50.0489 28.6498 50.0785C28.4907 50.1081 28.3299 50.1233 28.1674 50.1233H7.77274C7.61019 50.1233 7.4494 50.1081 7.28948 50.0794C7.12956 50.0498 6.97401 50.0066 6.82283 49.9492C6.67165 49.8917 6.52746 49.8206 6.38938 49.7369C6.25218 49.6532 6.12285 49.5577 6.004 49.4511C5.88428 49.3438 5.77592 49.2271 5.67892 49.1011C5.58192 48.9743 5.49715 48.8398 5.42549 48.6978C5.35471 48.5558 5.29703 48.4086 5.25421 48.2564C5.21052 48.1043 5.18255 47.9495 5.16857 47.7923C5.15459 47.635 5.15634 47.4777 5.17294 47.3205C5.18954 47.1632 5.221 47.0093 5.26732 46.8571C5.31276 46.7058 5.37306 46.5604 5.44734 46.4192C5.52162 46.2788 5.60813 46.1461 5.70775 46.0209C5.80738 45.8966 5.91749 45.7816 6.03896 45.6768C6.16043 45.572 6.29063 45.479 6.43045 45.3978C6.5694 45.3166 6.71534 45.2481 6.86827 45.1932C7.02032 45.1391 7.17675 45.0985 7.33667 45.0714V41.7866L1.20901 40.9673C1.15396 40.9597 1.09978 40.9462 1.04822 40.9276C0.995786 40.9098 0.945975 40.8861 0.899659 40.8574C0.85247 40.8287 0.808775 40.7948 0.769451 40.7576C0.729252 40.7196 0.694297 40.679 0.663711 40.6333C0.632251 40.5885 0.606909 40.5412 0.58681 40.4913C0.565836 40.4406 0.55098 40.389 0.542242 40.3357C0.532629 40.2825 0.530007 40.2292 0.531755 40.1751C0.534377 40.121 0.543116 40.0685 0.557098 40.0161L1.41874 36.8362C1.52011 36.4582 1.64333 36.0862 1.78752 35.7218C1.93259 35.3565 2.09688 35.0006 2.28301 34.6539C2.46828 34.3072 2.67276 33.9716 2.89648 33.6469C3.12019 33.3214 3.36226 33.0102 3.6218 32.7118C3.88134 32.4133 4.15749 32.1301 4.45024 31.8612C4.74212 31.5932 5.04885 31.3412 5.37044 31.1061C5.69115 30.8711 6.02497 30.6538 6.37103 30.4551C6.71709 30.2564 7.07363 30.0772 7.44066 29.9165L11.9438 27.9389L12.7172 26.176L12.025 26.2758C11.8433 26.3028 11.6598 26.3163 11.4762 26.3163C11.1389 26.3155 10.8086 26.2715 10.4844 26.1828C10.1593 26.094 9.85345 25.9638 9.56594 25.793C9.27843 25.6222 9.01976 25.4167 8.79081 25.1766C8.56098 24.9365 8.3696 24.671 8.21579 24.3793L6.93031 21.9459C6.83419 21.765 6.76515 21.5747 6.72233 21.3752C6.67864 21.1756 6.66378 20.9744 6.67689 20.7706C6.68912 20.5677 6.7302 20.369 6.79748 20.1763C6.86565 19.9835 6.95828 19.8025 7.07625 19.6343L5.95506 19.548C5.86855 19.5421 5.78203 19.5294 5.69727 19.5125C5.6125 19.4948 5.52861 19.4728 5.44646 19.4449C5.36432 19.417 5.2848 19.384 5.20702 19.3468C5.12925 19.3088 5.05497 19.2665 4.98243 19.2191C4.9099 19.1718 4.84174 19.1211 4.7762 19.0653C4.71066 19.0095 4.64948 18.9503 4.59181 18.8869C4.53413 18.8234 4.4817 18.7566 4.43276 18.6865C4.38382 18.6171 4.34013 18.5444 4.30081 18.4683C4.26235 18.3931 4.22827 18.3153 4.19944 18.2358C4.1706 18.1563 4.147 18.0752 4.12865 17.9923C4.1103 17.9103 4.09806 17.8266 4.0902 17.742C4.08321 17.6583 4.08146 17.5738 4.08583 17.4892C4.08933 17.4055 4.09894 17.321 4.11467 17.2381C4.12952 17.1553 4.14962 17.0732 4.17584 16.9921C4.20118 16.9117 4.23264 16.8331 4.26847 16.7562C4.30518 16.6792 4.34625 16.6057 4.39169 16.5338L6.72932 12.8888C6.884 12.6445 6.94255 12.3798 6.9041 12.0949L6.40948 8.57419C5.69814 8.27149 5.05584 7.8648 4.48432 7.35412C4.41266 7.28901 4.35586 7.21292 4.31391 7.12752C4.27109 7.04128 4.24575 6.95081 4.23876 6.85527C4.2309 6.76057 4.24138 6.66756 4.27022 6.57625C4.29818 6.48493 4.34275 6.40123 4.40305 6.32598C4.88718 5.73412 5.45782 5.23443 6.11324 4.82605C5.81437 3.9966 5.69202 3.14264 5.74621 2.26585C5.75232 2.1703 5.77592 2.07899 5.81699 1.9919C5.85806 1.90481 5.91486 1.82787 5.98565 1.76192C6.05643 1.69513 6.1377 1.64355 6.22859 1.60719C6.31947 1.56999 6.41472 1.55055 6.51347 1.54885C7.02732 1.53871 8.37309 1.5869 9.62187 2.23794C9.64197 2.24724 9.66207 2.25824 9.68042 2.26923C11.6423 0.92656 14.0682 0.126709 16.2739 0.126709H18.7487C24.7121 0.126709 29.57 4.66709 29.57 10.2491C29.57 10.5535 29.5499 10.8562 29.5114 11.1581H47.3596C47.5658 11.1581 47.7694 11.1784 47.9722 11.2181C48.174 11.257 48.3706 11.3153 48.5611 11.3923C48.7508 11.4692 48.9317 11.5639 49.1038 11.6747C49.2751 11.7863 49.4333 11.9131 49.5792 12.0551C49.7252 12.1972 49.8554 12.3511 49.9698 12.5185C50.0843 12.6851 50.1813 12.8609 50.26 13.0461C50.3395 13.2312 50.3989 13.4223 50.4391 13.6193C50.4793 13.8155 50.5003 14.0142 50.5003 14.2146ZM7.32706 3.12657C7.35939 3.50198 7.43629 3.86893 7.55776 4.22658C7.83478 4.15725 8.1153 4.11497 8.40106 4.1006C8.84412 4.07777 9.27931 4.12427 9.70751 4.23842C9.0486 3.48084 8.04714 3.21451 7.32706 3.12657ZM8.62739 7.44628C9.33087 7.37695 9.98715 7.0193 10.5805 6.38094C9.88928 5.8415 9.18406 5.58109 8.47796 5.62167C8.12841 5.64196 7.79284 5.71975 7.47212 5.85672L7.41619 5.88124C6.95391 6.09177 6.53882 6.36825 6.17091 6.71069C6.75117 7.09455 7.65651 7.54013 8.62739 7.4429V7.44628ZM13.418 33.0542L14.2167 33.4178C14.3522 33.4786 14.4938 33.5218 14.6406 33.5471C14.7865 33.5725 14.9342 33.5801 15.0836 33.5683C15.2322 33.5564 15.3764 33.5268 15.5171 33.4786C15.6578 33.4313 15.7897 33.3662 15.9138 33.2859L23.1513 28.4918V17.8638C23.1496 17.8376 23.1496 17.8122 23.1513 17.7868C23.1522 17.7674 23.1557 17.7488 23.1592 17.7302C23.16 17.7201 23.1618 17.7091 23.1653 17.6989C23.1697 17.6761 23.1758 17.6541 23.1845 17.6321C23.1906 17.6144 23.1967 17.5958 23.2046 17.5789C23.2125 17.556 23.223 17.534 23.2352 17.5138C23.2396 17.5044 23.2448 17.496 23.2509 17.4875C23.2597 17.4715 23.2701 17.4546 23.2806 17.4393C23.2929 17.4216 23.306 17.4038 23.3208 17.3878L23.3278 17.3793C23.3418 17.3616 23.3575 17.3446 23.375 17.3286C23.3899 17.3125 23.4056 17.299 23.4231 17.2855C23.4467 17.266 23.4703 17.2483 23.4956 17.2313C25.7415 15.7314 27.2664 13.7665 27.7925 11.7711C27.9253 11.2731 27.9944 10.7666 27.9978 10.2517C27.9978 5.5126 23.8478 1.65285 18.7443 1.65285H16.2739C14.513 1.65285 12.5791 2.25232 10.9475 3.28046C11.298 3.68968 11.5549 4.14879 11.7201 4.6561C11.7244 4.51067 11.734 4.38976 11.7419 4.29929C11.7515 4.2046 11.7777 4.11497 11.8214 4.02958C11.8651 3.94503 11.9228 3.86978 11.9953 3.80636C12.0679 3.7421 12.1491 3.69222 12.24 3.6584C12.3318 3.62373 12.4262 3.60682 12.524 3.60682H12.5328C13.1829 3.61443 15.4122 3.76155 16.7886 5.32828C16.8681 5.41959 16.9441 5.5126 17.014 5.60899C17.1774 5.06363 17.4064 4.54618 17.7018 4.05579C17.7525 3.97293 17.8163 3.90191 17.894 3.84357C17.9718 3.78438 18.0583 3.74126 18.1527 3.7142C18.2471 3.6863 18.3441 3.677 18.442 3.68546C18.5407 3.69306 18.6342 3.71843 18.7225 3.76071C19.1778 3.97631 20.4632 4.67047 21.269 5.91253C21.3913 5.65549 21.5067 5.45426 21.5827 5.32828C21.6334 5.24542 21.6972 5.1744 21.7749 5.11521C21.8527 5.05518 21.9384 5.01206 22.0327 4.98416C22.128 4.95625 22.2241 4.94611 22.3229 4.95372C22.4216 4.96133 22.5151 4.98669 22.6043 5.02812C23.1863 5.3063 25.1333 6.36741 25.6882 8.35858C26.0421 9.62769 25.7485 10.9678 24.8125 12.3392C24.74 12.4449 24.6456 12.5286 24.5294 12.5895C24.4132 12.6495 24.29 12.68 24.1589 12.68C24.0514 12.68 23.9483 12.6588 23.8504 12.6166C22.6471 12.1169 21.7749 11.4236 21.2497 10.5561C21.1554 10.7252 21.0444 10.8951 20.9325 11.0651C20.8591 11.1716 20.7656 11.2553 20.6494 11.3162C20.5332 11.3762 20.4099 11.4066 20.278 11.4066C20.1705 11.4075 20.0682 11.3863 19.9695 11.3441C18.9322 10.9112 18.1431 10.3379 17.6048 9.63192C17.534 9.72492 17.4457 9.79764 17.34 9.85175C17.2351 9.90586 17.1233 9.93546 17.0044 9.93968C16.9013 9.93968 16.8052 9.93968 16.7064 9.93968C15.1579 9.93968 13.9301 9.4848 13.0553 8.58518C12.6184 8.13199 12.2925 7.612 12.0784 7.02606C11.1415 8.18948 10.0352 8.84137 8.78819 8.96481C8.64487 8.98003 8.49981 8.98679 8.35562 8.98679C8.2525 8.98679 8.15025 8.98679 8.04714 8.9758L8.45873 11.8928C8.50243 12.2073 8.49019 12.5202 8.42203 12.8305C8.35299 13.1408 8.23327 13.4308 8.06024 13.6997L5.72436 17.3413C5.70339 17.3742 5.68678 17.4089 5.67542 17.4461C5.66319 17.4833 5.65707 17.5205 5.65532 17.5594C5.65357 17.5983 5.65707 17.6363 5.66493 17.6736C5.67367 17.7116 5.68678 17.748 5.70513 17.7826C5.72261 17.8164 5.74533 17.8486 5.77155 17.8773C5.79864 17.9061 5.82835 17.9306 5.86156 17.9526C5.89477 17.9737 5.92972 17.9906 5.9673 18.0025C6.00487 18.0151 6.04333 18.0227 6.08352 18.0253L8.56185 18.2164C8.70255 18.2265 8.83101 18.2713 8.94811 18.3491C9.06433 18.4261 9.1526 18.5275 9.21289 18.6518C9.27319 18.7752 9.29766 18.9055 9.28543 19.0424C9.27319 19.1794 9.22688 19.3037 9.14648 19.4161L8.38183 20.4891C8.30143 20.6024 8.25687 20.7267 8.24725 20.8637C8.23852 21.0006 8.26561 21.13 8.33115 21.2526L9.6175 23.686C9.71712 23.8762 9.84558 24.047 10.0003 24.1975C10.1558 24.3488 10.3315 24.4723 10.5263 24.5704C10.7221 24.6676 10.9283 24.7335 11.145 24.7682C11.3618 24.802 11.5785 24.8037 11.7961 24.7724L13.5543 24.5137C13.9572 24.4537 14.3504 24.3556 14.7341 24.2203C15.1177 24.085 15.483 23.9143 15.8317 23.7079C16.1803 23.5025 16.5054 23.2649 16.806 22.9969C17.1067 22.7288 17.3776 22.4346 17.6188 22.1142L18.2078 21.327C18.2689 21.245 18.3441 21.1782 18.4332 21.1249C18.5215 21.0725 18.6176 21.0378 18.7207 21.0226C18.8238 21.0065 18.9252 21.0108 19.0266 21.0344C19.128 21.0581 19.2206 21.1004 19.3045 21.1596C19.3892 21.2196 19.4583 21.2923 19.5125 21.3794C19.5666 21.4657 19.6016 21.5587 19.6182 21.6593C19.6339 21.759 19.6296 21.858 19.6051 21.9569C19.5806 22.055 19.5378 22.1454 19.4766 22.2275L18.8868 23.0155C18.6246 23.3647 18.3336 23.6893 18.0129 23.9903C17.693 24.2905 17.3496 24.5628 16.9817 24.8063C16.6138 25.0498 16.2275 25.2603 15.8221 25.4395C15.4175 25.6188 14.9989 25.7625 14.5689 25.8716L12.4768 30.6394C12.4279 30.7493 12.3912 30.8618 12.365 30.9785C12.3388 31.0952 12.3248 31.2135 12.3222 31.3327C12.3195 31.452 12.3283 31.5695 12.3493 31.687C12.3702 31.8045 12.4017 31.9195 12.4454 32.0311C12.4891 32.1427 12.5433 32.2484 12.6079 32.3499C12.6726 32.4514 12.746 32.5461 12.8299 32.6331C12.9129 32.7211 13.0047 32.7997 13.1034 32.8699C13.2022 32.9401 13.307 33.0009 13.418 33.0517V33.0542ZM14.1966 7.54605C14.6825 8.04659 15.3746 8.33322 16.2581 8.40508C16.2774 7.54351 16.0528 6.84428 15.5948 6.32091C14.9604 5.60053 13.9895 5.31644 13.2957 5.20568C13.3367 5.88801 13.5255 6.85611 14.1966 7.54605ZM18.4874 8.01192C18.705 8.66635 19.2066 9.2117 19.9695 9.64714C20.3689 8.87688 20.4755 8.15312 20.2902 7.4894C20.0359 6.57371 19.2844 5.91168 18.7059 5.52105C18.442 6.15434 18.185 7.10807 18.4874 8.01192ZM22.3683 9.28441C22.5868 9.93884 23.0884 10.4842 23.8513 10.9213C24.2498 10.1502 24.3573 9.42139 24.172 8.76189C23.9168 7.84536 23.1653 7.18332 22.5876 6.79439C22.3281 7.42599 22.0651 8.38141 22.3683 9.28441ZM28.1674 46.5612H7.77274C7.70545 46.5637 7.63903 46.5722 7.57349 46.5866C7.50708 46.6009 7.44416 46.6212 7.38211 46.6483C7.32094 46.6745 7.26239 46.7066 7.20646 46.7438C7.15141 46.781 7.10072 46.8233 7.05353 46.8707C7.00722 46.9172 6.96527 46.9687 6.92857 47.0237C6.89186 47.0787 6.8604 47.1361 6.83506 47.197C6.80972 47.2579 6.79049 47.3196 6.77826 47.3839C6.76515 47.449 6.75903 47.5132 6.75903 47.5792C6.75903 47.6443 6.76515 47.7094 6.77826 47.7737C6.79049 47.8379 6.80972 47.9005 6.83506 47.9614C6.8604 48.0222 6.89186 48.0797 6.92857 48.1347C6.96527 48.1897 7.00722 48.2404 7.05353 48.2877C7.10072 48.3342 7.15141 48.3765 7.20646 48.4137C7.26239 48.4518 7.32094 48.4839 7.38211 48.5101C7.44416 48.5363 7.50708 48.5566 7.57349 48.5718C7.63903 48.5862 7.70545 48.5947 7.77274 48.5963H28.1674C28.2373 48.5989 28.3072 48.5938 28.3762 48.5828C28.4453 48.571 28.5126 48.5532 28.5781 48.5287C28.6436 48.5033 28.7057 48.4729 28.7642 48.4365C28.8237 48.3993 28.8778 48.3571 28.9285 48.3097C28.9792 48.2624 29.0238 48.2108 29.0631 48.1541C29.1033 48.0983 29.1365 48.0383 29.1636 47.9757C29.1916 47.9132 29.2117 47.8481 29.2257 47.7813C29.2396 47.7145 29.2466 47.6468 29.2466 47.5792C29.2466 47.5107 29.2396 47.4431 29.2257 47.3763C29.2117 47.3095 29.1916 47.2452 29.1636 47.1818C29.1365 47.1192 29.1033 47.0601 29.0631 47.0034C29.0238 46.9476 28.9792 46.8952 28.9285 46.8478C28.8778 46.8005 28.8237 46.7582 28.7642 46.7218C28.7057 46.6846 28.6436 46.6542 28.5781 46.6297C28.5126 46.6052 28.4453 46.5874 28.3762 46.5756C28.3072 46.5637 28.2373 46.5595 28.1674 46.5612ZM27.0366 45.0351V41.8078L23.6249 43.7981C23.5009 43.8708 23.3663 43.9072 23.2212 43.9072C23.1863 43.9063 23.1522 43.9046 23.1181 43.8995L8.91315 41.9997V45.0368L27.0366 45.0351ZM31.7721 33.8008C31.7721 33.5826 31.7512 33.3662 31.711 33.1523C31.6699 32.9384 31.6105 32.7295 31.531 32.5258C31.4514 32.322 31.3536 32.1267 31.2382 31.9407C31.122 31.7538 30.99 31.5788 30.8415 31.4156C30.6938 31.2524 30.5312 31.1036 30.3556 30.9692C30.1791 30.8347 29.992 30.7164 29.7945 30.6149C29.5962 30.5126 29.3908 30.4289 29.1767 30.3638C28.9635 30.2978 28.745 30.2522 28.5231 30.2243L24.1335 29.6916L16.7964 34.544C16.5605 34.6996 16.3079 34.823 16.0388 34.9152C15.7696 35.0065 15.4926 35.064 15.2086 35.086C14.9246 35.1079 14.6414 35.0944 14.3609 35.0462C14.0804 34.9972 13.8104 34.9143 13.5517 34.7976L12.7539 34.4341C12.5511 34.3428 12.3589 34.2328 12.1771 34.1052C11.9953 33.9775 11.8284 33.8338 11.6755 33.6748C11.5226 33.5158 11.3871 33.3434 11.2683 33.1582C11.1494 32.9739 11.0507 32.7794 10.9703 32.5765C10.8907 32.3727 10.8313 32.1639 10.7929 31.9491C10.7544 31.7344 10.7378 31.5179 10.7431 31.2998C10.7474 31.0825 10.7736 30.8669 10.8208 30.6538C10.8689 30.4416 10.9371 30.2344 11.0253 30.0349L11.0349 30.0138L8.08646 31.3074C7.45727 31.5822 6.86652 31.9212 6.31598 32.3245C5.76456 32.7278 5.26644 33.1853 4.82077 33.6976C4.37509 34.2092 3.9932 34.763 3.67511 35.3582C3.35701 35.9534 3.11058 36.5749 2.9358 37.2243L2.30049 39.5697L8.03665 40.3391L8.42116 40.3907L23.0482 42.3506L31.766 37.264L31.7721 33.8008ZM35.6845 19.1135H33.9149V42.1705H35.6845V19.1135ZM39.0236 19.1135H37.254V42.1705H39.0236V19.1135ZM42.3627 19.1135H40.5931V42.1705H42.3627V19.1135ZM48.9334 14.2137C48.9334 14.1131 48.9229 14.0142 48.9028 13.9153C48.8819 13.8172 48.8522 13.7216 48.8128 13.6286C48.7726 13.5356 48.7246 13.4477 48.6669 13.364C48.6092 13.2811 48.5445 13.2033 48.4711 13.1323C48.3986 13.0613 48.3191 12.9979 48.2326 12.9421C48.1469 12.8863 48.056 12.8389 47.9608 12.8009C47.8655 12.762 47.7677 12.7332 47.6663 12.7138C47.5649 12.6935 47.4627 12.6842 47.3596 12.6842H29.154C28.4575 14.743 26.9099 16.7122 24.7234 18.2595V28.2247L28.7171 28.7117C29.078 28.7556 29.4301 28.8351 29.7736 28.9501C30.117 29.0651 30.4447 29.2131 30.7567 29.3931C31.0687 29.5741 31.3588 29.7838 31.6262 30.0231C31.8936 30.2615 32.1331 30.5244 32.3445 30.8119V19.1135H30.574V27.3597C30.5706 27.4586 30.5478 27.5533 30.5068 27.6438C30.4648 27.7343 30.408 27.8137 30.3346 27.8822C30.2612 27.9507 30.1773 28.004 30.0829 28.0403C29.9894 28.0775 29.8907 28.0961 29.7893 28.0961C29.6879 28.0961 29.5892 28.0775 29.4957 28.0403C29.4013 28.004 29.3174 27.9507 29.244 27.8822C29.1706 27.8137 29.1138 27.7343 29.0718 27.6438C29.0308 27.5533 29.0081 27.4586 29.0046 27.3597V19.1135H28.3535C28.2521 19.1101 28.1543 19.0881 28.0616 19.0475C27.969 19.0069 27.8869 18.9511 27.8161 18.8801C27.7462 18.8091 27.6911 18.7279 27.6535 18.6357C27.6151 18.5444 27.5967 18.4489 27.5967 18.35C27.5967 18.251 27.6151 18.1555 27.6535 18.0642C27.6911 17.972 27.7462 17.8908 27.8161 17.8198C27.8869 17.7488 27.969 17.693 28.0616 17.6524C28.1543 17.6118 28.2521 17.5898 28.3535 17.5865H42.3627V16.3596C42.3583 16.2556 42.3758 16.1559 42.4134 16.0586C42.4518 15.9622 42.5078 15.876 42.5821 15.8016C42.6563 15.7272 42.742 15.6697 42.8398 15.6291C42.9386 15.5885 43.0408 15.5682 43.1475 15.5682C43.2541 15.5682 43.3563 15.5885 43.4542 15.6291C43.5529 15.6697 43.6386 15.7272 43.7129 15.8016C43.7871 15.876 43.8431 15.9622 43.8806 16.0586C43.9191 16.1559 43.9366 16.2556 43.9322 16.3596V20.2464C43.9322 20.347 43.9427 20.446 43.9628 20.5449C43.9829 20.6438 44.0135 20.7394 44.0528 20.8315C44.0921 20.9245 44.1411 21.0125 44.1979 21.0962C44.2555 21.1799 44.3211 21.2568 44.3936 21.3287C44.467 21.3997 44.5465 21.4631 44.6322 21.5189C44.7187 21.5747 44.8087 21.6221 44.904 21.6601C45.0001 21.699 45.098 21.7278 45.1993 21.7472C45.3007 21.7675 45.4029 21.7768 45.5061 21.7777H47.3569C47.4601 21.7768 47.5632 21.7675 47.6645 21.7472C47.765 21.7278 47.8638 21.699 47.959 21.6601C48.0543 21.6221 48.1452 21.5747 48.2308 21.5189C48.3173 21.4631 48.3969 21.3997 48.4694 21.3287C48.5428 21.2568 48.6083 21.1799 48.6651 21.0962C48.7228 21.0125 48.7718 20.9245 48.8111 20.8315C48.8504 20.7394 48.8801 20.6438 48.9011 20.5449C48.9212 20.446 48.9308 20.347 48.9317 20.2464L48.9334 14.2137Z" fill="black"/>
</g>
</g>
</g>
</g>
<defs>
<clipPath id="clip0_415_2631">
<rect width="50" height="50" fill="white" transform="translate(0.5 0.125)"/>
</clipPath>
</defs>
</svg>
