<svg xmlns="http://www.w3.org/2000/svg" xmlns:xlink="http://www.w3.org/1999/xlink" width="1920" zoomAndPan="magnify" viewBox="0 0 1440 809.999993" height="1080" preserveAspectRatio="xMidYMid meet" version="1.0"><defs><clipPath id="b2048a18f6"><path d="M 608.25 289.5 L 831.75 289.5 L 831.75 520.5 L 608.25 520.5 Z M 608.25 289.5 " clip-rule="nonzero"/></clipPath></defs><g clip-path="url(#b2048a18f6)"><path fill="#000000" d="M 643.644531 475.527344 L 641.9375 475.289062 C 642.066406 475.28125 642.199219 475.28125 642.328125 475.289062 C 642.78125 475.28125 643.222656 475.359375 643.644531 475.527344 Z M 831.75 354.59375 L 831.75 382.460938 C 831.75 383.386719 831.65625 384.304688 831.476562 385.214844 C 831.296875 386.125 831.027344 387.007812 830.675781 387.863281 C 830.320312 388.71875 829.886719 389.535156 829.375 390.304688 C 828.863281 391.074219 828.28125 391.789062 827.628906 392.445312 C 826.976562 393.101562 826.265625 393.6875 825.5 394.199219 C 824.734375 394.714844 823.921875 395.152344 823.070312 395.507812 C 822.21875 395.863281 821.339844 396.132812 820.4375 396.3125 C 819.53125 396.496094 818.617188 396.585938 817.695312 396.585938 L 809.421875 396.585938 C 806.90625 396.59375 804.5625 395.957031 802.386719 394.683594 L 802.386719 487.277344 C 802.386719 487.746094 802.296875 488.195312 802.121094 488.625 C 801.941406 489.058594 801.6875 489.441406 801.359375 489.769531 C 801.03125 490.101562 800.652344 490.355469 800.222656 490.535156 C 799.792969 490.714844 799.34375 490.804688 798.878906 490.804688 L 754.101562 490.804688 C 753.636719 490.804688 753.1875 490.714844 752.757812 490.539062 C 752.328125 490.359375 751.949219 490.101562 751.621094 489.773438 C 751.292969 489.441406 751.039062 489.058594 750.859375 488.625 C 750.683594 488.195312 750.59375 487.746094 750.59375 487.277344 L 750.59375 467.757812 L 733.855469 477.84375 L 733.855469 497.152344 C 734.570312 497.277344 735.269531 497.464844 735.949219 497.714844 C 736.632812 497.96875 737.285156 498.285156 737.90625 498.65625 C 738.527344 499.03125 739.113281 499.460938 739.65625 499.945312 C 740.199219 500.429688 740.691406 500.960938 741.136719 501.539062 C 741.582031 502.113281 741.96875 502.726562 742.300781 503.375 C 742.632812 504.023438 742.898438 504.699219 743.105469 505.398438 C 743.3125 506.097656 743.453125 506.8125 743.527344 507.535156 C 743.601562 508.261719 743.609375 508.988281 743.546875 509.714844 C 743.488281 510.441406 743.363281 511.15625 743.167969 511.859375 C 742.976562 512.5625 742.71875 513.242188 742.402344 513.898438 C 742.082031 514.554688 741.707031 515.175781 741.273438 515.761719 C 740.839844 516.34375 740.355469 516.886719 739.824219 517.378906 C 739.289062 517.875 738.714844 518.316406 738.101562 518.703125 C 737.484375 519.089844 736.839844 519.414062 736.164062 519.683594 C 735.488281 519.949219 734.792969 520.148438 734.078125 520.285156 C 733.367188 520.421875 732.648438 520.492188 731.921875 520.492188 L 640.757812 520.492188 C 640.03125 520.492188 639.3125 520.421875 638.597656 520.289062 C 637.882812 520.152344 637.1875 519.953125 636.511719 519.6875 C 635.835938 519.421875 635.191406 519.09375 634.574219 518.707031 C 633.960938 518.320312 633.382812 517.878906 632.851562 517.386719 C 632.316406 516.890625 631.832031 516.351562 631.398438 515.769531 C 630.964844 515.183594 630.585938 514.5625 630.265625 513.90625 C 629.949219 513.25 629.691406 512.570312 629.5 511.867188 C 629.304688 511.164062 629.179688 510.449219 629.117188 509.722656 C 629.054688 508.996094 629.0625 508.269531 629.136719 507.542969 C 629.210938 506.816406 629.351562 506.105469 629.558594 505.402344 C 629.761719 504.703125 630.03125 504.03125 630.363281 503.378906 C 630.695312 502.730469 631.082031 502.117188 631.527344 501.539062 C 631.972656 500.964844 632.464844 500.433594 633.007812 499.949219 C 633.550781 499.464844 634.132812 499.035156 634.757812 498.660156 C 635.378906 498.285156 636.03125 497.96875 636.714844 497.714844 C 637.394531 497.464844 638.09375 497.277344 638.808594 497.152344 L 638.808594 481.976562 L 611.417969 478.191406 C 611.171875 478.15625 610.929688 478.09375 610.699219 478.007812 C 610.464844 477.925781 610.242188 477.816406 610.035156 477.683594 C 609.824219 477.550781 609.628906 477.394531 609.453125 477.222656 C 609.273438 477.046875 609.117188 476.859375 608.980469 476.648438 C 608.839844 476.441406 608.726562 476.222656 608.636719 475.992188 C 608.542969 475.757812 608.476562 475.519531 608.4375 475.273438 C 608.394531 475.027344 608.382812 474.78125 608.390625 474.53125 C 608.402344 474.28125 608.441406 474.039062 608.503906 473.796875 L 612.355469 459.105469 C 612.808594 457.359375 613.359375 455.640625 614.003906 453.957031 C 614.652344 452.269531 615.386719 450.625 616.21875 449.023438 C 617.046875 447.421875 617.960938 445.871094 618.960938 444.371094 C 619.960938 442.867188 621.042969 441.429688 622.203125 440.050781 C 623.363281 438.671875 624.597656 437.363281 625.90625 436.121094 C 627.210938 434.882812 628.582031 433.71875 630.019531 432.632812 C 631.453125 431.546875 632.945312 430.542969 634.492188 429.625 C 636.039062 428.707031 637.632812 427.878906 639.273438 427.136719 L 659.402344 418 L 662.859375 409.855469 L 659.765625 410.316406 C 658.953125 410.441406 658.132812 410.503906 657.3125 410.503906 C 655.804688 410.5 654.328125 410.296875 652.878906 409.886719 C 651.425781 409.476562 650.058594 408.875 648.773438 408.085938 C 647.488281 407.296875 646.332031 406.347656 645.308594 405.238281 C 644.28125 404.128906 643.425781 402.902344 642.738281 401.554688 L 636.992188 390.3125 C 636.5625 389.476562 636.253906 388.597656 636.0625 387.675781 C 635.867188 386.753906 635.800781 385.824219 635.859375 384.882812 C 635.914062 383.945312 636.097656 383.027344 636.398438 382.136719 C 636.703125 381.246094 637.117188 380.410156 637.644531 379.632812 L 632.632812 379.234375 C 632.246094 379.207031 631.859375 379.148438 631.480469 379.070312 C 631.101562 378.988281 630.726562 378.886719 630.359375 378.757812 C 629.992188 378.628906 629.636719 378.476562 629.289062 378.304688 C 628.941406 378.128906 628.609375 377.933594 628.285156 377.714844 C 627.960938 377.496094 627.65625 377.261719 627.363281 377.003906 C 627.070312 376.746094 626.796875 376.472656 626.539062 376.179688 C 626.28125 375.886719 626.046875 375.578125 625.828125 375.253906 C 625.609375 374.933594 625.414062 374.597656 625.238281 374.246094 C 625.066406 373.898438 624.914062 373.539062 624.785156 373.171875 C 624.65625 372.804688 624.550781 372.429688 624.46875 372.046875 C 624.386719 371.667969 624.332031 371.28125 624.296875 370.890625 C 624.265625 370.503906 624.257812 370.113281 624.277344 369.722656 C 624.292969 369.335938 624.335938 368.945312 624.40625 368.5625 C 624.472656 368.179688 624.5625 367.800781 624.679688 367.425781 C 624.792969 367.054688 624.933594 366.691406 625.09375 366.335938 C 625.257812 365.980469 625.441406 365.640625 625.644531 365.308594 L 636.09375 348.46875 C 636.785156 347.339844 637.046875 346.117188 636.875 344.800781 L 634.664062 328.535156 C 631.484375 327.136719 628.613281 325.257812 626.058594 322.898438 C 625.738281 322.597656 625.484375 322.246094 625.296875 321.851562 C 625.105469 321.453125 624.992188 321.035156 624.960938 320.59375 C 624.925781 320.15625 624.972656 319.726562 625.101562 319.304688 C 625.226562 318.882812 625.425781 318.496094 625.695312 318.148438 C 627.859375 315.414062 630.410156 313.105469 633.339844 311.21875 C 632.003906 307.386719 631.457031 303.441406 631.699219 299.390625 C 631.726562 298.949219 631.832031 298.527344 632.015625 298.125 C 632.199219 297.722656 632.453125 297.367188 632.769531 297.0625 C 633.085938 296.753906 633.449219 296.515625 633.855469 296.347656 C 634.261719 296.175781 634.6875 296.085938 635.128906 296.078125 C 637.425781 296.03125 643.441406 296.253906 649.023438 299.261719 C 649.113281 299.304688 649.203125 299.355469 649.285156 299.40625 C 658.054688 293.203125 668.898438 289.507812 678.757812 289.507812 L 689.820312 289.507812 C 716.476562 289.507812 738.191406 310.484375 738.191406 336.273438 C 738.191406 337.679688 738.101562 339.078125 737.929688 340.472656 L 817.710938 340.472656 C 818.632812 340.472656 819.542969 340.566406 820.449219 340.75 C 821.351562 340.929688 822.230469 341.199219 823.082031 341.554688 C 823.929688 341.910156 824.738281 342.347656 825.507812 342.859375 C 826.273438 343.375 826.980469 343.960938 827.632812 344.617188 C 828.285156 345.273438 828.867188 345.984375 829.378906 346.757812 C 829.890625 347.527344 830.324219 348.339844 830.675781 349.195312 C 831.03125 350.050781 831.296875 350.933594 831.476562 351.84375 C 831.65625 352.75 831.75 353.667969 831.75 354.59375 Z M 638.765625 303.367188 C 638.910156 305.101562 639.253906 306.796875 639.796875 308.449219 C 641.035156 308.128906 642.289062 307.933594 643.566406 307.867188 C 645.546875 307.761719 647.492188 307.976562 649.40625 308.503906 C 646.460938 305.003906 641.984375 303.773438 638.765625 303.367188 Z M 644.578125 323.324219 C 647.722656 323.003906 650.65625 321.351562 653.308594 318.402344 C 650.21875 315.910156 647.066406 314.707031 643.910156 314.894531 C 642.347656 314.988281 640.847656 315.347656 639.414062 315.980469 L 639.164062 316.09375 C 637.097656 317.066406 635.242188 318.34375 633.597656 319.925781 C 636.191406 321.699219 640.238281 323.757812 644.578125 323.308594 Z M 665.992188 441.632812 L 669.5625 443.3125 C 670.167969 443.59375 670.800781 443.792969 671.457031 443.910156 C 672.109375 444.027344 672.769531 444.0625 673.4375 444.007812 C 674.101562 443.953125 674.746094 443.816406 675.375 443.59375 C 676.003906 443.375 676.59375 443.074219 677.148438 442.703125 L 709.5 420.554688 L 709.5 371.453125 C 709.492188 371.332031 709.492188 371.214844 709.5 371.097656 C 709.503906 371.007812 709.519531 370.921875 709.535156 370.835938 C 709.539062 370.789062 709.546875 370.738281 709.5625 370.691406 C 709.582031 370.585938 709.609375 370.484375 709.648438 370.382812 C 709.675781 370.300781 709.703125 370.214844 709.738281 370.136719 C 709.773438 370.03125 709.820312 369.929688 709.875 369.835938 C 709.894531 369.792969 709.917969 369.753906 709.945312 369.714844 C 709.984375 369.640625 710.03125 369.5625 710.078125 369.492188 C 710.132812 369.410156 710.191406 369.328125 710.257812 369.253906 L 710.289062 369.214844 C 710.351562 369.132812 710.421875 369.054688 710.5 368.980469 C 710.566406 368.90625 710.636719 368.84375 710.714844 368.78125 C 710.820312 368.691406 710.925781 368.609375 711.039062 368.53125 C 721.078125 361.601562 727.894531 352.523438 730.246094 343.304688 C 730.839844 341.003906 731.148438 338.664062 731.164062 336.285156 C 731.164062 314.390625 712.613281 296.558594 689.800781 296.558594 L 678.757812 296.558594 C 670.886719 296.558594 662.242188 299.328125 654.949219 304.078125 C 656.515625 305.96875 657.664062 308.089844 658.402344 310.433594 C 658.421875 309.761719 658.464844 309.203125 658.5 308.785156 C 658.542969 308.347656 658.660156 307.933594 658.855469 307.539062 C 659.050781 307.148438 659.308594 306.800781 659.632812 306.507812 C 659.957031 306.210938 660.320312 305.980469 660.726562 305.824219 C 661.136719 305.664062 661.558594 305.585938 661.996094 305.585938 L 662.035156 305.585938 C 664.941406 305.621094 674.90625 306.300781 681.058594 313.539062 C 681.414062 313.960938 681.753906 314.390625 682.066406 314.835938 C 682.796875 312.316406 683.820312 309.925781 685.140625 307.660156 C 685.367188 307.277344 685.652344 306.949219 686 306.679688 C 686.347656 306.40625 686.734375 306.207031 687.15625 306.082031 C 687.578125 305.953125 688.011719 305.910156 688.449219 305.949219 C 688.890625 305.984375 689.308594 306.101562 689.703125 306.296875 C 691.738281 307.292969 697.484375 310.5 701.085938 316.238281 C 701.632812 315.050781 702.148438 314.121094 702.488281 313.539062 C 702.714844 313.15625 703 312.828125 703.347656 312.554688 C 703.695312 312.277344 704.078125 312.078125 704.5 311.949219 C 704.925781 311.820312 705.355469 311.773438 705.796875 311.808594 C 706.238281 311.84375 706.65625 311.960938 707.054688 312.152344 C 709.65625 313.4375 718.359375 318.339844 720.839844 327.539062 C 722.421875 333.402344 721.109375 339.59375 716.925781 345.929688 C 716.601562 346.417969 716.179688 346.804688 715.660156 347.085938 C 715.140625 347.363281 714.589844 347.503906 714.003906 347.503906 C 713.523438 347.503906 713.0625 347.40625 712.625 347.210938 C 707.246094 344.902344 703.347656 341.699219 701 337.691406 C 700.578125 338.472656 700.082031 339.257812 699.582031 340.042969 C 699.253906 340.535156 698.835938 340.921875 698.316406 341.203125 C 697.796875 341.480469 697.246094 341.621094 696.65625 341.621094 C 696.175781 341.625 695.71875 341.527344 695.277344 341.332031 C 690.640625 339.332031 687.113281 336.683594 684.707031 333.421875 C 684.390625 333.851562 683.996094 334.1875 683.523438 334.4375 C 683.054688 334.6875 682.554688 334.824219 682.023438 334.84375 C 681.5625 334.84375 681.132812 334.84375 680.691406 334.84375 C 673.769531 334.84375 668.28125 332.742188 664.371094 328.585938 C 662.417969 326.492188 660.960938 324.089844 660.003906 321.382812 C 655.816406 326.757812 650.871094 329.769531 645.296875 330.339844 C 644.65625 330.410156 644.007812 330.441406 643.363281 330.441406 C 642.902344 330.441406 642.445312 330.441406 641.984375 330.390625 L 643.824219 343.867188 C 644.019531 345.320312 643.964844 346.765625 643.660156 348.199219 C 643.351562 349.632812 642.816406 350.972656 642.042969 352.214844 L 631.601562 369.039062 C 631.507812 369.191406 631.433594 369.351562 631.382812 369.523438 C 631.328125 369.695312 631.300781 369.867188 631.292969 370.046875 C 631.285156 370.226562 631.300781 370.402344 631.335938 370.574219 C 631.375 370.75 631.433594 370.917969 631.515625 371.078125 C 631.59375 371.234375 631.695312 371.382812 631.8125 371.515625 C 631.933594 371.648438 632.066406 371.761719 632.214844 371.863281 C 632.363281 371.960938 632.519531 372.039062 632.6875 372.09375 C 632.855469 372.152344 633.027344 372.1875 633.207031 372.199219 L 644.285156 373.082031 C 644.914062 373.128906 645.488281 373.335938 646.011719 373.695312 C 646.53125 374.050781 646.925781 374.519531 647.195312 375.09375 C 647.464844 375.664062 647.574219 376.265625 647.519531 376.898438 C 647.464844 377.53125 647.257812 378.105469 646.898438 378.625 L 643.480469 383.582031 C 643.121094 384.105469 642.921875 384.679688 642.878906 385.3125 C 642.839844 385.945312 642.960938 386.542969 643.253906 387.109375 L 649.003906 398.351562 C 649.449219 399.230469 650.023438 400.019531 650.714844 400.714844 C 651.410156 401.414062 652.195312 401.984375 653.066406 402.4375 C 653.941406 402.886719 654.863281 403.191406 655.832031 403.351562 C 656.800781 403.507812 657.769531 403.515625 658.742188 403.371094 L 666.601562 402.175781 C 668.402344 401.898438 670.160156 401.445312 671.875 400.820312 C 673.589844 400.195312 675.222656 399.40625 676.78125 398.453125 C 678.339844 397.503906 679.792969 396.40625 681.136719 395.167969 C 682.480469 393.929688 683.691406 392.570312 684.769531 391.089844 L 687.402344 387.453125 C 687.675781 387.074219 688.011719 386.765625 688.410156 386.519531 C 688.804688 386.277344 689.234375 386.117188 689.695312 386.046875 C 690.15625 385.972656 690.609375 385.992188 691.0625 386.101562 C 691.515625 386.210938 691.929688 386.40625 692.304688 386.679688 C 692.683594 386.957031 692.992188 387.292969 693.234375 387.695312 C 693.476562 388.09375 693.632812 388.523438 693.707031 388.988281 C 693.777344 389.449219 693.757812 389.90625 693.648438 390.363281 C 693.539062 390.816406 693.347656 391.234375 693.074219 391.613281 L 690.4375 395.253906 C 689.265625 396.867188 687.964844 398.367188 686.53125 399.757812 C 685.101562 401.144531 683.566406 402.402344 681.921875 403.527344 C 680.277344 404.652344 678.550781 405.625 676.738281 406.453125 C 674.929688 407.28125 673.058594 407.945312 671.136719 408.449219 L 661.785156 430.476562 C 661.566406 430.984375 661.402344 431.503906 661.285156 432.042969 C 661.167969 432.582031 661.105469 433.128906 661.09375 433.679688 C 661.082031 434.230469 661.121094 434.773438 661.214844 435.316406 C 661.308594 435.859375 661.449219 436.390625 661.644531 436.90625 C 661.839844 437.421875 662.082031 437.910156 662.371094 438.378906 C 662.660156 438.847656 662.988281 439.285156 663.363281 439.6875 C 663.734375 440.09375 664.144531 440.457031 664.585938 440.78125 C 665.027344 441.105469 665.496094 441.386719 665.992188 441.621094 Z M 669.472656 323.785156 C 671.644531 326.097656 674.738281 327.421875 678.6875 327.753906 C 678.773438 323.773438 677.769531 320.542969 675.722656 318.125 C 672.886719 314.796875 668.546875 313.484375 665.445312 312.972656 C 665.628906 316.125 666.472656 320.597656 669.472656 323.785156 Z M 688.652344 325.9375 C 689.625 328.960938 691.867188 331.480469 695.277344 333.492188 C 697.0625 329.933594 697.539062 326.589844 696.710938 323.523438 C 695.574219 319.292969 692.214844 316.234375 689.628906 314.429688 C 688.449219 317.355469 687.300781 321.761719 688.652344 325.9375 Z M 706 331.816406 C 706.976562 334.839844 709.21875 337.359375 712.628906 339.378906 C 714.410156 335.816406 714.890625 332.449219 714.0625 329.402344 C 712.921875 325.167969 709.5625 322.109375 706.980469 320.3125 C 705.820312 323.230469 704.644531 327.644531 706 331.816406 Z M 731.921875 504.035156 L 640.757812 504.035156 C 640.457031 504.046875 640.160156 504.085938 639.867188 504.152344 C 639.570312 504.21875 639.289062 504.3125 639.011719 504.4375 C 638.738281 504.558594 638.476562 504.707031 638.226562 504.878906 C 637.980469 505.050781 637.753906 505.246094 637.542969 505.464844 C 637.335938 505.679688 637.148438 505.917969 636.984375 506.171875 C 636.820312 506.425781 636.679688 506.691406 636.566406 506.972656 C 636.453125 507.253906 636.367188 507.539062 636.3125 507.835938 C 636.253906 508.136719 636.226562 508.433594 636.226562 508.738281 C 636.226562 509.039062 636.253906 509.339844 636.3125 509.636719 C 636.367188 509.933594 636.453125 510.222656 636.566406 510.503906 C 636.679688 510.785156 636.820312 511.050781 636.984375 511.304688 C 637.148438 511.558594 637.335938 511.792969 637.542969 512.011719 C 637.753906 512.226562 637.980469 512.421875 638.226562 512.59375 C 638.476562 512.769531 638.738281 512.917969 639.011719 513.039062 C 639.289062 513.160156 639.570312 513.253906 639.867188 513.324219 C 640.160156 513.390625 640.457031 513.429688 640.757812 513.4375 L 731.921875 513.4375 C 732.234375 513.449219 732.546875 513.425781 732.855469 513.375 C 733.164062 513.320312 733.464844 513.238281 733.757812 513.125 C 734.050781 513.007812 734.328125 512.867188 734.589844 512.699219 C 734.855469 512.527344 735.097656 512.332031 735.324219 512.113281 C 735.550781 511.894531 735.75 511.65625 735.925781 511.394531 C 736.105469 511.136719 736.253906 510.859375 736.375 510.570312 C 736.5 510.28125 736.589844 509.980469 736.652344 509.671875 C 736.714844 509.363281 736.746094 509.050781 736.746094 508.738281 C 736.746094 508.421875 736.714844 508.109375 736.652344 507.800781 C 736.589844 507.492188 736.5 507.195312 736.375 506.902344 C 736.253906 506.613281 736.105469 506.339844 735.925781 506.078125 C 735.75 505.820312 735.550781 505.578125 735.324219 505.359375 C 735.097656 505.140625 734.855469 504.945312 734.589844 504.777344 C 734.328125 504.605469 734.050781 504.464844 733.757812 504.351562 C 733.464844 504.238281 733.164062 504.15625 732.855469 504.101562 C 732.546875 504.046875 732.234375 504.027344 731.921875 504.035156 Z M 726.867188 496.984375 L 726.867188 482.074219 L 711.617188 491.269531 C 711.0625 491.605469 710.460938 491.773438 709.8125 491.773438 C 709.65625 491.769531 709.503906 491.761719 709.351562 491.738281 L 645.855469 482.960938 L 645.855469 496.992188 Z M 748.035156 445.082031 C 748.035156 444.074219 747.941406 443.074219 747.761719 442.085938 C 747.578125 441.097656 747.3125 440.132812 746.957031 439.191406 C 746.601562 438.25 746.164062 437.347656 745.648438 436.488281 C 745.128906 435.625 744.539062 434.816406 743.875 434.0625 C 743.214844 433.308594 742.488281 432.621094 741.703125 432 C 740.914062 431.378906 740.078125 430.832031 739.195312 430.363281 C 738.308594 429.890625 737.390625 429.503906 736.433594 429.203125 C 735.480469 428.898438 734.503906 428.6875 733.511719 428.558594 L 713.890625 426.097656 L 681.09375 448.515625 C 680.039062 449.234375 678.910156 449.804688 677.707031 450.230469 C 676.503906 450.652344 675.265625 450.917969 673.996094 451.019531 C 672.726562 451.121094 671.460938 451.058594 670.207031 450.835938 C 668.953125 450.609375 667.746094 450.226562 666.589844 449.6875 L 663.023438 448.007812 C 662.117188 447.585938 661.257812 447.078125 660.445312 446.488281 C 659.632812 445.898438 658.886719 445.234375 658.203125 444.5 C 657.519531 443.765625 656.914062 442.96875 656.382812 442.113281 C 655.851562 441.261719 655.410156 440.363281 655.050781 439.425781 C 654.695312 438.484375 654.429688 437.519531 654.257812 436.527344 C 654.085938 435.535156 654.011719 434.535156 654.035156 433.527344 C 654.054688 432.523438 654.171875 431.527344 654.382812 430.542969 C 654.597656 429.5625 654.902344 428.605469 655.296875 427.683594 L 655.339844 427.585938 L 642.160156 433.5625 C 639.347656 434.832031 636.707031 436.398438 634.246094 438.261719 C 631.78125 440.125 629.554688 442.238281 627.5625 444.605469 C 625.570312 446.96875 623.863281 449.527344 622.441406 452.277344 C 621.019531 455.027344 619.917969 457.898438 619.136719 460.898438 L 616.296875 471.734375 L 641.9375 475.289062 L 643.65625 475.527344 L 709.039062 484.582031 L 748.007812 461.082031 Z M 765.523438 377.226562 L 757.613281 377.226562 L 757.613281 483.75 L 765.523438 483.75 Z M 780.449219 377.226562 L 772.539062 377.226562 L 772.539062 483.75 L 780.449219 483.75 Z M 795.375 377.226562 L 787.464844 377.226562 L 787.464844 483.75 L 795.375 483.75 Z M 824.746094 354.589844 C 824.746094 354.125 824.699219 353.667969 824.609375 353.210938 C 824.515625 352.757812 824.382812 352.316406 824.207031 351.886719 C 824.027344 351.457031 823.8125 351.050781 823.554688 350.664062 C 823.296875 350.28125 823.007812 349.921875 822.679688 349.59375 C 822.355469 349.265625 822 348.972656 821.613281 348.714844 C 821.230469 348.457031 820.824219 348.238281 820.398438 348.0625 C 819.972656 347.882812 819.535156 347.75 819.082031 347.660156 C 818.628906 347.566406 818.171875 347.523438 817.710938 347.523438 L 736.332031 347.523438 C 733.21875 357.035156 726.300781 366.132812 716.527344 373.28125 L 716.527344 419.320312 L 734.378906 421.570312 C 735.992188 421.773438 737.566406 422.140625 739.101562 422.671875 C 740.636719 423.203125 742.101562 423.886719 743.496094 424.71875 C 744.890625 425.554688 746.1875 426.523438 747.382812 427.628906 C 748.578125 428.730469 749.648438 429.945312 750.59375 431.273438 L 750.59375 377.226562 L 742.679688 377.226562 L 742.679688 415.324219 C 742.664062 415.78125 742.5625 416.21875 742.378906 416.636719 C 742.191406 417.054688 741.9375 417.421875 741.609375 417.738281 C 741.28125 418.054688 740.90625 418.300781 740.484375 418.46875 C 740.066406 418.640625 739.625 418.726562 739.171875 418.726562 C 738.71875 418.726562 738.277344 418.640625 737.859375 418.46875 C 737.4375 418.300781 737.0625 418.054688 736.734375 417.738281 C 736.40625 417.421875 736.152344 417.054688 735.964844 416.636719 C 735.78125 416.21875 735.679688 415.78125 735.664062 415.324219 L 735.664062 377.226562 L 732.753906 377.226562 C 732.300781 377.210938 731.863281 377.109375 731.449219 376.921875 C 731.035156 376.734375 730.667969 376.476562 730.351562 376.148438 C 730.039062 375.820312 729.792969 375.445312 729.625 375.019531 C 729.453125 374.597656 729.371094 374.15625 729.371094 373.699219 C 729.371094 373.242188 729.453125 372.800781 729.625 372.378906 C 729.792969 371.953125 730.039062 371.578125 730.351562 371.25 C 730.667969 370.921875 731.035156 370.664062 731.449219 370.476562 C 731.863281 370.289062 732.300781 370.1875 732.753906 370.171875 L 795.375 370.171875 L 795.375 364.503906 C 795.355469 364.023438 795.433594 363.5625 795.601562 363.113281 C 795.773438 362.667969 796.023438 362.269531 796.355469 361.925781 C 796.6875 361.582031 797.070312 361.316406 797.507812 361.128906 C 797.949219 360.941406 798.40625 360.847656 798.882812 360.847656 C 799.359375 360.847656 799.816406 360.941406 800.253906 361.128906 C 800.695312 361.316406 801.078125 361.582031 801.410156 361.925781 C 801.742188 362.269531 801.992188 362.667969 802.160156 363.113281 C 802.332031 363.5625 802.410156 364.023438 802.390625 364.503906 L 802.390625 382.460938 C 802.390625 382.925781 802.4375 383.382812 802.527344 383.839844 C 802.617188 384.296875 802.753906 384.738281 802.929688 385.164062 C 803.105469 385.59375 803.324219 386 803.578125 386.386719 C 803.835938 386.773438 804.128906 387.128906 804.453125 387.460938 C 804.78125 387.789062 805.136719 388.082031 805.519531 388.339844 C 805.90625 388.597656 806.308594 388.816406 806.734375 388.992188 C 807.164062 389.171875 807.601562 389.304688 808.054688 389.394531 C 808.507812 389.488281 808.964844 389.53125 809.425781 389.535156 L 817.699219 389.535156 C 818.160156 389.53125 818.621094 389.488281 819.074219 389.394531 C 819.523438 389.304688 819.964844 389.171875 820.390625 388.992188 C 820.816406 388.816406 821.222656 388.597656 821.605469 388.339844 C 821.992188 388.082031 822.347656 387.789062 822.671875 387.460938 C 823 387.128906 823.292969 386.773438 823.546875 386.386719 C 823.804688 386 824.023438 385.59375 824.199219 385.164062 C 824.375 384.738281 824.507812 384.296875 824.601562 383.839844 C 824.691406 383.382812 824.734375 382.925781 824.738281 382.460938 Z M 824.746094 354.589844 " fill-opacity="1" fill-rule="nonzero"/></g></svg>