<svg xmlns="http://www.w3.org/2000/svg" xmlns:xlink="http://www.w3.org/1999/xlink" width="1920" zoomAndPan="magnify" viewBox="0 0 1440 809.999993" height="1080" preserveAspectRatio="xMidYMid meet" version="1.0"><defs><clipPath id="a89d6f140e"><path d="M 604.5 404 L 721 404 L 721 444 L 604.5 444 Z M 604.5 404 " clip-rule="nonzero"/></clipPath><clipPath id="0790208054"><path d="M 604.5 366 L 721 366 L 721 406 L 604.5 406 Z M 604.5 366 " clip-rule="nonzero"/></clipPath><clipPath id="ce502a57c2"><path d="M 719 404 L 835.5 404 L 835.5 444 L 719 444 Z M 719 404 " clip-rule="nonzero"/></clipPath><clipPath id="3a55c37087"><path d="M 719 366 L 835.5 366 L 835.5 406 L 719 406 Z M 719 366 " clip-rule="nonzero"/></clipPath><clipPath id="1fe16139d6"><path d="M 681 289.5 L 721 289.5 L 721 406 L 681 406 Z M 681 289.5 " clip-rule="nonzero"/></clipPath><clipPath id="876a71e33f"><path d="M 719 289.5 L 759 289.5 L 759 406 L 719 406 Z M 719 289.5 " clip-rule="nonzero"/></clipPath><clipPath id="3adc865d8f"><path d="M 681 404 L 721 404 L 721 520.5 L 681 520.5 Z M 681 404 " clip-rule="nonzero"/></clipPath><clipPath id="cd2e548768"><path d="M 719 404 L 759 404 L 759 520.5 L 719 520.5 Z M 719 404 " clip-rule="nonzero"/></clipPath></defs><g clip-path="url(#a89d6f140e)"><path fill="#000000" d="M 604.789062 404.042969 C 604.503906 411.386719 608.921875 417.109375 614.277344 421.5625 C 620.175781 425.945312 628.429688 429.875 638.640625 433.085938 C 659.054688 439.503906 687.113281 443.40625 717.96875 443.40625 L 720.007812 443.40625 L 720.007812 442.445312 C 658.003906 442.445312 612.472656 424.710938 612.472656 404.042969 Z M 604.789062 404.042969 " fill-opacity="1" fill-rule="nonzero"/></g><g clip-path="url(#0790208054)"><path fill="#000000" d="M 604.789062 405.957031 C 604.503906 398.613281 608.921875 392.890625 614.277344 388.4375 C 620.175781 384.054688 628.429688 380.125 638.640625 376.914062 C 659.054688 370.496094 687.113281 366.59375 717.96875 366.59375 L 720.007812 366.59375 L 720.007812 367.554688 C 658.003906 367.554688 612.472656 385.289062 612.472656 405.957031 Z M 604.789062 405.957031 " fill-opacity="1" fill-rule="nonzero"/></g><g clip-path="url(#ce502a57c2)"><path fill="#000000" d="M 835.210938 404.042969 C 835.496094 411.386719 831.078125 417.109375 825.722656 421.5625 C 819.824219 425.945312 811.570312 429.875 801.359375 433.085938 C 780.945312 439.503906 752.886719 443.40625 722.03125 443.40625 L 719.992188 443.40625 L 719.992188 442.445312 C 781.996094 442.445312 827.527344 424.710938 827.527344 404.042969 Z M 835.210938 404.042969 " fill-opacity="1" fill-rule="nonzero"/></g><g clip-path="url(#3a55c37087)"><path fill="#000000" d="M 835.210938 405.957031 C 835.496094 398.613281 831.078125 392.890625 825.722656 388.4375 C 819.824219 384.054688 811.570312 380.125 801.359375 376.914062 C 780.945312 370.496094 752.886719 366.59375 722.03125 366.59375 L 719.992188 366.59375 L 719.992188 367.554688 C 781.996094 367.554688 827.527344 385.289062 827.527344 405.957031 Z M 835.210938 405.957031 " fill-opacity="1" fill-rule="nonzero"/></g><path fill="#000000" d="M 743.050781 405.007812 C 743.050781 417.734375 732.734375 428.050781 720.007812 428.050781 C 707.28125 428.050781 696.964844 417.734375 696.964844 405.007812 C 696.964844 392.285156 707.28125 381.964844 720.007812 381.964844 C 732.734375 381.964844 743.050781 392.285156 743.050781 405.007812 Z M 743.050781 405.007812 " fill-opacity="1" fill-rule="nonzero"/><path fill="#000000" d="M 637.855469 485.785156 C 642.847656 491.179688 650.019531 492.105469 656.953125 491.46875 C 664.222656 490.394531 672.839844 487.335938 682.328125 482.386719 C 701.300781 472.488281 723.902344 455.410156 745.71875 433.589844 L 747.164062 432.148438 L 746.484375 431.46875 C 702.640625 475.3125 657.902344 494.96875 643.289062 480.355469 L 637.859375 485.785156 Z M 637.855469 485.785156 " fill-opacity="1" fill-rule="nonzero"/><path fill="#000000" d="M 639.210938 487.140625 C 633.816406 482.152344 632.894531 474.980469 633.53125 468.042969 C 634.601562 460.777344 637.660156 452.160156 642.609375 442.671875 C 652.507812 423.695312 669.585938 401.097656 691.40625 379.277344 L 692.847656 377.835938 L 693.527344 378.515625 C 649.683594 422.359375 630.03125 467.09375 644.644531 481.710938 L 639.214844 487.140625 Z M 639.210938 487.140625 " fill-opacity="1" fill-rule="nonzero"/><path fill="#000000" d="M 800.789062 322.855469 C 806.183594 327.847656 807.105469 335.015625 806.46875 341.953125 C 805.398438 349.222656 802.339844 357.839844 797.390625 367.328125 C 787.492188 386.300781 770.410156 408.898438 748.59375 430.71875 L 747.148438 432.160156 L 746.472656 431.480469 C 790.316406 387.640625 809.96875 342.902344 795.355469 328.289062 L 800.785156 322.855469 Z M 800.789062 322.855469 " fill-opacity="1" fill-rule="nonzero"/><path fill="#000000" d="M 802.144531 324.210938 C 797.152344 318.816406 789.980469 317.894531 783.046875 318.527344 C 775.777344 319.601562 767.160156 322.660156 757.671875 327.609375 C 738.695312 337.507812 716.097656 354.585938 694.28125 376.40625 L 692.835938 377.847656 L 693.515625 378.527344 C 737.359375 334.683594 782.097656 315.027344 796.710938 329.644531 L 802.140625 324.210938 Z M 802.144531 324.210938 " fill-opacity="1" fill-rule="nonzero"/><path fill="#000000" d="M 639.210938 322.855469 C 633.816406 327.847656 632.894531 335.019531 633.53125 341.957031 C 634.601562 349.222656 637.660156 357.839844 642.609375 367.328125 C 652.507812 386.304688 669.585938 408.902344 691.40625 430.71875 L 692.847656 432.164062 L 693.527344 431.484375 C 649.683594 387.640625 630.03125 342.90625 644.644531 328.289062 Z M 639.210938 322.855469 " fill-opacity="1" fill-rule="nonzero"/><path fill="#000000" d="M 637.855469 324.210938 C 642.847656 318.816406 650.019531 317.894531 656.953125 318.53125 C 664.222656 319.605469 672.839844 322.664062 682.328125 327.613281 C 701.300781 337.507812 723.902344 354.589844 745.71875 376.40625 L 747.164062 377.851562 L 746.484375 378.53125 C 702.640625 334.6875 657.902344 315.03125 643.289062 329.644531 Z M 637.855469 324.210938 " fill-opacity="1" fill-rule="nonzero"/><path fill="#000000" d="M 802.144531 485.789062 C 797.152344 491.183594 789.980469 492.105469 783.046875 491.46875 C 775.777344 490.398438 767.160156 487.339844 757.671875 482.390625 C 738.695312 472.492188 716.097656 455.414062 694.28125 433.59375 L 692.835938 432.152344 L 693.515625 431.472656 C 737.359375 475.316406 782.09375 494.972656 796.710938 480.355469 Z M 802.144531 485.789062 " fill-opacity="1" fill-rule="nonzero"/><path fill="#000000" d="M 800.789062 487.144531 C 806.183594 482.152344 807.105469 474.980469 806.46875 468.046875 C 805.398438 460.777344 802.339844 452.160156 797.390625 442.671875 C 787.492188 423.699219 770.410156 401.101562 748.59375 379.28125 L 747.148438 377.839844 L 746.472656 378.515625 C 790.316406 422.359375 809.96875 467.097656 795.355469 481.710938 L 800.785156 487.144531 Z M 800.789062 487.144531 " fill-opacity="1" fill-rule="nonzero"/><g clip-path="url(#1fe16139d6)"><path fill="#000000" d="M 720.957031 289.789062 C 713.613281 289.503906 707.890625 293.921875 703.4375 299.277344 C 699.054688 305.175781 695.125 313.429688 691.914062 323.640625 C 685.496094 344.054688 681.59375 372.113281 681.59375 402.96875 L 681.59375 405.007812 L 682.554688 405.007812 C 682.554688 343.003906 700.289062 297.472656 720.957031 297.472656 Z M 720.957031 289.789062 " fill-opacity="1" fill-rule="nonzero"/></g><g clip-path="url(#876a71e33f)"><path fill="#000000" d="M 719.042969 289.789062 C 726.386719 289.503906 732.109375 293.921875 736.5625 299.277344 C 740.945312 305.175781 744.875 313.429688 748.085938 323.640625 C 754.503906 344.054688 758.40625 372.113281 758.40625 402.96875 L 758.40625 405.007812 L 757.445312 405.007812 C 757.445312 343.003906 739.710938 297.472656 719.042969 297.472656 Z M 719.042969 289.789062 " fill-opacity="1" fill-rule="nonzero"/></g><g clip-path="url(#3adc865d8f)"><path fill="#000000" d="M 720.957031 520.210938 C 713.613281 520.496094 707.890625 516.078125 703.4375 510.722656 C 699.054688 504.824219 695.125 496.570312 691.914062 486.359375 C 685.496094 465.945312 681.59375 437.886719 681.59375 407.03125 L 681.59375 404.992188 L 682.554688 404.992188 C 682.554688 466.996094 700.289062 512.527344 720.957031 512.527344 Z M 720.957031 520.210938 " fill-opacity="1" fill-rule="nonzero"/></g><g clip-path="url(#cd2e548768)"><path fill="#000000" d="M 719.042969 520.210938 C 726.386719 520.496094 732.109375 516.078125 736.5625 510.722656 C 740.945312 504.824219 744.875 496.570312 748.085938 486.359375 C 754.503906 465.945312 758.40625 437.886719 758.40625 407.03125 L 758.40625 404.992188 L 757.445312 404.992188 C 757.445312 466.996094 739.710938 512.527344 719.042969 512.527344 Z M 719.042969 520.210938 " fill-opacity="1" fill-rule="nonzero"/></g></svg>