<svg width="51" height="50" viewBox="0 0 51 50" fill="none" xmlns="http://www.w3.org/2000/svg">
<g id="f&#195;&#173;sica" clip-path="url(#clip0_415_2657)">
<g id="Clip path group">
<mask id="mask0_415_2657" style="mask-type:luminance" maskUnits="userSpaceOnUse" x="0" y="24" width="27" height="10">
<g id="a89d6f140e">
<path id="Vector" d="M0.785156 24.7834H26.0016V33.4415H0.785156V24.7834Z" fill="white"/>
</g>
</mask>
<g mask="url(#mask0_415_2657)">
<g id="Group">
<path id="Vector_2" d="M0.848533 24.7927C0.786811 26.3823 1.74308 27.621 2.90227 28.5848C4.17899 29.5335 5.96555 30.3841 8.17571 31.0791C12.5943 32.4683 18.6676 33.3129 25.3463 33.3129H25.7877V33.1049C12.3669 33.1049 2.51165 29.2663 2.51165 24.7927H0.848533Z" fill="black"/>
</g>
</g>
</g>
<g id="Clip path group_2">
<mask id="mask1_415_2657" style="mask-type:luminance" maskUnits="userSpaceOnUse" x="0" y="16" width="27" height="10">
<g id="0790208054">
<path id="Vector_3" d="M0.785156 16.5583H26.0016V25.2164H0.785156V16.5583Z" fill="white"/>
</g>
</mask>
<g mask="url(#mask1_415_2657)">
<g id="Group_2">
<path id="Vector_4" d="M0.848533 25.207C0.786811 23.6174 1.74308 22.3787 2.90227 21.4149C4.17899 20.4662 5.96555 19.6156 8.17571 18.9206C12.5943 17.5314 18.6676 16.6868 25.3463 16.6868H25.7877V16.8948C12.3669 16.8948 2.51165 20.7334 2.51165 25.207H0.848533Z" fill="black"/>
</g>
</g>
</g>
<g id="Clip path group_3">
<mask id="mask2_415_2657" style="mask-type:luminance" maskUnits="userSpaceOnUse" x="25" y="24" width="26" height="10">
<g id="ce502a57c2">
<path id="Vector_5" d="M25.5684 24.7834H50.7848V33.4415H25.5684V24.7834Z" fill="white"/>
</g>
</mask>
<g mask="url(#mask2_415_2657)">
<g id="Group_3">
<path id="Vector_6" d="M50.7223 24.7927C50.784 26.3823 49.8278 27.621 48.6686 28.5848C47.3919 29.5335 45.6053 30.3841 43.3951 31.0791C38.9765 32.4683 32.9032 33.3129 26.2246 33.3129H25.7832V33.1049C39.204 33.1049 49.0592 29.2663 49.0592 24.7927H50.7223Z" fill="black"/>
</g>
</g>
</g>
<g id="Clip path group_4">
<mask id="mask3_415_2657" style="mask-type:luminance" maskUnits="userSpaceOnUse" x="25" y="16" width="26" height="10">
<g id="3a55c37087">
<path id="Vector_7" d="M25.5684 16.5583H50.7848V25.2164H25.5684V16.5583Z" fill="white"/>
</g>
</mask>
<g mask="url(#mask3_415_2657)">
<g id="Group_4">
<path id="Vector_8" d="M50.7223 25.207C50.784 23.6174 49.8278 22.3787 48.6686 21.4149C47.3919 20.4662 45.6053 19.6156 43.3951 18.9206C38.9765 17.5314 32.9032 16.6868 26.2246 16.6868H25.7832V16.8948C39.204 16.8948 49.0592 20.7334 49.0592 25.207H50.7223Z" fill="black"/>
</g>
</g>
</g>
<path id="Vector_9" d="M30.7741 25.0016C30.7741 27.7562 28.5412 29.9892 25.7865 29.9892C23.0318 29.9892 20.7988 27.7562 20.7988 25.0016C20.7988 22.2477 23.0318 20.0139 25.7865 20.0139C28.5412 20.0139 30.7741 22.2477 30.7741 25.0016Z" fill="black"/>
<path id="Vector_10" d="M8.00586 42.486C9.08642 43.6537 10.6388 43.8541 12.1396 43.7163C13.713 43.4837 15.5782 42.8217 17.632 41.7505C21.7386 39.6079 26.6307 35.9114 31.3529 31.1884L31.6657 30.8764L31.5186 30.7292C22.0286 40.2192 12.345 44.4738 9.18196 41.3108L8.0067 42.486H8.00586Z" fill="black"/>
<path id="Vector_11" d="M8.2986 42.7794C7.13095 41.6997 6.93141 40.1473 7.06923 38.6457C7.3009 37.073 7.96293 35.2079 9.03419 33.1541C11.1767 29.0466 14.8733 24.1554 19.5963 19.4324L19.9083 19.1204L20.0554 19.2675C10.5654 28.7575 6.31165 38.4402 9.4747 41.6041L8.29944 42.7794H8.2986Z" fill="black"/>
<path id="Vector_12" d="M43.2724 7.21973C44.4401 8.30029 44.6396 9.8518 44.5018 11.3534C44.2701 12.9269 43.6081 14.7921 42.5368 16.8458C40.3943 20.9525 36.6969 25.8437 31.9747 30.5668L31.6619 30.8788L31.5156 30.7316C41.0056 21.2425 45.2594 11.5589 42.0963 8.39583L43.2716 7.21973H43.2724Z" fill="black"/>
<path id="Vector_13" d="M43.5661 7.51319C42.4856 6.34554 40.9332 6.146 39.4324 6.28297C37.8589 6.51548 35.9937 7.17752 33.94 8.24878C29.8325 10.3913 24.9413 14.0879 20.2191 18.8109L19.9062 19.1229L20.0534 19.27C29.5434 9.77999 39.227 5.52539 42.39 8.68929L43.5653 7.51319H43.5661Z" fill="black"/>
<path id="Vector_14" d="M8.2986 7.21973C7.13095 8.30029 6.93141 9.85264 7.06923 11.3543C7.3009 12.9269 7.96293 14.7921 9.03419 16.8458C11.1767 20.9533 14.8733 25.8446 19.5963 30.5668L19.9083 30.8796L20.0554 30.7325C10.5654 21.2425 6.31165 11.5597 9.4747 8.39583L8.2986 7.21973Z" fill="black"/>
<path id="Vector_15" d="M8.00586 7.5132C9.08642 6.34555 10.6388 6.14601 12.1396 6.28383C13.713 6.51634 15.5782 7.17838 17.632 8.24964C21.7386 10.3913 26.6307 14.0887 31.3529 18.8109L31.6657 19.1237L31.5186 19.2708C22.0286 9.78085 12.345 5.52625 9.18196 8.6893L8.00586 7.5132Z" fill="black"/>
<path id="Vector_16" d="M43.5661 42.4868C42.4856 43.6544 40.9332 43.854 39.4324 43.7161C37.8589 43.4845 35.9937 42.8224 33.94 41.7512C29.8325 39.6087 24.9413 35.9121 20.2191 31.1891L19.9062 30.8771L20.0534 30.73C29.5434 40.22 39.2261 44.4746 42.39 41.3107L43.5661 42.4868Z" fill="black"/>
<path id="Vector_17" d="M43.2724 42.7801C44.4401 41.6996 44.6396 40.1472 44.5018 38.6464C44.2701 37.0729 43.6081 35.2077 42.5368 33.154C40.3943 29.0474 36.6969 24.1561 31.9747 19.4331L31.6619 19.1211L31.5156 19.2674C41.0056 28.7574 45.2594 38.441 42.0963 41.604L43.2716 42.7801H43.2724Z" fill="black"/>
<g id="Clip path group_5">
<mask id="mask4_415_2657" style="mask-type:luminance" maskUnits="userSpaceOnUse" x="17" y="0" width="10" height="26">
<g id="1fe16139d6">
<path id="Vector_18" d="M17.3438 0H26.0018V25.2165H17.3438V0Z" fill="white"/>
</g>
</mask>
<g mask="url(#mask4_415_2657)">
<g id="Group_5">
<path id="Vector_19" d="M25.9928 0.0626443C24.4033 0.000922218 23.1646 0.957192 22.2007 2.11638C21.2521 3.3931 20.4015 5.17966 19.7065 7.38982C18.3173 11.8085 17.4727 17.8817 17.4727 24.5604V25.0018H17.6807C17.6807 11.581 21.5193 1.72576 25.9928 1.72576V0.0626443Z" fill="black"/>
</g>
</g>
</g>
<g id="Clip path group_6">
<mask id="mask5_415_2657" style="mask-type:luminance" maskUnits="userSpaceOnUse" x="25" y="0" width="10" height="26">
<g id="876a71e33f">
<path id="Vector_20" d="M25.5684 0H34.2264V25.2165H25.5684V0Z" fill="white"/>
</g>
</mask>
<g mask="url(#mask5_415_2657)">
<g id="Group_6">
<path id="Vector_21" d="M25.5781 0.0626443C27.1677 0.000922218 28.4064 0.957192 29.3702 2.11638C30.3189 3.3931 31.1695 5.17966 31.8645 7.38982C33.2537 11.8085 34.0983 17.8817 34.0983 24.5604V25.0018H33.8903C33.8903 11.581 30.0517 1.72576 25.5781 1.72576V0.0626443Z" fill="black"/>
</g>
</g>
</g>
<g id="Clip path group_7">
<mask id="mask6_415_2657" style="mask-type:luminance" maskUnits="userSpaceOnUse" x="17" y="24" width="10" height="26">
<g id="3adc865d8f">
<path id="Vector_22" d="M17.3438 24.7834H26.0018V49.9999H17.3438V24.7834Z" fill="white"/>
</g>
</mask>
<g mask="url(#mask6_415_2657)">
<g id="Group_7">
<path id="Vector_23" d="M25.9928 49.9374C24.4033 49.9991 23.1646 49.0429 22.2007 47.8837C21.2521 46.607 20.4015 44.8204 19.7065 42.6102C18.3173 38.1916 17.4727 32.1183 17.4727 25.4396V24.9983H17.6807C17.6807 38.4191 21.5193 48.2743 25.9928 48.2743V49.9374Z" fill="black"/>
</g>
</g>
</g>
<g id="Clip path group_8">
<mask id="mask7_415_2657" style="mask-type:luminance" maskUnits="userSpaceOnUse" x="25" y="24" width="10" height="26">
<g id="cd2e548768">
<path id="Vector_24" d="M25.5684 24.7834H34.2264V49.9999H25.5684V24.7834Z" fill="white"/>
</g>
</mask>
<g mask="url(#mask7_415_2657)">
<g id="Group_8">
<path id="Vector_25" d="M25.5781 49.9374C27.1677 49.9991 28.4064 49.0429 29.3702 47.8837C30.3189 46.607 31.1695 44.8204 31.8645 42.6102C33.2537 38.1916 34.0983 32.1183 34.0983 25.4396V24.9983H33.8903C33.8903 38.4191 30.0517 48.2743 25.5781 48.2743V49.9374Z" fill="black"/>
</g>
</g>
</g>
</g>
<defs>
<clipPath id="clip0_415_2657">
<rect width="50" height="50" fill="white" transform="translate(0.785156)"/>
</clipPath>
</defs>
</svg>
