<svg xmlns="http://www.w3.org/2000/svg" xmlns:xlink="http://www.w3.org/1999/xlink" width="1920" zoomAndPan="magnify" viewBox="0 0 1440 809.999993" height="1080" preserveAspectRatio="xMidYMid meet" version="1.0"><defs><clipPath id="5cec274d0f"><path d="M 618 289.5 L 823.5 289.5 L 823.5 520.5 L 618 520.5 Z M 618 289.5 " clip-rule="nonzero"/></clipPath></defs><g clip-path="url(#5cec274d0f)"><path fill="#0f0e0c" d="M 731.664062 482.453125 C 730.199219 480.09375 729.238281 477.503906 728.769531 474.84375 L 795.625 474.84375 C 795.960938 477.445312 796.632812 480.007812 797.660156 482.453125 Z M 810.777344 497.671875 L 743.921875 497.671875 C 744.390625 495.007812 745.351562 492.421875 746.816406 490.0625 L 812.816406 490.0625 C 811.785156 492.507812 811.113281 495.070312 810.777344 497.671875 Z M 746.816406 512.890625 C 745.351562 510.53125 744.390625 507.945312 743.921875 505.28125 L 810.777344 505.28125 C 811.113281 507.882812 811.785156 510.445312 812.816406 512.890625 Z M 644.53125 490.0625 L 658.757812 490.0625 C 655.703125 497.332031 655.703125 505.617188 658.757812 512.890625 L 644.53125 512.890625 C 640.226562 505.941406 640.226562 497.011719 644.53125 490.0625 Z M 629.378906 459.621094 L 643.601562 459.621094 C 640.550781 466.894531 640.550781 475.179688 643.601562 482.453125 L 629.378906 482.453125 C 625.070312 475.503906 625.070312 466.570312 629.378906 459.621094 Z M 705.144531 459.621094 L 723.160156 459.621094 C 720.105469 466.894531 720.105469 475.179688 723.160156 482.453125 L 705.144531 482.453125 C 700.839844 475.503906 700.839844 466.570312 705.144531 459.621094 Z M 698.097656 444.402344 L 743.558594 444.402344 C 748.496094 444.402344 752.710938 447.585938 754.273438 452.011719 L 687.382812 452.011719 C 688.945312 447.585938 693.160156 444.402344 698.097656 444.402344 Z M 717.039062 429.152344 C 719.570312 429.152344 722.097656 429.019531 724.617188 428.765625 L 724.617188 436.792969 L 717.039062 436.792969 Z M 666.21875 307.425781 L 671.609375 312.835938 C 662.167969 323.574219 656.425781 337.667969 656.425781 353.085938 C 656.425781 386.65625 683.617188 413.964844 717.039062 413.964844 C 732.394531 413.964844 746.421875 408.199219 757.117188 398.714844 L 762.503906 404.128906 C 735.765625 428.183594 694.515625 427.3125 668.824219 401.511719 C 643.132812 375.710938 642.269531 334.28125 666.21875 307.425781 Z M 690.523438 306.96875 L 690.523438 318.84375 C 690.523438 320.945312 692.21875 322.648438 694.308594 322.648438 L 707.121094 322.648438 L 710.90625 330.257812 L 701.886719 330.257812 C 700.617188 330.257812 699.4375 330.894531 698.734375 331.953125 L 691.15625 343.367188 C 690.746094 343.992188 690.523438 344.726562 690.523438 345.476562 L 690.523438 353.085938 L 682.117188 353.085938 L 679.042969 340.75 C 678.621094 339.058594 677.105469 337.867188 675.367188 337.867188 L 666.210938 337.867188 C 670.117188 324.738281 678.9375 313.714844 690.523438 306.96875 Z M 720.828125 379.71875 L 724.3125 379.71875 L 715.222656 391.132812 L 705.675781 391.132812 L 705.675781 383.523438 C 705.675781 382.773438 705.453125 382.039062 705.039062 381.410156 L 698.097656 370.957031 L 698.097656 360.695312 L 717.039062 360.695312 L 717.039062 375.914062 C 717.039062 378.015625 718.734375 379.71875 720.828125 379.71875 Z M 732.195312 302.035156 L 732.195312 322.644531 C 732.195312 323.332031 732.378906 324.007812 732.734375 324.601562 L 743.558594 342.71875 L 743.558594 356.886719 C 743.558594 358.164062 744.191406 359.347656 745.246094 360.054688 L 756.609375 367.664062 C 757.234375 368.078125 757.964844 368.300781 758.710938 368.300781 L 767.871094 368.300781 C 761.332031 390.28125 741.019531 406.351562 717.039062 406.351562 C 687.792969 406.351562 664.003906 382.457031 664.003906 353.082031 C 664.003906 350.5 664.1875 347.960938 664.546875 345.472656 L 672.410156 345.472656 L 675.480469 357.808594 C 675.902344 359.503906 677.417969 360.691406 679.15625 360.691406 L 690.523438 360.691406 L 690.523438 372.105469 C 690.523438 372.859375 690.746094 373.589844 691.15625 374.21875 L 698.097656 384.671875 L 698.097656 394.9375 C 698.097656 397.039062 699.792969 398.742188 701.886719 398.742188 L 717.039062 398.742188 C 718.191406 398.742188 719.28125 398.210938 720 397.3125 L 735.152344 378.289062 C 736.0625 377.148438 736.238281 375.578125 735.609375 374.265625 C 734.976562 372.945312 733.648438 372.105469 732.195312 372.105469 L 724.617188 372.105469 L 724.617188 356.886719 C 724.617188 354.785156 722.921875 353.082031 720.828125 353.082031 L 698.097656 353.082031 L 698.097656 346.625 L 703.914062 337.863281 L 717.039062 337.863281 C 718.351562 337.863281 719.574219 337.179688 720.261719 336.0625 C 720.953125 334.9375 721.011719 333.535156 720.429688 332.355469 L 712.855469 317.136719 C 712.210938 315.847656 710.898438 315.035156 709.464844 315.035156 L 698.097656 315.035156 L 698.097656 303.332031 C 703.984375 301.0625 710.367188 299.816406 717.039062 299.816406 C 722.304688 299.816406 727.390625 300.59375 732.195312 302.035156 Z M 770.078125 353.085938 C 770.078125 355.667969 769.890625 358.207031 769.53125 360.695312 L 759.859375 360.695312 L 751.136719 354.855469 L 751.136719 341.671875 C 751.136719 340.980469 750.949219 340.304688 750.59375 339.710938 L 739.769531 321.59375 L 739.769531 304.964844 C 757.671875 313.527344 770.078125 331.878906 770.078125 353.085938 Z M 667.261719 490.058594 L 711.792969 490.058594 C 708.738281 497.328125 708.738281 505.613281 711.792969 512.886719 L 667.261719 512.886719 C 662.957031 505.9375 662.957031 497.007812 667.261719 490.058594 Z M 738.3125 512.886719 L 720.296875 512.886719 C 715.992188 505.9375 715.992188 497.007812 720.296875 490.058594 L 738.3125 490.058594 C 735.257812 497.328125 735.257812 505.613281 738.3125 512.886719 Z M 797.660156 459.621094 C 796.632812 462.0625 795.960938 464.628906 795.625 467.230469 L 728.769531 467.230469 C 729.238281 464.566406 730.199219 461.980469 731.664062 459.621094 Z M 807.203125 458.097656 C 808.066406 456.945312 808.203125 455.402344 807.5625 454.113281 C 806.917969 452.824219 805.605469 452.011719 804.171875 452.011719 L 762.121094 452.011719 C 760.359375 443.339844 752.707031 436.789062 743.558594 436.789062 L 732.195312 436.789062 L 732.195312 427.617188 C 745.121094 424.984375 757.496094 418.957031 767.871094 409.515625 L 774.972656 416.652344 L 780.335938 411.269531 L 773.226562 404.136719 C 775.234375 401.910156 777.109375 399.570312 778.828125 397.144531 L 772.65625 392.730469 C 771.179688 394.8125 769.574219 396.824219 767.859375 398.746094 L 762.472656 393.335938 C 771.914062 382.597656 777.652344 368.503906 777.652344 353.085938 C 777.652344 319.519531 750.464844 292.207031 717.039062 292.207031 C 701.6875 292.207031 687.65625 297.972656 676.964844 307.453125 L 671.574219 302.042969 C 673.488281 300.324219 675.492188 298.707031 677.566406 297.226562 L 673.171875 291.027344 C 670.761719 292.753906 668.429688 294.640625 666.210938 296.65625 L 659.105469 289.519531 L 653.746094 294.898438 L 660.855469 302.035156 C 633.953125 331.867188 634.820312 378.125 663.464844 406.894531 C 676.3125 419.792969 692.65625 427.082031 709.464844 428.761719 L 709.464844 436.789062 L 698.097656 436.789062 C 687.65625 436.789062 679.15625 445.328125 679.15625 455.816406 C 679.15625 457.917969 680.851562 459.621094 682.945312 459.621094 L 696.640625 459.621094 C 693.585938 466.890625 693.585938 475.175781 696.640625 482.449219 L 652.109375 482.449219 C 647.804688 475.5 647.804688 466.566406 652.109375 459.621094 L 671.582031 459.621094 L 671.582031 452.011719 L 627.382812 452.011719 C 626.191406 452.011719 625.066406 452.574219 624.351562 453.53125 C 616.65625 463.839844 616.65625 478.230469 624.351562 488.535156 C 625.066406 489.492188 626.191406 490.058594 627.382812 490.058594 L 636.027344 490.058594 C 632.074219 499.460938 633.234375 510.574219 639.503906 518.976562 C 640.21875 519.929688 641.34375 520.496094 642.535156 520.496094 L 819.324219 520.496094 C 820.757812 520.496094 822.070312 519.683594 822.714844 518.394531 C 823.355469 517.105469 823.21875 515.558594 822.355469 514.410156 C 816.667969 506.789062 816.667969 496.15625 822.355469 488.535156 C 823.21875 487.386719 823.355469 485.839844 822.714844 484.550781 C 822.070312 483.261719 820.757812 482.449219 819.324219 482.449219 L 806.164062 482.449219 C 801.539062 474.980469 801.882812 465.21875 807.203125 458.097656 " fill-opacity="1" fill-rule="nonzero"/></g></svg>