<svg width="51" height="51" viewBox="0 0 51 51" fill="none" xmlns="http://www.w3.org/2000/svg">
<g id="geografia" clip-path="url(#clip0_415_2621)">
<g id="Clip path group">
<mask id="mask0_415_2621" style="mask-type:luminance" maskUnits="userSpaceOnUse" x="3" y="0" width="48" height="51">
<g id="5cec274d0f">
<path id="Vector" d="M3.58203 0.5H50.4998V50.5H3.58203V0.5Z" fill="white"/>
</g>
</mask>
<g mask="url(#mask0_415_2621)">
<g id="Group">
<path id="Vector_2" d="M29.5331 42.2647C29.1987 41.754 28.9793 41.1934 28.8723 40.6176H44.1361C44.2128 41.1807 44.3661 41.7354 44.6007 42.2647H29.5331ZM47.5955 45.5588H32.3317C32.4387 44.9821 32.6581 44.4224 32.9925 43.9117H48.061C47.8256 44.441 47.6722 44.9957 47.5955 45.5588ZM32.9925 48.8529C32.6581 48.3422 32.4387 47.7825 32.3317 47.2058H47.5955C47.6722 47.7689 47.8256 48.3236 48.061 48.8529H32.9925ZM9.63977 43.9117H12.8878C12.1904 45.4852 12.1904 47.2785 12.8878 48.8529H9.63977C8.65696 47.3487 8.65696 45.4159 9.63977 43.9117ZM6.18033 37.3227H9.42751C8.73099 38.897 8.73099 40.6903 9.42751 42.2647H6.18033C5.19663 40.7605 5.19663 38.8268 6.18033 37.3227ZM23.4784 37.3227H27.5916C26.8942 38.897 26.8942 40.6903 27.5916 42.2647H23.4784C22.4956 40.7605 22.4956 38.8268 23.4784 37.3227ZM21.8695 34.0286H32.2488C33.376 34.0286 34.3383 34.7177 34.6951 35.6756H19.4232C19.78 34.7177 20.7423 34.0286 21.8695 34.0286ZM26.1941 30.7277C26.772 30.7277 27.349 30.699 27.9242 30.644V32.3815H26.1941V30.7277ZM14.5913 4.37996L15.822 5.55099C13.6664 7.87529 12.3554 10.9259 12.3554 14.2631C12.3554 21.5294 18.5635 27.4404 26.1941 27.4404C29.6999 27.4404 32.9025 26.1924 35.3443 24.1395L36.5742 25.3114C30.4695 30.518 21.0517 30.3295 15.1861 24.7449C9.32049 19.1603 9.12339 10.1928 14.5913 4.37996ZM20.1403 4.28104V6.85138C20.1403 7.30627 20.5273 7.67491 21.0045 7.67491H23.9297L24.7939 9.32196H22.7346C22.4448 9.32196 22.1754 9.45978 22.0149 9.68891L20.2847 12.1595C20.1911 12.2948 20.1403 12.4537 20.1403 12.6161V14.2631H18.221L17.5192 11.593C17.4228 11.2269 17.0768 10.969 16.6799 10.969H14.5895C15.4813 8.12726 17.4951 5.74123 20.1403 4.28104ZM27.0591 20.0278H27.8547L25.7794 22.4984H23.5997V20.8513C23.5997 20.689 23.5489 20.53 23.4543 20.3939L21.8695 18.1313V15.9102H26.1941V19.2043C26.1941 19.6591 26.5811 20.0278 27.0591 20.0278ZM29.6544 3.21316V7.67406C29.6544 7.82287 29.6963 7.96915 29.7775 8.09766L32.2488 12.0191V15.0858C32.2488 15.3623 32.3932 15.6185 32.634 15.7715L35.2284 17.4186C35.3711 17.5082 35.5378 17.5564 35.7082 17.5564H37.7995C36.3066 22.314 31.6691 25.7925 26.1941 25.7925C19.5169 25.7925 14.0856 20.6205 14.0856 14.2623C14.0856 13.7034 14.1275 13.1538 14.2095 12.6152H16.0048L16.7058 15.2853C16.8021 15.6523 17.1482 15.9093 17.545 15.9093H20.1403V18.3799C20.1403 18.5431 20.1911 18.7012 20.2847 18.8373L21.8695 21.0999V23.3219C21.8695 23.7768 22.2566 24.1454 22.7346 24.1454H26.1941C26.4572 24.1454 26.706 24.0304 26.8701 23.836L30.3295 19.7183C30.5373 19.4714 30.5774 19.1316 30.4339 18.8475C30.2894 18.5617 29.9862 18.3799 29.6544 18.3799H27.9242V15.0858C27.9242 14.6309 27.5372 14.2623 27.0591 14.2623H21.8695V12.8646L23.1975 10.9682H26.1941C26.4937 10.9682 26.7729 10.8202 26.9298 10.5784C27.0877 10.3349 27.1011 10.0313 26.9682 9.776L25.2389 6.4819C25.0918 6.20288 24.7921 6.02701 24.4648 6.02701H21.8695V3.49387C23.2135 3.00263 24.6708 2.73291 26.1941 2.73291C27.3963 2.73291 28.5574 2.90117 29.6544 3.21316ZM38.3034 14.2631C38.3034 14.822 38.2606 15.3716 38.1786 15.9102H35.9704L33.9789 14.6461V11.7925C33.9789 11.6429 33.9361 11.4966 33.8549 11.3681L31.3837 7.44662V3.84729C35.471 5.70065 38.3034 9.67285 38.3034 14.2631ZM14.8294 43.9109H24.9963C24.2989 45.4844 24.2989 47.2777 24.9963 48.852H14.8294C13.8466 47.3479 13.8466 45.415 14.8294 43.9109ZM31.051 48.852H26.9379C25.9551 47.3479 25.9551 45.415 26.9379 43.9109H31.051C30.3536 45.4844 30.3536 47.2777 31.051 48.852ZM44.6007 37.3227C44.3661 37.8511 44.2128 38.4066 44.1361 38.9697H28.8723C28.9793 38.3931 29.1987 37.8334 29.5331 37.3227H44.6007ZM46.7795 36.9929C46.9766 36.7435 47.0078 36.4095 46.8615 36.1305C46.7144 35.8515 46.4147 35.6756 46.0874 35.6756H36.4868C36.0845 33.7986 34.3374 32.3807 32.2488 32.3807H29.6544V30.3954C32.6055 29.8255 35.4308 28.5209 37.7995 26.4773L39.4209 28.0221L40.6454 26.857L39.0223 25.3131C39.4807 24.8311 39.9087 24.3247 40.3012 23.7996L38.8921 22.8442C38.5549 23.2948 38.1884 23.7303 37.7969 24.1463L36.567 22.9752C38.7226 20.6509 40.0327 17.6003 40.0327 14.2631C40.0327 6.99766 33.8255 1.08586 26.1941 1.08586C22.6891 1.08586 19.4857 2.33383 17.0447 4.38588L15.814 3.21485C16.251 2.84283 16.7085 2.49279 17.182 2.17234L16.1787 0.830517C15.6285 1.20423 15.096 1.61261 14.5895 2.04889L12.9672 0.50415L11.7436 1.66842L13.3668 3.21316C7.22467 9.67031 7.42266 19.6828 13.9625 25.91C16.8958 28.7019 20.6272 30.2796 24.4648 30.6432V32.3807H21.8695C19.4857 32.3807 17.545 34.229 17.545 36.4991C17.545 36.954 17.9321 37.3227 18.4101 37.3227H21.5369C20.8395 38.8962 20.8395 40.6895 21.5369 42.2638H11.3699C10.3871 40.7597 10.3871 38.826 11.3699 37.3227H15.8157V35.6756H5.7246C5.45259 35.6756 5.19574 35.7974 5.03253 36.0045C3.27561 38.2358 3.27561 41.3507 5.03253 43.5811C5.19574 43.7883 5.45259 43.9109 5.7246 43.9109H7.69824C6.7957 45.946 7.06057 48.3515 8.49197 50.1702C8.65518 50.3765 8.91203 50.4991 9.18404 50.4991H49.5468C49.8741 50.4991 50.1738 50.3232 50.321 50.0442C50.4672 49.7652 50.436 49.4304 50.2389 49.1818C48.9404 47.5322 48.9404 45.2307 50.2389 43.5811C50.436 43.3325 50.4672 42.9977 50.321 42.7187C50.1738 42.4397 49.8741 42.2638 49.5468 42.2638H46.5422C45.4863 40.6472 45.5648 38.5343 46.7795 36.9929Z" fill="black"/>
</g>
</g>
</g>
</g>
<defs>
<clipPath id="clip0_415_2621">
<rect width="50" height="50" fill="white" transform="translate(0.5 0.5)"/>
</clipPath>
</defs>
</svg>
