<svg width="51" height="51" viewBox="0 0 51 51" fill="none" xmlns="http://www.w3.org/2000/svg">
<g id="hist&#195;&#179;ria" clip-path="url(#clip0_415_2598)">
<g id="Clip path group">
<mask id="mask0_415_2598" style="mask-type:luminance" maskUnits="userSpaceOnUse" x="5" y="0" width="35" height="51">
<g id="0df27e44c3">
<path id="Vector" d="M5.07227 0.125H39.5855V50.125H5.07227V0.125Z" fill="white"/>
</g>
</mask>
<g mask="url(#mask0_415_2598)">
<g id="Group">
<path id="Vector_2" d="M10.498 50.1056H33.9747C36.953 50.1056 39.4004 47.1388 39.4004 43.4701C39.4004 41.9871 39.0102 40.5818 38.265 39.4108L38.2297 39.3719C38.2297 39.333 38.1944 39.333 38.159 39.2941C38.159 39.2941 38.1237 39.2544 38.0883 39.2544C38.0883 39.2544 38.0522 39.2155 38.0169 39.2155C37.9816 39.2155 37.9816 39.1766 37.9462 39.1766C37.9109 39.1766 37.9109 39.1377 37.8755 39.1377C37.8394 39.1377 37.8394 39.1377 37.8041 39.0988C37.7688 39.0988 37.7688 39.0988 37.7334 39.0599C37.6981 39.0599 37.6628 39.0599 37.6628 39.0599H37.6267H14.1507C14.1154 39.0599 14.0801 39.0599 14.044 39.0599H14.0086H13.9733C13.938 39.0599 13.9026 39.0599 13.8673 39.0988C13.8312 39.0988 13.7958 39.1377 13.7605 39.1766L13.7252 39.2155C13.6898 39.2155 13.6898 39.2544 13.6545 39.2941C13.6545 39.2941 13.6192 39.333 13.6192 39.3719L13.5831 39.4108C13.5831 39.4497 13.5477 39.4497 13.5477 39.4886C13.5477 39.5275 13.5124 39.5275 13.5124 39.5672C13.5124 39.6061 13.5124 39.6061 13.477 39.645C13.477 39.6839 13.477 39.6839 13.4417 39.7228C13.4417 39.7617 13.4417 39.8014 13.4417 39.8403V39.8792C13.4417 39.9181 13.4417 39.957 13.4417 40.0356C13.4417 40.0745 13.4417 40.0745 13.477 40.1134C13.477 40.1523 13.477 40.1523 13.5124 40.1912C13.5124 40.2301 13.5477 40.2698 13.5831 40.3087C14.1507 41.2067 14.4695 42.338 14.4695 43.509C14.4695 46.3195 12.6966 48.5837 10.498 48.5837C8.29944 48.5837 6.52645 46.3195 6.52645 43.509V5.53127C12.9093 5.68684 16.1365 7.63912 19.5411 9.70724C22.1299 11.3078 24.8248 12.9083 28.9031 13.6498C29.2933 13.1814 29.7189 12.713 30.1445 12.2835C25.7474 11.6587 23.0518 10.059 20.2502 8.34174C16.8102 6.27278 13.2643 4.08714 6.52645 3.96961V2.48659C6.52645 2.05707 6.84525 1.70619 7.23549 1.70619H32.5205C32.9107 1.70619 33.2295 2.05707 33.2295 2.48659V9.47303C33.7258 9.08325 34.1875 8.73152 34.6837 8.41953V2.48659C34.6837 1.19888 33.7258 0.144531 32.5205 0.144531H7.23549C6.02943 0.144531 5.07227 1.19888 5.07227 2.48659V43.4701C5.07227 47.1388 7.51895 50.1056 10.498 50.1056ZM15.9237 43.4701C15.9237 42.4555 15.7463 41.4798 15.3921 40.6207H37.2725C37.7334 41.4798 37.9816 42.4555 37.9816 43.4701C37.9816 46.2806 36.2086 48.544 34.01 48.544H13.9733C15.144 47.3341 15.9237 45.5002 15.9237 43.4701Z" fill="black"/>
</g>
</g>
</g>
<path id="Vector_3" d="M33.9756 37.6149C34.3651 37.6149 34.6847 37.264 34.6847 36.8345V30.2378C34.1884 30.472 33.7267 30.6284 33.2305 30.7459V36.8345C33.2305 37.264 33.5854 37.6149 33.9756 37.6149Z" fill="black"/>
<path id="Vector_4" d="M21.0666 30.9802H8.69028C8.30004 30.9802 7.98047 31.3311 7.98047 31.7606C7.98047 32.1901 8.30004 32.541 8.69028 32.541H19.9673C20.2508 32.0726 20.641 31.5264 21.0666 30.9802Z" fill="black"/>
<path id="Vector_5" d="M8.69028 34.8831C8.30004 34.8831 7.98047 35.2339 7.98047 35.6635C7.98047 36.093 8.30004 36.4447 8.69028 36.4447H19.0808C18.8327 35.9763 18.7259 35.4293 18.8327 34.8831H8.69028Z" fill="black"/>
<path id="Vector_6" d="M29.7539 31.1747C29.2577 31.1747 28.7968 31.2144 28.3358 31.2533C27.3779 31.3311 26.4561 31.8773 25.7109 32.5411H31.1013C31.4916 32.5411 31.8111 32.1902 31.8111 31.7606C31.8111 31.4875 31.669 31.2144 31.4562 31.0969C30.8885 31.1358 30.3216 31.1747 29.7539 31.1747Z" fill="black"/>
<path id="Vector_7" d="M8.69028 28.6381H21.6696C21.6343 28.3252 21.6696 28.0132 21.7403 27.7401C21.811 27.5059 21.8824 27.3106 21.9178 27.0764H8.69028C8.30004 27.0764 7.98047 27.4281 7.98047 27.8568C7.98047 28.2863 8.30004 28.6381 8.69028 28.6381Z" fill="black"/>
<path id="Vector_8" d="M8.69028 20.8314H24.3291C24.5772 20.2852 24.8607 19.7779 25.1096 19.2698H8.69028C8.30004 19.2698 7.98047 19.6215 7.98047 20.051C7.98047 20.4797 8.30004 20.8314 8.69028 20.8314Z" fill="black"/>
<path id="Vector_9" d="M8.69028 16.9286H26.4923C26.8472 16.3816 27.2014 15.8742 27.5563 15.3669H8.69028C8.30004 15.3669 7.98047 15.7178 7.98047 16.1473C7.98047 16.5769 8.30004 16.9286 8.69028 16.9286Z" fill="black"/>
<path id="Vector_10" d="M8.69028 24.7344H22.6975C22.8749 24.1882 23.0877 23.6809 23.3005 23.1736H8.69028C8.30004 23.1736 7.98047 23.5245 7.98047 23.954C7.98047 24.3835 8.30004 24.7344 8.69028 24.7344Z" fill="black"/>
<g id="Clip path group_2">
<mask id="mask1_415_2598" style="mask-type:luminance" maskUnits="userSpaceOnUse" x="20" y="5" width="31" height="32">
<g id="15c0aff824">
<path id="Vector_11" d="M20.1172 5.21167H50.5007V36.1641H20.1172V5.21167Z" fill="white"/>
</g>
</mask>
<g mask="url(#mask1_415_2598)">
<g id="Group_2">
<path id="Vector_12" d="M50.4659 6.03854C50.3945 5.6868 50.1464 5.4137 49.7922 5.37481C49.5794 5.37481 44.7206 5.06282 38.9761 7.75576C33.6917 10.2145 26.6351 15.7577 23.1237 28.1697C23.0177 28.5595 23.1952 28.9501 23.514 29.1065C23.8335 29.2621 24.2238 29.1454 24.4358 28.7937C24.4719 28.7159 29.3299 20.4409 36.9542 19.231C37.3445 19.1532 37.6279 18.7626 37.5572 18.3331C37.4866 17.9044 37.1317 17.6313 36.7414 17.6702C32.0255 18.4895 28.3374 21.612 26.0321 24.2271C28.9043 17.0843 33.4436 12.0493 39.5077 9.19989C42.4867 7.79466 45.253 7.24846 47.1681 7.05315C45.0755 9.08321 43.7281 12.0493 42.8416 14.0007L42.6288 14.508C36.4226 27.8966 33.3015 27.9744 29.6848 28.0522C29.1878 28.0522 28.6562 28.0911 28.1246 28.1308C23.3726 28.5595 20.4642 34.6489 20.3221 34.922C20.1454 35.3126 20.2868 35.781 20.6417 35.9763C20.7477 36.0152 20.8545 36.0541 20.9605 36.0541C21.2094 36.0541 21.4928 35.8977 21.5989 35.6246C21.635 35.5857 24.2591 30.0434 28.2306 29.6916C28.7269 29.6527 29.2239 29.6527 29.7202 29.6139C33.6564 29.5361 37.3445 29.4185 43.8695 15.1717L44.1176 14.6644C45.2176 12.2446 47.0613 8.18528 50.0403 6.85783C50.3238 6.74115 50.5013 6.38942 50.4659 6.03854Z" fill="black"/>
</g>
</g>
</g>
</g>
<defs>
<clipPath id="clip0_415_2598">
<rect width="50" height="50" fill="white" transform="translate(0.5 0.125)"/>
</clipPath>
</defs>
</svg>
