<svg width="51" height="51" viewBox="0 0 51 51" fill="none" xmlns="http://www.w3.org/2000/svg">
<g id="matem&#195;&#161;tica" clip-path="url(#clip0_415_2562)">
<path id="Vector" d="M24.0443 48.1582C24.0443 47.9878 23.9219 47.8184 23.7373 47.8184H16.4836C16.3293 47.8184 16.1758 47.9543 16.1758 48.1582C16.1758 48.3287 16.2991 48.4981 16.4836 48.4981H23.7373C23.8908 48.4981 24.0443 48.3622 24.0443 48.1582Z" fill="black"/>
<path id="Vector_2" d="M26.3807 48.1582C26.3807 47.9878 26.2574 47.8184 26.0729 47.8184H24.8742C24.7208 47.8184 24.5664 47.9543 24.5664 48.1582C24.5664 48.3287 24.6897 48.4981 24.8742 48.4981H26.0729C26.2574 48.4981 26.3807 48.3622 26.3807 48.1582Z" fill="black"/>
<path id="Vector_3" d="M27.1195 48.4981H27.9188C28.0723 48.4981 28.2258 48.3622 28.2258 48.1582C28.2258 47.9878 28.1034 47.8184 27.9188 47.8184H27.1195C26.966 47.8184 26.8125 47.9543 26.8125 48.1582C26.8125 48.3622 26.9349 48.4981 27.1195 48.4981Z" fill="black"/>
<path id="Vector_4" d="M32.9581 49.4507H25.7035C25.55 49.4507 25.3965 49.5866 25.3965 49.7906C25.3965 49.961 25.5189 50.1314 25.7035 50.1314H32.9581C33.1115 50.1314 33.265 49.9945 33.265 49.7906C33.265 49.6211 33.1426 49.4507 32.9581 49.4507Z" fill="black"/>
<path id="Vector_5" d="M24.5661 49.4507H23.3675C23.214 49.4507 23.0605 49.5866 23.0605 49.7906C23.0605 49.961 23.183 50.1314 23.3675 50.1314H24.5661C24.7205 50.1314 24.874 49.9945 24.874 49.7906C24.8429 49.6211 24.7205 49.4507 24.5661 49.4507Z" fill="black"/>
<path id="Vector_6" d="M22.3544 49.4507H21.555C21.4015 49.4507 21.248 49.5866 21.248 49.7906C21.248 49.961 21.3705 50.1314 21.555 50.1314H22.3544C22.5079 50.1314 22.6614 49.9945 22.6614 49.7906C22.6312 49.6211 22.5079 49.4507 22.3544 49.4507Z" fill="black"/>
<g id="Clip path group">
<mask id="mask0_415_2562" style="mask-type:luminance" maskUnits="userSpaceOnUse" x="0" y="0" width="51" height="54">
<g id="808542a49c">
<path id="Vector_7" d="M0.5 0.0625H50.5V53.739H0.5V0.0625Z" fill="white"/>
</g>
</mask>
<g mask="url(#mask0_415_2562)">
<g id="Group">
<path id="Vector_8" d="M48.8806 24.8941C48.6659 21.6293 47.9277 18.466 46.6679 15.5066C46.9137 14.9283 47.0361 14.2821 47.0361 13.6023C47.0361 11.1188 45.1925 9.07853 42.9488 9.07853C42.9177 9.07853 42.8867 9.07853 42.8565 9.07853C42.2719 8.32983 41.6269 7.6156 40.981 6.96934H43.5015C43.655 6.96934 43.8094 6.83339 43.8094 6.62946C43.8094 5.57535 43.4403 4.55474 42.7642 3.807C42.0873 3.05831 41.1655 2.65045 40.2127 2.65045H35.1415C31.8828 0.949123 28.4094 0.0654297 24.7826 0.0654297C21.1557 0.0654297 17.6823 0.915614 14.4237 2.65045H11.4427C9.44471 2.65045 7.81581 4.45326 7.81581 6.66393V7.75155C3.08175 12.8536 0.5 19.6225 0.5 26.9008C0.5 32.2748 1.91418 37.4103 4.61838 41.8317H4.46489C4.3114 41.8317 4.15791 41.9686 4.15791 42.1725C4.15791 44.3832 5.7868 46.186 7.78477 46.186H7.87704C12.4257 51.0497 18.3894 53.7362 24.7213 53.7362C32.2208 53.7362 39.1986 49.9611 43.8094 43.4305C43.8706 43.397 43.9016 43.3291 43.9318 43.2601C44.7924 42.0366 45.5607 40.7096 46.2066 39.3156C50.4172 35.9139 51.4934 29.6562 48.8806 24.8941ZM42.9488 9.75829C44.8847 9.75829 46.4523 11.4931 46.4523 13.6358C46.4523 15.7785 44.8847 17.5133 42.9488 17.5133C41.012 17.5133 39.4444 15.7785 39.4444 13.6358C39.4444 11.4931 41.012 9.75829 42.9488 9.75829ZM42.1184 9.21448C40.2739 9.65681 38.8606 11.4596 38.8606 13.6358C38.8606 16.1194 40.7042 18.1596 42.9488 18.1596C44.3319 18.1596 45.5607 17.4119 46.2988 16.2208C47.2827 18.6354 47.8967 21.1525 48.1735 23.772C45.8685 20.5742 42.0261 18.9763 38.2458 19.9959L37.6922 17.7853C37.6611 17.6158 37.4774 17.5133 37.3231 17.5478L37.0773 17.6158V7.00381H39.998C40.7663 7.68357 41.4734 8.43227 42.1184 9.21448ZM40.0592 3.33021C40.9198 3.2967 41.7191 3.67009 42.2719 4.31635C42.7642 4.86112 43.0712 5.57535 43.1325 6.35756H37.1084C37.2929 4.72516 38.4915 3.36468 40.0592 3.33021ZM24.7213 0.745194C27.7946 0.745194 30.7765 1.39145 33.604 2.65045H15.8379C18.6662 1.39145 21.6472 0.745194 24.7213 0.745194ZM8.36855 6.66393C8.36855 4.82665 9.72151 3.33021 11.3815 3.33021H38.1535C37.2619 4.01093 36.6781 5.06505 36.5548 6.18714C36.4935 6.66393 36.5246 5.81374 36.5246 17.8197L33.4505 18.7379C33.297 18.7723 33.2047 18.9763 33.2358 19.1457L36.5246 32.4452V42.1725C36.5246 44.0088 35.1716 45.5053 33.4815 45.5053H33.4505C32.6511 45.5053 31.8828 45.1654 31.3292 44.5191C30.7454 43.8729 30.4384 43.0562 30.4384 42.138C30.4384 41.9686 30.3151 41.7982 30.1306 41.7982H8.36855V6.66393ZM1.08378 26.9008C1.08378 20.0304 3.45081 13.6023 7.75373 8.70418V41.7982H5.32547C2.55919 37.4448 1.08378 32.2748 1.08378 26.9008ZM7.78477 45.5053C6.21709 45.5053 4.92622 44.1792 4.77273 42.4779H29.8848C29.9461 43.4305 30.3151 44.3152 30.9299 44.995C31.1145 45.1989 31.299 45.3693 31.4835 45.5053C31.4525 45.5053 25.2439 45.5053 7.78477 45.5053ZM24.7213 53.0564C18.7576 53.0564 13.1328 50.6073 8.76866 46.186C12.0575 46.186 36.4625 46.186 40.7042 46.186C36.3702 50.5729 30.7454 53.0564 24.7213 53.0564ZM41.319 45.5053H35.4795C36.4625 44.791 37.1084 43.5665 37.1084 42.1725V34.8598L39.4754 44.3832C39.5056 44.4512 39.5366 44.5526 39.6289 44.5871C39.6901 44.6206 39.7824 44.6551 39.8436 44.6206L42.8255 43.7369C42.334 44.3487 41.8416 44.927 41.319 45.5053ZM43.7783 42.342L43.4093 40.812C44.0241 40.6081 44.6389 40.3352 45.1925 39.9953C44.7622 40.812 44.3009 41.5942 43.7783 42.342ZM49.6799 30.9823L49.0962 30.9143C48.9418 30.9143 48.7883 31.0502 48.7581 31.2206C48.7581 31.3901 48.8806 31.5605 49.0341 31.5605L49.6187 31.6285C49.5877 32.0029 49.5265 32.3427 49.4644 32.7171L48.8806 32.5467C48.7271 32.5132 48.5426 32.6146 48.5115 32.7851C48.4813 32.9545 48.5736 33.1594 48.7271 33.1929L49.3109 33.3633C49.2186 33.7032 49.0962 34.0776 48.9729 34.383L48.4193 34.1111C48.2658 34.0431 48.0812 34.1111 48.02 34.2815C47.9588 34.4519 48.02 34.6558 48.1735 34.7238L48.7271 34.9957C48.5736 35.3356 48.4193 35.642 48.2356 35.9484L47.7432 35.574C47.6208 35.4716 47.4362 35.506 47.3129 35.642C47.2206 35.7779 47.2517 35.9819 47.3741 36.1178L47.8665 36.4922C47.682 36.7985 47.4664 37.0704 47.2206 37.3424L46.7904 36.8665C46.6679 36.7306 46.4834 36.7306 46.3601 36.8665C46.2376 37.0025 46.2376 37.2064 46.3601 37.3424L46.7904 37.8182C46.5446 38.0566 46.2988 38.295 46.022 38.5334L45.684 37.9886C45.5918 37.8527 45.4072 37.8182 45.2537 37.9206C45.1304 38.0231 45.1002 38.227 45.1925 38.3965L45.5305 38.9412C45.2537 39.1452 44.9769 39.3156 44.6699 39.485L44.4233 38.8733C44.3621 38.7028 44.1776 38.6349 44.0241 38.7028C43.8706 38.7708 43.8094 38.9747 43.8706 39.1452L44.1163 39.757C43.8094 39.8939 43.5015 40.0298 43.1945 40.1313L43.0402 39.485C43.01 39.3156 42.8255 39.2131 42.672 39.2476C42.5176 39.2811 42.4262 39.485 42.4564 39.6555C42.4564 39.689 43.2868 43.0562 43.2558 42.8523L39.9359 43.8729L33.8497 19.2817L37.1696 18.262C37.1696 18.2956 38 21.6628 37.969 21.4589C38 21.6293 38.1837 21.7308 38.338 21.6972C38.4915 21.6628 38.5838 21.4589 38.5527 21.2884L38.3993 20.6422C38.7373 20.5407 39.0451 20.4727 39.3831 20.4382L39.4444 21.0845C39.4754 21.2549 39.5979 21.3909 39.7824 21.3909C39.9359 21.3909 40.0592 21.2205 40.0592 21.0165L39.998 20.3703C40.336 20.3368 40.674 20.3368 40.981 20.3703L40.9198 21.0165C40.9198 21.1869 41.0422 21.3564 41.1966 21.3564C41.3501 21.3564 41.5036 21.2549 41.5036 21.051L41.5648 20.4047C41.9037 20.4382 42.2106 20.5062 42.5487 20.5742L42.3952 21.2205C42.3641 21.3909 42.4564 21.5948 42.6099 21.6293C42.7642 21.6628 42.9488 21.5613 42.979 21.3909L43.1325 20.7446C43.4403 20.8471 43.7783 20.983 44.0551 21.119L43.8094 21.7308C43.7473 21.9012 43.8094 22.1051 43.9629 22.1731C44.1163 22.2411 44.3009 22.1731 44.3621 22.0027L44.6079 21.3909C44.9157 21.5613 45.1925 21.7308 45.4684 21.9347L45.1304 22.4795C45.0382 22.6154 45.0692 22.8193 45.1925 22.9553C45.3149 23.0577 45.4995 23.0233 45.6228 22.8873L45.9608 22.3435C46.2376 22.5474 46.4834 22.7849 46.7291 23.0577L46.2988 23.5336C46.1755 23.6695 46.1755 23.8734 46.2988 24.0094C46.4213 24.1454 46.6058 24.1454 46.7291 24.0094L47.1594 23.5336C47.3741 23.8055 47.5897 24.0774 47.8053 24.3838L47.3129 24.7581C47.1905 24.8605 47.1594 25.0645 47.2517 25.2339C47.344 25.3699 47.5285 25.4044 47.682 25.3019L48.1735 24.9285C48.358 25.2339 48.5115 25.5403 48.6659 25.8802L48.1123 26.1521C47.9588 26.2201 47.8967 26.425 47.9588 26.5944C48.02 26.7648 48.2045 26.8328 48.358 26.7648L48.9116 26.4929C49.0341 26.8328 49.1574 27.1727 49.2497 27.5126L48.6659 27.683C48.5115 27.7175 48.4193 27.9214 48.4503 28.0909C48.4813 28.2613 48.6659 28.3637 48.8194 28.3293L49.4031 28.1588C49.4954 28.5332 49.5265 28.8731 49.5877 29.2474L49.0039 29.3154C48.8495 29.3154 48.7271 29.4858 48.7271 29.6897C48.7581 30.2 49.4031 29.8937 49.6489 29.9281C49.711 30.268 49.711 30.6424 49.6799 30.9823Z" fill="black"/>
</g>
</g>
</g>
<path id="Vector_9" d="M38.9835 24.1454C38.9222 24.1799 38.83 24.2143 38.7989 24.3158C38.7687 24.3838 38.7377 24.4862 38.7687 24.5542L41.7497 36.6282C41.7808 36.6961 41.8118 36.7986 41.9041 36.8321C41.9343 36.8665 41.9964 36.8665 42.0576 36.8665C42.0878 36.8665 42.1188 36.8665 42.1498 36.8665C45.3154 35.9139 47.1909 32.2748 46.3303 28.7716C45.4387 25.2684 42.1498 23.1937 38.9835 24.1454ZM42.2421 36.1178L39.4137 24.6902C42.18 24.0439 44.9463 25.8802 45.7155 28.9076C46.4838 31.9684 44.9161 35.1317 42.2421 36.1178Z" fill="black"/>
<path id="Vector_10" d="M11.9349 23.1937C11.966 23.1937 13.4103 23.2272 24.1072 23.1937C24.2297 23.1937 24.322 23.1257 24.384 22.9898C24.4453 22.8873 24.4142 22.7514 24.353 22.6489C23.8615 21.9692 12.642 6.69747 12.1807 6.08568C12.0884 5.98324 11.966 5.94973 11.8427 5.98324C11.7202 6.01771 11.6581 6.15366 11.6581 6.28961C11.6581 7.51414 11.6581 21.6973 11.6581 22.8538C11.6279 23.0578 11.7814 23.1937 11.9349 23.1937ZM23.4614 22.5475H18.0521C18.3281 22.3435 18.6049 22.1396 18.8506 21.8667C19.8345 20.7791 20.2338 19.3162 20.0501 17.9212L23.4614 22.5475ZM12.2428 7.24224L17.283 14.1126C15.7774 13.5344 14.0562 13.8742 12.8576 15.2003C12.611 15.4731 12.3963 15.7785 12.2428 16.0849V7.24224ZM13.2879 15.6771C13.9941 14.8949 14.9168 14.486 15.8696 14.486C17.9599 14.486 18.8204 16.2553 18.9429 16.3233C19.8656 17.8877 19.681 19.996 18.4514 21.3564C17.4675 22.445 16.4224 22.445 16.1766 22.513V18.534C16.1766 18.3636 16.0542 18.1941 15.8696 18.1941H12.2428C12.2729 18.0917 12.2729 16.7991 13.2879 15.6771ZM15.5618 18.8739V22.5475C15.4393 22.513 14.302 22.4795 13.2879 21.3909C12.642 20.6767 12.304 19.792 12.2428 18.8739H15.5618ZM12.2428 20.9486C12.4264 21.255 12.611 21.5613 12.8576 21.8332C13.1034 22.1051 13.3793 22.3435 13.6561 22.513H12.2117V20.9486H12.2428Z" fill="black"/>
<path id="Vector_11" d="M20.7548 9.92877H18.9414V8.94264H20.5091V8.39787H18.9414V7.4462H20.6936V6.86792H18.3887V10.5071H20.7548V9.92877Z" fill="black"/>
<path id="Vector_12" d="M21.3086 7.75146H23.6756V8.22826H21.3086V7.75146Z" fill="black"/>
<path id="Vector_13" d="M21.3086 8.73853H23.6756V9.21436H21.3086V8.73853Z" fill="black"/>
<path id="Vector_14" d="M26.412 10.1672L27.5805 7.65013V10.5071H28.1332V6.86792H27.2726L26.2585 9.14657L25.2746 6.86792H24.4141V10.5071H24.9677V7.65013L26.105 10.1672H26.412Z" fill="black"/>
<path id="Vector_15" d="M31.8224 9.89517L31.4533 9.48635C31.2998 9.65677 31.1463 9.75826 31.023 9.82623C30.8997 9.89517 30.716 9.92868 30.5315 9.92868C30.2237 9.92868 29.9469 9.79272 29.7321 9.55433C29.5166 9.31689 29.3941 9.01052 29.3941 8.63617C29.3941 8.26182 29.5166 7.9564 29.7321 7.71801C29.9469 7.47961 30.2237 7.37813 30.5617 7.37813C30.7462 7.37813 30.8997 7.41164 31.0541 7.47961C31.2076 7.54759 31.33 7.65003 31.4844 7.82045L31.8224 7.37813C31.4844 6.96931 31.0541 6.76538 30.5315 6.76538C30.0089 6.76538 29.6088 6.9358 29.2708 7.31015C28.9328 7.68354 28.7793 8.12587 28.7793 8.67064C28.7793 9.21445 28.9328 9.65677 29.2708 10.0311C29.6088 10.371 30.0089 10.5749 30.5005 10.5749C31.0541 10.5414 31.4844 10.3365 31.8224 9.89517Z" fill="black"/>
<path id="Vector_16" d="M32.8362 6.90116C32.9285 6.90116 32.9897 6.93563 33.0518 7.0036C33.113 7.07158 33.144 7.13956 33.144 7.20753C33.144 7.27551 33.113 7.37795 33.0518 7.44593C32.9897 7.51391 32.8974 7.64986 32.775 7.78581L32.1912 8.43207V8.73844H33.5123V8.3976H32.6517L33.113 7.88826C33.2363 7.71784 33.3588 7.61539 33.3898 7.51391C33.451 7.41146 33.451 7.30998 33.451 7.20753C33.451 7.0036 33.3898 6.86765 33.2665 6.7317C33.144 6.62926 33.0207 6.56128 32.8362 6.56128C32.6827 6.56128 32.5594 6.59575 32.437 6.66372C32.3447 6.7317 32.2524 6.83318 32.1602 6.96914L32.4671 7.17402C32.5594 7.0036 32.6827 6.90116 32.8362 6.90116Z" fill="black"/>
<path id="Vector_17" d="M24.3522 38.3629L18.266 26.7303C18.1436 26.5264 17.8668 26.5264 17.7435 26.7303L11.6884 38.3629C11.565 38.5669 11.7194 38.8732 11.9341 38.8732H24.0754C24.3212 38.8732 24.4445 38.5669 24.3522 38.3629ZM18.3273 28.1253L23.1536 37.3768L18.3273 33.6007V28.1253ZM17.7133 28.1253V33.5672L12.887 37.3768L17.7133 28.1253ZM12.887 38.1925L18.0203 34.179L23.1536 38.227H12.887V38.1925Z" fill="black"/>
<path id="Vector_18" d="M23.83 28.9756C23.523 28.9756 23.2764 29.078 23.0307 29.282L23.2152 29.5539C23.3997 29.4179 23.5843 29.3499 23.7688 29.3499C24.0447 29.3499 24.1991 29.4859 24.1991 29.7578V29.8258H23.6765C23.4308 29.8258 23.2462 29.8937 23.1229 29.9962C22.9694 30.0977 22.9082 30.2681 22.9082 30.472C22.9082 30.676 22.9694 30.8464 23.0919 30.9823C23.2152 31.1183 23.3997 31.1527 23.5843 31.1527C23.8611 31.1527 24.0758 31.0503 24.2293 30.8464V31.1183H24.5983V29.7578C24.5983 29.4859 24.5371 29.282 24.3836 29.1795C24.2603 29.0436 24.0758 28.9756 23.83 28.9756ZM24.1991 30.3361C24.1991 30.472 24.137 30.5745 24.0447 30.6424C23.9533 30.7104 23.83 30.7784 23.7067 30.7784C23.5843 30.7784 23.492 30.7439 23.3997 30.7104C23.3385 30.6424 23.2764 30.5745 23.2764 30.472C23.2764 30.2681 23.4308 30.1657 23.7067 30.1657H24.168V30.3361H24.1991Z" fill="black"/>
<path id="Vector_19" d="M26.1966 28.9756C25.9508 28.9756 25.7352 29.1115 25.5818 29.3834V28.1934H25.1816V31.1527H25.5818V30.8464C25.7663 31.0848 25.981 31.1862 26.2268 31.1862C26.4725 31.1862 26.6881 31.0848 26.8726 30.8799C27.0572 30.6759 27.1494 30.404 27.1494 30.0977C27.1494 29.7578 27.0572 29.5194 26.8726 29.3154C26.657 29.078 26.4423 28.9756 26.1966 28.9756ZM26.5346 30.54C26.4113 30.6759 26.2888 30.7439 26.1345 30.7439C25.981 30.7439 25.8275 30.6759 25.7352 30.54C25.6119 30.404 25.5818 30.2336 25.5818 30.0297C25.5818 29.8258 25.643 29.6563 25.7352 29.5194C25.8586 29.3834 25.981 29.3154 26.1345 29.3154C26.2888 29.3154 26.4423 29.3834 26.5346 29.5194C26.657 29.6563 26.7191 29.8258 26.7191 30.0297C26.7191 30.2336 26.657 30.4385 26.5346 30.54Z" fill="black"/>
<path id="Vector_20" d="M27.4883 29.7576H29.3017V30.1319H27.4883V29.7576Z" fill="black"/>
<path id="Vector_21" d="M27.4883 29.01H29.3017V29.3834H27.4883V29.01Z" fill="black"/>
<path id="Vector_22" d="M30.2237 30.7782C30.4082 31.0166 30.6238 31.1181 30.8695 31.1181C31.1153 31.1181 31.33 31.0166 31.5145 30.8117C31.6991 30.6078 31.7913 30.3359 31.7913 30.0295C31.7913 29.6896 31.6991 29.4512 31.5145 29.2473C31.33 29.0433 31.1153 28.9409 30.8695 28.9409C30.6238 28.9409 30.4082 29.0778 30.2547 29.3497V28.1587H29.8555V31.1181H30.2547V30.7782H30.2237ZM30.3772 29.5536C30.5005 29.4177 30.6238 29.3497 30.7773 29.3497C30.9308 29.3497 31.0843 29.4177 31.1765 29.5536C31.2998 29.6896 31.3611 29.86 31.3611 30.0639C31.3611 30.2679 31.2998 30.4383 31.1765 30.5742C31.0541 30.7102 30.9308 30.7782 30.7773 30.7782C30.6238 30.7782 30.4694 30.7102 30.3772 30.5742C30.2547 30.4383 30.2237 30.2679 30.2237 30.0639C30.2237 29.86 30.2547 29.6896 30.3772 29.5536Z" fill="black"/>
<path id="Vector_23" d="M32.5277 28.3636C32.589 28.3636 32.6502 28.3971 32.7123 28.4316C32.7425 28.4651 32.7735 28.533 32.7735 28.601C32.7735 28.669 32.7425 28.737 32.7123 28.8049C32.6812 28.8729 32.589 28.9409 32.4967 29.0778L32.0664 29.5872V29.8255H33.0805V29.5536H32.4044L32.7425 29.1793C32.8347 29.0778 32.927 28.9754 32.958 28.8729C32.9882 28.8049 33.0193 28.7035 33.0193 28.6355C33.0193 28.4995 32.9882 28.3636 32.8959 28.2956C32.8037 28.1932 32.7123 28.1587 32.589 28.1587C32.4657 28.1587 32.3734 28.1932 32.282 28.2267C32.1897 28.2956 32.1276 28.3636 32.0664 28.4651L32.2509 28.601C32.3122 28.4316 32.4044 28.3636 32.5277 28.3636Z" fill="black"/>
<path id="Vector_24" d="M40.8278 13.8742C40.8588 13.9077 40.889 13.9766 40.889 14.0781V14.9963C40.889 15.3706 41.0735 15.5745 41.4116 15.5745H41.5349V15.1667C41.4426 15.1667 41.3503 15.1667 41.3193 15.1322C41.2891 15.0987 41.2581 15.0642 41.2581 14.9628V13.9422C41.2581 13.7382 41.1658 13.6358 41.0123 13.6023C41.1969 13.5678 41.2581 13.4663 41.2581 13.2624V12.3433C41.2581 12.1738 41.3503 12.1058 41.5038 12.1058H41.5349V11.697H41.4116C41.0735 11.697 40.889 11.9019 40.889 12.2753V13.16C40.889 13.2624 40.8588 13.3304 40.8278 13.3639C40.7967 13.3983 40.7355 13.4319 40.6743 13.4319H40.582V13.8397H40.6743C40.7666 13.8397 40.7967 13.8397 40.8278 13.8742Z" fill="black"/>
<path id="Vector_25" d="M41.9648 14.0234H43.9016V14.4323H41.9648V14.0234Z" fill="black"/>
<path id="Vector_26" d="M41.9648 13.0239H43.9016V13.4318H41.9648V13.0239Z" fill="black"/>
<path id="Vector_27" d="M45.0081 14.9963V14.0781C45.0081 13.9766 45.0383 13.9077 45.0693 13.8742C45.1003 13.8397 45.1616 13.8062 45.2228 13.8062H45.3151V13.3983H45.2228C45.1616 13.3983 45.1003 13.3639 45.0693 13.3304C45.0383 13.2959 45.0081 13.2279 45.0081 13.1255V12.2753C45.0081 11.9019 44.8235 11.697 44.4855 11.697H44.3622V12.1058H44.4243C44.4545 12.1058 44.5157 12.1393 44.5467 12.1738C44.5778 12.2073 44.608 12.2753 44.608 12.3777V13.2959C44.608 13.4998 44.7002 13.6023 44.8546 13.6358C44.6701 13.6703 44.608 13.7717 44.608 13.9766V14.9963C44.608 15.0642 44.5778 15.1322 44.5467 15.1667C44.5157 15.2002 44.4243 15.2002 44.332 15.2002V15.609H44.4545C44.8546 15.5745 45.0081 15.3706 45.0081 14.9963Z" fill="black"/>
</g>
<defs>
<clipPath id="clip0_415_2562">
<rect width="50" height="50" fill="white" transform="translate(0.5 0.0625)"/>
</clipPath>
</defs>
</svg>
