<svg width="51" height="50" viewBox="0 0 51 50" fill="none" xmlns="http://www.w3.org/2000/svg">
<rect width="51" height="50" fill="#1E1E1E"/>
<rect width="1440" height="1910" transform="translate(-314 -233)" fill="#FCFDFD"/>
<g filter="url(#filter0_d_0_1)">
<circle cx="21.5" cy="26" r="35" fill="white"/>
</g>
<g clip-path="url(#clip0_0_1)">
<mask id="mask0_0_1" style="mask-type:luminance" maskUnits="userSpaceOnUse" x="0" y="0" width="47" height="50">
<path d="M0.5 0H46.2341V50H0.5V0Z" fill="white"/>
</mask>
<g mask="url(#mask0_0_1)">
<path d="M39.9039 9.75629C37.8221 10.4984 35.6574 10.8775 33.5485 11.4582C31.4295 12.039 29.3291 12.7142 27.2287 13.4574C26.9729 13.5519 26.8637 12.9838 27.1194 12.8894C29.2469 12.0793 31.3744 11.3361 33.5299 10.6747C35.5938 10.0536 37.7306 9.36451 39.8403 9.09373C40.0961 9.0534 40.1503 9.6618 39.9039 9.75629ZM15.1565 31.3559C12.3617 30.7072 9.56764 30.0181 6.75499 29.5318C6.6085 29.5053 6.57208 29.8833 6.71856 29.9236C9.51262 30.7878 12.3439 31.4366 15.1658 32.1256C17.987 32.8147 20.809 33.5441 23.6402 34.1513C23.9595 34.2193 24.106 33.5038 23.7681 33.4093C20.9097 32.6522 18.0234 32.0173 15.1565 31.3559ZM9.23902 42.7566C7.14794 41.7979 5.06538 40.8242 2.9836 39.839C2.70923 39.7031 2.59995 40.3518 2.87354 40.4739C4.9282 41.4465 6.98363 42.4052 9.03829 43.3512C10.0241 43.7971 11.0108 44.2419 12.0059 44.6752C13.2112 45.1879 14.4443 45.9035 15.6766 46.187C15.8231 46.2284 15.9417 45.9173 15.7773 45.809C14.6907 45.0934 13.4669 44.7017 12.3253 44.1751C11.303 43.7015 10.2706 43.229 9.23902 42.7566ZM2.9929 37.1911C2.74566 37.0828 2.64567 37.6508 2.89214 37.7718C7.07431 39.7169 11.2658 41.6078 15.458 43.486C15.6495 43.5667 15.7223 43.1346 15.5402 43.0401C11.3572 41.0547 7.18437 39.0958 2.9929 37.1911ZM23.5666 30.4364C17.7312 28.9649 11.8874 27.5729 6.05202 26.1141C5.83268 26.06 5.84198 26.4656 6.06054 26.5336C6.06054 26.5336 17.6491 29.6263 23.4573 31.2072C23.9138 31.3282 24.0239 30.5585 23.5666 30.4364ZM39.886 6.14963C35.4752 7.13484 31.0915 8.33783 26.7172 9.62032C26.535 9.67448 26.6172 10.0801 26.7993 10.0259C31.1923 8.86442 35.5938 7.78358 40.0046 6.74306C40.2689 6.69006 40.1503 6.09548 39.886 6.14963ZM45.182 23.4132C45.1548 23.48 45.1184 23.5077 45.0727 23.5203C45.0269 23.5618 44.9812 23.5883 44.927 23.5883C44.4333 23.6828 43.9403 23.7773 43.4567 23.8718C44.2232 26.2766 44.4883 29.6805 43.3102 31.8687C43.2916 31.8963 43.2738 31.9228 43.2552 31.9493C43.2188 32.0035 43.1637 32.045 43.1002 32.0576C42.5615 32.2339 42.0229 32.4091 41.4927 32.5842C42.4065 35.057 42.3422 37.9884 41.4749 40.4739C41.447 40.5684 41.3927 40.6087 41.347 40.6353C41.3106 40.6629 41.2742 40.6894 41.2284 40.7032C32.8904 43.7556 24.5897 47.0385 16.216 49.8893C16.1246 49.9561 16.0145 49.9699 15.8959 49.9158C10.8643 47.7817 5.92414 45.2283 0.92894 42.9721C0.618145 42.8373 0.654573 42.23 0.883212 42.0814C2.10702 39.6224 2.05199 36.2865 0.691 33.9485C0.499563 33.6109 0.618145 33.1926 0.810358 33.0175C0.837484 32.976 0.873912 32.9495 0.910339 32.9357C2.14344 32.4897 3.34864 31.8687 4.58175 31.4504C4.9654 31.3282 5.12971 32.1521 4.74606 32.3146C3.78732 32.7329 2.80999 33.0302 1.83265 33.3413C4.12525 34.3403 6.41707 35.3267 8.70036 36.3534C9.96912 36.9214 11.2294 37.4745 12.4989 38.0426C13.1197 38.3261 13.7498 38.6095 14.3714 38.893C14.8093 39.0958 15.2751 39.2306 15.6952 39.5141C17.9049 38.8527 20.1153 38.1774 22.3343 37.5828C20.0789 36.8673 17.8134 36.1644 15.558 35.4753C13.8599 34.9487 12.161 34.4083 10.4628 33.8275C8.78252 33.2468 7.13864 32.4494 5.46763 31.909C5.45833 31.909 5.44903 31.8963 5.43973 31.8963C5.32115 31.8687 5.21186 31.7338 5.15684 31.5045C4.9654 30.5988 4.98322 29.5722 4.9375 28.6273L4.78249 25.4792C4.75536 25.0068 5.30332 24.8847 5.34827 25.3582C5.45833 26.3976 5.56761 27.4381 5.67767 28.4648C5.77765 29.397 5.96056 30.396 5.91483 31.3421C5.91483 31.3686 5.90553 31.3962 5.90553 31.4227C7.52229 31.9228 9.19329 32.1925 10.8186 32.6384C12.4811 33.0981 14.1521 33.5579 15.8138 34.0165C19.2201 34.9752 22.6358 35.8268 26.0506 36.6783C26.0785 36.691 26.115 36.691 26.1421 36.7048C26.8815 34.5166 26.8365 31.9631 26.0785 29.7888C26.0235 29.6943 25.9685 29.5998 25.9134 29.518C25.9049 29.5053 25.9049 29.5053 25.8956 29.4915C25.1469 29.4235 24.3796 29.1804 23.6402 29.0317C23.1101 28.9246 22.5714 28.8024 22.0421 28.6814C22.0328 28.6814 22.0235 28.6814 22.0056 28.6814C15.2023 27.0198 8.40817 25.2903 1.59548 23.6563C1.20253 23.5618 1.36684 22.7103 1.75049 22.7909C1.82335 22.8048 1.89698 22.8186 1.96983 22.8313C1.87838 20.5359 1.82335 18.2521 1.76909 15.9556C1.63191 15.9291 1.50403 15.8888 1.36684 15.8611C1.31259 15.8484 1.26686 15.8208 1.23896 15.7666C1.04752 15.6053 1.0111 15.0775 1.29399 14.9566C2.71853 14.3355 4.15237 13.6867 5.61334 13.295C5.08398 12.2279 4.84604 10.7288 4.80109 9.49933C4.72746 7.83773 5.01113 6.21647 5.57691 4.798C5.58621 4.67701 5.64124 4.5687 5.75052 4.52837C8.17023 3.67683 10.6085 2.66397 13.0654 2.04289C14.5721 1.51629 16.3803 1.0162 17.3662 0.692408C18.4071 0.353636 19.3294 0.151986 20.3982 0.110503C22.6993 0.0298431 25.0369 0.381291 27.3295 0.529935C32.2146 0.867555 36.7626 1.32617 42.0042 2.21803C42.2143 2.25836 42.2786 2.54298 42.2414 2.77228C42.26 3.02924 42.1593 3.28505 41.9492 3.27238C41.8213 3.29888 41.6942 3.33921 41.5663 3.36686C41.3563 4.83833 41.2463 6.32478 41.3013 7.82391C41.347 9.16171 41.557 10.4315 41.7578 11.7279C41.9043 11.7013 42.05 11.661 42.1965 11.6195C42.5708 11.5389 42.7529 12.3766 42.3608 12.4849C40.9998 12.849 39.6303 13.227 38.2693 13.6188C40.5526 13.7951 42.7894 14.1592 45.0455 14.8344C45.0998 14.8482 45.137 14.8759 45.1734 14.9162C45.3013 14.9831 45.3742 15.1732 45.3835 15.3622C46.3329 17.9018 46.2414 20.9542 45.182 23.4132ZM41.0912 3.48785C35.7767 4.7715 30.4614 6.05515 25.1562 7.44596C25.1562 7.45978 25.1469 7.48629 25.1469 7.50011C24.6811 9.06722 24.5261 10.783 24.6811 12.4849C24.754 13.2408 24.8912 13.9702 25.0648 14.6869C25.2012 15.2262 25.4027 15.7125 25.567 16.2402C30.818 14.6454 36.0503 13.0657 41.347 11.8362C40.6619 9.20204 40.7169 6.21647 41.0912 3.48785ZM7.3665 4.798C13.1112 5.43291 18.8551 6.05515 24.599 6.82487C24.6168 6.81105 24.6354 6.79722 24.6625 6.79722C29.5849 5.24394 34.5614 4.0421 39.5388 2.89327C39.6667 2.86677 39.7853 2.85294 39.9132 2.82644C35.8589 2.24569 31.8038 1.79975 27.7309 1.50246C25.3934 1.32617 23.0558 1.08303 20.709 0.921713C20.3618 0.894058 20.0238 0.894058 19.6952 0.921713C18.2428 1.36765 16.7911 1.82626 15.3387 2.25836C14.2978 2.65014 13.1561 3.06957 12.3989 3.29888C10.7186 3.85313 9.03829 4.29906 7.3665 4.798ZM24.5804 7.81123C22.1971 7.50011 19.8138 7.189 17.4305 6.8652C17.0833 9.74246 17.1833 12.4976 17.8963 15.2262C20.1153 15.5638 22.3343 15.8749 24.5625 16.1319C24.1603 14.9969 24.0146 13.5381 23.9781 12.3904C23.9324 10.8095 24.1425 9.24237 24.5804 7.81123ZM16.7547 6.78454C15.1108 6.56791 13.4669 6.33861 11.823 6.10815C11.3394 8.86442 11.5037 11.7555 12.3346 14.3355C13.9878 14.6189 15.6402 14.9024 17.2933 15.1594C16.526 12.5517 16.2703 9.53966 16.7547 6.78454ZM6.32561 13.2408C8.06095 13.5646 9.79628 13.8757 11.5401 14.1868C10.7635 11.5792 10.5992 8.78376 11.0929 6.00099C9.3576 5.75786 7.62227 5.5009 5.88771 5.24394C5.85128 5.25777 5.80555 5.25777 5.77765 5.24394C5.36687 6.52758 5.19326 7.90572 5.29402 9.32303C5.4033 10.8498 5.89623 11.9445 6.32561 13.2408ZM22.1607 20.4138C15.5309 18.9953 8.8825 17.6587 2.27133 16.0639C2.33488 18.3466 2.40851 20.6304 2.43564 22.9131C8.96465 24.2636 15.4758 25.6682 21.987 27.195C21.9963 27.1408 22.0056 27.1005 22.0235 27.0463C22.6815 24.9526 22.7543 22.5755 22.1607 20.4138ZM22.6172 19.2119C29.3291 17.5769 36.0774 16.375 42.8351 15.2538C40.799 14.7676 38.7537 14.2813 36.6897 14.0923C36.6804 14.0923 36.6804 14.0923 36.6711 14.0923C32.9641 15.1732 29.2655 16.307 25.5763 17.442C25.5577 17.442 25.5391 17.442 25.5213 17.4559C25.4755 17.4824 25.4112 17.4962 25.3477 17.4824C18.9457 16.6988 12.5903 15.4025 6.23416 14.052C6.19773 14.0647 6.1613 14.052 6.11557 14.0382C6.09775 14.052 6.08845 14.052 6.06984 14.0647C4.9468 14.4968 3.82375 14.8886 2.7007 15.308C9.28475 16.496 15.8595 17.7255 22.4257 19.1036C22.5079 19.1175 22.5621 19.1578 22.6172 19.2119ZM37.4477 23.9663C38.3793 23.7773 39.3017 23.6022 40.2325 23.4259C40.6161 21.2238 40.5433 18.9412 39.8674 16.9154C38.9358 17.0768 38.0042 17.2392 37.0734 17.4017C37.7213 19.4148 37.9678 21.8461 37.4477 23.9663ZM32.7626 24.9388C34.1049 24.6553 35.4473 24.3719 36.7897 24.1011C37.1276 21.8726 37.2284 19.7385 36.589 17.5769C36.5797 17.5504 36.5712 17.51 36.5712 17.4824C35.2373 17.7117 33.9042 17.9548 32.5711 18.1979C33.1648 20.3055 33.3291 22.7909 32.7626 24.9388ZM28.7904 25.8307C29.9042 25.5737 31.028 25.3168 32.151 25.0736C32.6075 22.7506 32.7261 20.5486 32.1053 18.2798C30.9272 18.4826 29.7492 18.698 28.5804 18.9008C29.2927 21.0752 29.4019 23.5883 28.7904 25.8307ZM28.2518 25.9655C28.6354 23.6425 28.7447 21.2653 28.0596 19.0091C28.0596 19.0091 28.0596 19.0091 28.0596 18.9953C26.2971 19.3064 24.5261 19.6037 22.7543 19.8872C23.4759 22.2782 23.5123 24.9388 22.7908 27.3436C24.6083 26.8574 26.425 26.3976 28.2518 25.9655ZM31.9774 26.249C29.4663 26.7894 26.9551 27.3298 24.4346 27.8564C24.9733 27.9244 25.5213 27.9785 26.0328 28.141C28.0138 27.4923 29.9956 26.8574 31.9774 26.249ZM15.558 40.8784C15.5216 40.8242 15.4944 40.7712 15.4758 40.7032C15.0193 40.5811 14.59 40.3115 14.1521 40.1087C13.5312 39.8114 12.9011 39.5279 12.2795 39.2444C11.0193 38.6637 9.75908 38.0829 8.49032 37.5022C6.25276 36.4755 4.02449 35.4212 1.80552 34.3403C2.76426 36.8396 2.65498 39.8655 1.449 42.2024C6.32561 44.1751 11.1472 46.3898 16.006 48.457C16.764 45.9577 16.9918 42.9721 15.558 40.8784ZM25.1833 42.1217C25.0741 40.7171 24.7726 39.4196 24.2882 38.2316C21.6948 39.1638 19.0558 39.8114 16.4439 40.5684C17.7956 42.8373 17.5305 46.1063 16.7725 48.7681C19.5309 47.6734 22.2885 46.5926 25.0462 45.5256C25.0555 45.1073 25.1469 44.6878 25.1833 44.2419C25.2384 43.5402 25.2291 42.8234 25.1833 42.1217ZM34.1414 35.2598C33.2927 35.5975 32.4432 35.9351 31.5938 36.2865C30.7443 36.6368 29.8956 36.9883 29.0462 37.3397C28.2153 37.6912 27.3752 38.0426 26.5436 38.4206C26.2607 38.5415 25.9134 38.636 25.6305 38.5415C25.4027 38.4609 25.2469 38.4067 24.9547 38.2984C25.3841 39.3654 25.722 40.6629 25.8499 41.8924C25.9413 42.7566 26.0328 44.1751 25.8313 45.2283C28.8269 44.0668 31.8224 42.9191 34.8172 41.7841C35.0637 39.5141 34.8994 37.2994 34.1414 35.2598ZM41.292 36.3672C41.2742 35.2725 41.0184 33.7054 40.4061 32.9633C38.4886 33.6247 36.5712 34.3138 34.6622 35.057C35.4109 37.0159 35.7395 39.3389 35.4566 41.5409C37.2555 40.8657 39.0544 40.1893 40.8626 39.5279C41.1734 38.515 41.3106 37.4607 41.292 36.3672ZM43.2374 27.9106C43.2374 26.6281 43.0366 25.3709 42.6437 24.2232C42.6251 24.1829 42.6165 24.1288 42.6072 24.0884C39.9953 24.9388 37.3291 25.5334 34.6986 26.3169C31.996 27.127 29.302 27.9785 26.6079 28.8566C26.6079 28.8831 26.6079 28.8969 26.6079 28.9246C27.4116 30.8155 27.631 33.0705 27.2837 35.178C27.2194 35.8947 27.0915 36.5827 26.9187 37.2717C32.1968 34.9625 37.5206 32.9495 42.8715 31.0448C43.0366 30.0043 43.2374 29.0052 43.2374 27.9106ZM44.7347 16.0777C43.3009 16.307 41.8585 16.5502 40.4247 16.8071C41.1184 18.955 41.1827 21.0625 40.8169 23.3049C42.1779 23.0479 43.5474 22.7909 44.9084 22.5478H44.9177C45.4834 20.5889 45.5656 17.9018 44.7347 16.0777Z" fill="black"/>
</g>
</g>
<defs>
<filter id="filter0_d_0_1" x="-15.5" y="-9" width="78" height="78" filterUnits="userSpaceOnUse" color-interpolation-filters="sRGB">
<feFlood flood-opacity="0" result="BackgroundImageFix"/>
<feColorMatrix in="SourceAlpha" type="matrix" values="0 0 0 0 0 0 0 0 0 0 0 0 0 0 0 0 0 0 127 0" result="hardAlpha"/>
<feOffset dx="2" dy="4"/>
<feGaussianBlur stdDeviation="2"/>
<feComposite in2="hardAlpha" operator="out"/>
<feColorMatrix type="matrix" values="0 0 0 0 0 0 0 0 0 0 0 0 0 0 0 0 0 0 0.25 0"/>
<feBlend mode="normal" in2="BackgroundImageFix" result="effect1_dropShadow_0_1"/>
<feBlend mode="normal" in="SourceGraphic" in2="effect1_dropShadow_0_1" result="shape"/>
</filter>
<clipPath id="clip0_0_1">
<rect width="50" height="50" fill="white" transform="translate(0.5)"/>
</clipPath>
</defs>
</svg>
