<svg width="51" height="51" viewBox="0 0 51 51" fill="none" xmlns="http://www.w3.org/2000/svg">
<g id="qu&#195;&#173;mica" clip-path="url(#clip0_415_2711)">
<g id="Clip path group">
<mask id="mask0_415_2711" style="mask-type:luminance" maskUnits="userSpaceOnUse" x="22" y="15" width="10" height="36">
<g id="a553de3551">
<path id="Vector" d="M22.8262 15.137H31.5124V50.3751H22.8262V15.137Z" fill="white"/>
</g>
</mask>
<g mask="url(#mask0_415_2711)">
<g id="Group">
<path id="Vector_2" d="M27.0982 50.3826C24.7468 50.3826 22.834 48.2193 22.834 45.5612V15.6011C22.834 15.3593 23.013 15.1631 23.2335 15.1631H30.9629C31.1834 15.1631 31.3624 15.3593 31.3624 15.6011V45.5612C31.3624 48.2193 29.4496 50.3826 27.0982 50.3826ZM23.633 16.0392V45.5612C23.633 47.7366 25.1879 49.5065 27.0982 49.5065C29.0093 49.5065 30.5634 47.7366 30.5634 45.5612V16.0392H23.633Z" fill="black"/>
</g>
</g>
</g>
<path id="Vector_3" d="M26.3017 30.496H23.382C23.1614 30.496 22.9824 30.2997 22.9824 30.0579C22.9824 29.8161 23.1614 29.6199 23.382 29.6199H26.3017C26.5222 29.6199 26.7012 29.8161 26.7012 30.0579C26.7012 30.2997 26.5222 30.496 26.3017 30.496Z" fill="black"/>
<path id="Vector_4" d="M25.0768 33.0304H23.382C23.1614 33.0304 22.9824 32.8342 22.9824 32.5924C22.9824 32.3505 23.1614 32.1543 23.382 32.1543H25.0768C25.2973 32.1543 25.4763 32.3505 25.4763 32.5924C25.4763 32.8342 25.2973 33.0304 25.0768 33.0304Z" fill="black"/>
<path id="Vector_5" d="M26.3017 35.5741H23.382C23.1614 35.5741 22.9824 35.3778 22.9824 35.136C22.9824 34.8933 23.1614 34.697 23.382 34.697H26.3017C26.5222 34.697 26.7012 34.8933 26.7012 35.136C26.7012 35.3778 26.5222 35.5741 26.3017 35.5741Z" fill="black"/>
<path id="Vector_6" d="M25.0768 38.099H23.382C23.1614 38.099 22.9824 37.9028 22.9824 37.661C22.9824 37.4191 23.1614 37.2229 23.382 37.2229H25.0768C25.2973 37.2229 25.4763 37.4191 25.4763 37.661C25.4763 37.9028 25.2973 38.099 25.0768 38.099Z" fill="black"/>
<path id="Vector_7" d="M26.3017 40.6429H23.382C23.1614 40.6429 22.9824 40.4467 22.9824 40.2039C22.9824 39.9621 23.1614 39.7659 23.382 39.7659H26.3017C26.5222 39.7659 26.7012 39.9621 26.7012 40.2039C26.7012 40.4467 26.5222 40.6429 26.3017 40.6429Z" fill="black"/>
<path id="Vector_8" d="M25.0768 43.1764H23.382C23.1614 43.1764 22.9824 42.9802 22.9824 42.7384C22.9824 42.4965 23.1614 42.3003 23.382 42.3003H25.0768C25.2973 42.3003 25.4763 42.4965 25.4763 42.7384C25.4763 42.9802 25.2973 43.1764 25.0768 43.1764Z" fill="black"/>
<g id="Clip path group_2">
<mask id="mask1_415_2711" style="mask-type:luminance" maskUnits="userSpaceOnUse" x="0" y="21" width="20" height="30">
<g id="330c02face">
<path id="Vector_9" d="M0.785156 21.8035H19.7862V50.3749H0.785156V21.8035Z" fill="white"/>
</g>
</mask>
<g mask="url(#mask1_415_2711)">
<g id="Group_2">
<path id="Vector_10" d="M10.2175 50.3824C5.0185 50.3824 0.789062 45.7433 0.789062 40.042C0.789062 35.5908 3.44413 31.5999 7.28082 30.2215V22.4732C7.28082 22.2314 7.4598 22.0352 7.68035 22.0352H12.7581C12.9786 22.0352 13.1576 22.2314 13.1576 22.4732V30.2215C16.9926 31.598 19.6451 35.5889 19.6451 40.042C19.6451 45.7433 15.4157 50.3824 10.2175 50.3824ZM8.07988 22.9113V30.5452C8.07988 30.7396 7.96282 30.9116 7.79232 30.9656C4.1397 32.1356 1.58897 35.8679 1.58897 40.042C1.58897 45.2606 5.4596 49.5054 10.2175 49.5054C14.9754 49.5054 18.846 45.2606 18.846 40.042C18.846 35.8651 16.2962 32.1337 12.6461 30.9656C12.4756 30.9116 12.3585 30.7396 12.3585 30.5452V22.9113H8.07988Z" fill="black"/>
</g>
</g>
</g>
<g id="Clip path group_3">
<mask id="mask2_415_2711" style="mask-type:luminance" maskUnits="userSpaceOnUse" x="31" y="22" width="20" height="29">
<g id="acc905a250">
<path id="Vector_11" d="M31.7305 22.0417H50.8401V50.3751H31.7305V22.0417Z" fill="white"/>
</g>
</mask>
<g mask="url(#mask2_415_2711)">
<g id="Group_3">
<path id="Vector_12" d="M47.2272 50.3826H35.3702C34.2446 50.3826 33.0282 49.7055 32.3436 48.6983C31.8126 47.9189 31.6481 47.0195 31.8796 46.1666L35.6739 32.1878C36.3296 29.7827 37.3229 28.4927 38.7039 28.2593V22.5459C38.7039 22.3032 38.8829 22.1069 39.1034 22.1069H43.494C43.7146 22.1069 43.8936 22.3032 43.8936 22.5459V28.2593C45.2762 28.4918 46.2687 29.7827 46.9193 32.1878L50.7136 46.1666C50.946 47.0186 50.7823 47.917 50.253 48.6964C49.5685 49.7046 48.3529 50.3826 47.2272 50.3826ZM39.503 22.984V28.6601C39.503 28.8982 39.3299 29.0926 39.1128 29.0982C37.9184 29.1307 37.0439 30.2226 36.4399 32.438L32.6456 46.4168C32.4437 47.1609 32.7177 47.784 32.9841 48.1746C33.5253 48.9708 34.4846 49.5065 35.3702 49.5065H47.2272C48.0984 49.5065 49.0799 48.9578 49.6126 48.1728C49.8772 47.7822 50.1512 47.1609 49.9485 46.4178L46.1533 32.438C45.5545 30.2226 44.6816 29.1307 43.4839 29.0982C43.2676 29.0926 43.0945 28.8982 43.0945 28.6601V22.984H39.503Z" fill="black"/>
</g>
</g>
</g>
<path id="Vector_13" d="M15.8088 25.8428C15.5882 25.8428 15.4093 25.6465 15.4093 25.4047V14.2933C15.4093 12.8443 14.3345 11.6649 13.0138 11.6649C11.6922 11.6649 10.6174 12.8443 10.6174 14.2933V24.3398C10.6174 24.5825 10.4384 24.7788 10.2179 24.7788C9.99734 24.7788 9.81836 24.5825 9.81836 24.3398V14.2933C9.81836 12.3606 11.2519 10.7888 13.0138 10.7888C14.7756 10.7888 16.2083 12.3606 16.2083 14.2933V25.4047C16.2083 25.6465 16.0302 25.8428 15.8088 25.8428Z" fill="black"/>
<path id="Vector_14" d="M18.609 31.8398C16.8454 31.8398 15.4102 30.268 15.4102 28.3354V18.2889C15.4102 18.0461 15.5891 17.8499 15.8097 17.8499C16.0311 17.8499 16.2092 18.0461 16.2092 18.2889V28.3354C16.2092 29.7844 17.2865 30.9637 18.609 30.9637C19.9331 30.9637 21.0095 29.7844 21.0095 28.3354V12.5801C21.0095 12.3383 21.1885 12.1421 21.4091 12.1421C21.6296 12.1421 21.8086 12.3383 21.8086 12.5801V28.3354C21.8086 30.268 20.3733 31.8398 18.609 31.8398Z" fill="black"/>
<path id="Vector_15" d="M21.4073 25.3742C21.1868 25.3742 21.0078 25.178 21.0078 24.9352V9.1893C21.0078 7.25199 22.4414 5.67554 24.2032 5.67554C25.9651 5.67554 27.3986 7.25199 27.3986 9.1893V19.2265C27.3986 19.4683 27.2196 19.6646 26.9991 19.6646C26.7785 19.6646 26.5996 19.4683 26.5996 19.2265V9.1893C26.5996 7.73469 25.524 6.55258 24.2032 6.55258C22.8816 6.55258 21.8069 7.73469 21.8069 9.1893V24.9352C21.8069 25.178 21.6279 25.3742 21.4073 25.3742Z" fill="black"/>
<path id="Vector_16" d="M32.5943 20.0793C32.3737 20.0793 32.1948 19.8831 32.1948 19.6413V3.88606C32.1948 2.43702 31.1175 1.25771 29.7942 1.25771C28.4734 1.25771 27.3987 2.43702 27.3987 3.88606V13.9233C27.3987 14.166 27.2197 14.3622 26.9991 14.3622C26.7786 14.3622 26.5996 14.166 26.5996 13.9233V3.88606C26.5996 1.95339 28.0323 0.381592 29.7942 0.381592C31.5586 0.381592 32.9938 1.95432 32.9938 3.88606V19.6413C32.9938 19.8831 32.8148 20.0793 32.5943 20.0793Z" fill="black"/>
<path id="Vector_17" d="M34.3134 30.5416C33.1454 30.5416 32.1953 29.1353 32.1953 27.4063V13.554C32.1953 13.3122 32.3743 13.116 32.5948 13.116C32.8154 13.116 32.9944 13.3122 32.9944 13.554V27.4063C32.9944 28.6303 33.5983 29.6645 34.3134 29.6645C35.0302 29.6645 35.6359 28.6303 35.6359 27.4063V18.5773C35.6359 18.3355 35.8149 18.1392 36.0354 18.1392C36.2568 18.1392 36.4349 18.3355 36.4349 18.5773V27.4063C36.4349 29.1353 35.4832 30.5416 34.3134 30.5416Z" fill="black"/>
<path id="Vector_18" d="M41.248 27.8442C41.0274 27.8442 40.8484 27.648 40.8484 27.4062V15.1861C40.8484 13.7324 39.8585 12.5494 38.6421 12.5494C37.4257 12.5494 36.4358 13.7324 36.4358 15.1861V25.2243C36.4358 25.4661 36.2568 25.6623 36.0363 25.6623C35.8149 25.6623 35.6367 25.4661 35.6367 25.2243V15.1861C35.6367 13.2488 36.9846 11.6724 38.6421 11.6724C40.2996 11.6724 41.6484 13.2488 41.6484 15.1861V27.4062C41.6475 27.648 41.4685 27.8442 41.248 27.8442Z" fill="black"/>
<path id="Vector_19" d="M43.3285 20.9722H39.2628C39.0423 20.9722 38.8633 20.7769 38.8633 20.5341V18.4424C38.8633 18.1997 39.0423 18.0034 39.2628 18.0034H43.3285C43.5491 18.0034 43.7281 18.1997 43.7281 18.4424V20.5341C43.7289 20.7769 43.5499 20.9722 43.3285 20.9722ZM39.6623 20.0961H42.929V18.8805H39.6623V20.0961Z" fill="black"/>
<path id="Vector_20" d="M12.2566 20.9722H8.18664C7.96609 20.9722 7.78711 20.7769 7.78711 20.5341V18.4424C7.78711 18.1997 7.96609 18.0034 8.18664 18.0034H12.2566C12.4772 18.0034 12.6561 18.1997 12.6561 18.4424V20.5341C12.6561 20.7769 12.4772 20.9722 12.2566 20.9722ZM8.58617 20.0961H11.8571V18.8805H8.58617V20.0961Z" fill="black"/>
<path id="Vector_21" d="M1.69036 43.7446C1.6242 43.7446 1.55803 43.7269 1.49696 43.6897C1.30355 43.5716 1.234 43.3047 1.34172 43.0936C1.42146 42.9354 3.32496 39.2273 5.65514 38.9232C6.54836 38.8078 7.37203 39.1892 8.10238 40.0606C10.7651 43.2433 19.0136 39.6709 19.0967 39.6347C19.3011 39.5454 19.5336 39.6542 19.6159 39.8783C19.6981 40.1034 19.598 40.3583 19.3936 40.4485C19.1518 40.5545 15.2422 42.2472 11.7821 42.2472C10.0916 42.2481 8.50955 41.8436 7.51368 40.6531C6.95977 39.9927 6.38295 39.7109 5.75015 39.7937C4.14947 40.003 2.52929 42.5541 2.03985 43.5195C1.96689 43.6637 1.83032 43.7446 1.69036 43.7446Z" fill="black"/>
<path id="Vector_22" d="M44.2881 44.7566C42.131 44.7566 40.7763 44.14 40.2538 42.9151C40.0875 42.5282 39.8169 42.278 39.4267 42.1506C37.7455 41.6037 34.4177 43.4917 33.2777 44.2655C33.0902 44.392 32.8442 44.3288 32.728 44.1233C32.6118 43.9177 32.6694 43.6471 32.8569 43.5196C33.0367 43.3978 37.2882 40.5407 39.654 41.3107C40.2665 41.5098 40.7118 41.9246 40.9765 42.5431C41.9359 44.791 47.4241 43.6685 49.4583 43.0472C49.6703 42.9821 49.8909 43.1179 49.9503 43.3513C50.0096 43.5838 49.8858 43.8256 49.6729 43.8907C49.594 43.9149 47.7041 44.4878 45.6173 44.6887C45.1448 44.7343 44.7021 44.7566 44.2881 44.7566Z" fill="black"/>
<path id="Vector_23" d="M44.4311 36.9896C43.7669 36.9896 43.2266 36.3962 43.2266 35.668C43.2266 34.9388 43.7669 34.3455 44.4311 34.3455C45.0936 34.3455 45.6322 34.9388 45.6322 35.668C45.6322 36.3962 45.0936 36.9896 44.4311 36.9896ZM44.4311 35.2216C44.2072 35.2216 44.0248 35.4215 44.0248 35.668C44.0248 35.9135 44.2072 36.1135 44.4311 36.1135C44.6525 36.1135 44.8332 35.9135 44.8332 35.668C44.8332 35.4215 44.6525 35.2216 44.4311 35.2216Z" fill="black"/>
<path id="Vector_24" d="M38.4048 38.6487C37.9077 38.6487 37.5039 38.206 37.5039 37.661C37.5039 37.116 37.9077 36.6724 38.4048 36.6724C38.9018 36.6724 39.3056 37.116 39.3056 37.661C39.3056 38.206 38.9018 38.6487 38.4048 38.6487ZM38.4048 37.5485C38.3454 37.5485 38.303 37.5959 38.303 37.661C38.303 37.7252 38.3454 37.7726 38.4048 37.7726C38.4641 37.7726 38.5066 37.7252 38.5066 37.661C38.5066 37.5959 38.4641 37.5485 38.4048 37.5485Z" fill="black"/>
<path id="Vector_25" d="M44.3637 41.3731C43.8675 41.3731 43.4629 40.9294 43.4629 40.3844C43.4629 39.8394 43.8675 39.3958 44.3637 39.3958C44.8608 39.3958 45.2646 39.8394 45.2646 40.3844C45.2646 40.9294 44.8608 41.3731 44.3637 41.3731ZM44.3637 40.2728C44.3052 40.2728 44.262 40.3193 44.262 40.3844C44.262 40.4495 44.3052 40.496 44.3637 40.496C44.4231 40.496 44.4655 40.4495 44.4655 40.3844C44.4655 40.3193 44.4231 40.2728 44.3637 40.2728Z" fill="black"/>
<path id="Vector_26" d="M40.929 34.1668C40.432 34.1668 40.0273 33.7232 40.0273 33.1782C40.0273 32.6331 40.432 32.1904 40.929 32.1904C41.4278 32.1904 41.8341 32.6331 41.8341 33.1782C41.8341 33.7232 41.4278 34.1668 40.929 34.1668ZM40.929 33.0665C40.8714 33.0665 40.8264 33.1158 40.8264 33.1782C40.8264 33.2405 40.8722 33.2907 40.929 33.2907C40.9884 33.2907 41.0351 33.2414 41.0351 33.1782C41.0351 33.1158 40.9884 33.0665 40.929 33.0665Z" fill="black"/>
<path id="Vector_27" d="M6.17997 37.3319C5.6795 37.3319 5.27148 36.8892 5.27148 36.3442C5.27148 35.7945 5.67865 35.3472 6.17997 35.3472C6.67706 35.3472 7.08168 35.7945 7.08168 36.3442C7.08168 36.8892 6.67706 37.3319 6.17997 37.3319ZM6.17997 36.2233C6.12144 36.2233 6.07055 36.28 6.07055 36.3442C6.07055 36.3963 6.11805 36.4558 6.17997 36.4558C6.23257 36.4558 6.28177 36.4019 6.28177 36.3442C6.28177 36.28 6.23426 36.2233 6.17997 36.2233Z" fill="black"/>
<path id="Vector_28" d="M9.7003 34.0767C9.13112 34.0767 8.66797 33.5688 8.66797 32.9438C8.66797 32.3086 9.12179 31.811 9.7003 31.811C10.2695 31.811 10.7326 32.3198 10.7326 32.9438C10.7326 33.5688 10.2695 34.0767 9.7003 34.0767ZM9.7003 32.6881C9.56713 32.6881 9.46703 32.7978 9.46703 32.9438C9.46703 33.0852 9.57222 33.2005 9.7003 33.2005C9.825 33.2005 9.93358 33.0806 9.93358 32.9438C9.93358 32.8025 9.82924 32.6881 9.7003 32.6881Z" fill="black"/>
<path id="Vector_29" d="M11.8984 39.3342C11.3284 39.3342 10.8652 38.8264 10.8652 38.2023C10.8652 37.5773 11.3284 37.0686 11.8984 37.0686C12.4676 37.0686 12.9316 37.5773 12.9316 38.2023C12.9316 38.8264 12.4676 39.3342 11.8984 39.3342ZM11.8984 37.9456C11.7669 37.9456 11.6643 38.0582 11.6643 38.2023C11.6643 38.3409 11.772 38.4581 11.8984 38.4581C12.0248 38.4581 12.1325 38.3409 12.1325 38.2023C12.1325 38.0582 12.0291 37.9456 11.8984 37.9456Z" fill="black"/>
<path id="Vector_30" d="M15.7723 39.7127C15.2735 39.7127 14.8672 39.27 14.8672 38.725C14.8672 38.18 15.2735 37.7363 15.7723 37.7363C16.2719 37.7363 16.6774 38.18 16.6774 38.725C16.6782 39.27 16.2719 39.7127 15.7723 39.7127ZM15.7723 38.6124C15.7146 38.6124 15.6663 38.6645 15.6663 38.725C15.6663 38.7854 15.7146 38.8366 15.7723 38.8366C15.8334 38.8366 15.8783 38.7892 15.8783 38.725C15.8792 38.6608 15.8334 38.6124 15.7723 38.6124Z" fill="black"/>
</g>
<defs>
<clipPath id="clip0_415_2711">
<rect width="50" height="50" fill="white" transform="translate(0.785156 0.375)"/>
</clipPath>
</defs>
</svg>
