<svg xmlns="http://www.w3.org/2000/svg" xmlns:xlink="http://www.w3.org/1999/xlink" width="1920" zoomAndPan="magnify" viewBox="0 0 1440 809.999993" height="1080" preserveAspectRatio="xMidYMid meet" version="1.0"><defs><clipPath id="a553de3551"><path d="M 706 362 L 746 362 L 746 510 L 706 510 Z M 706 362 " clip-rule="nonzero"/></clipPath><clipPath id="330c02face"><path d="M 604.5 390 L 692 390 L 692 510 L 604.5 510 Z M 604.5 390 " clip-rule="nonzero"/></clipPath><clipPath id="acc905a250"><path d="M 747 391 L 835 391 L 835 510 L 747 510 Z M 747 391 " clip-rule="nonzero"/></clipPath></defs><g clip-path="url(#a553de3551)"><path fill="#000000" d="M 725.671875 510.03125 C 714.84375 510.03125 706.035156 500.945312 706.035156 489.78125 L 706.035156 363.949219 C 706.035156 362.933594 706.859375 362.109375 707.875 362.109375 L 743.46875 362.109375 C 744.484375 362.109375 745.308594 362.933594 745.308594 363.949219 L 745.308594 489.78125 C 745.308594 500.945312 736.5 510.03125 725.671875 510.03125 Z M 709.714844 365.789062 L 709.714844 489.78125 C 709.714844 498.917969 716.875 506.351562 725.671875 506.351562 C 734.472656 506.351562 741.628906 498.917969 741.628906 489.78125 L 741.628906 365.789062 Z M 709.714844 365.789062 " fill-opacity="1" fill-rule="nonzero"/></g><path fill="#000000" d="M 722 426.507812 L 708.554688 426.507812 C 707.539062 426.507812 706.714844 425.683594 706.714844 424.667969 C 706.714844 423.652344 707.539062 422.828125 708.554688 422.828125 L 722 422.828125 C 723.015625 422.828125 723.839844 423.652344 723.839844 424.667969 C 723.839844 425.683594 723.015625 426.507812 722 426.507812 Z M 722 426.507812 " fill-opacity="1" fill-rule="nonzero"/><path fill="#000000" d="M 716.359375 437.152344 L 708.554688 437.152344 C 707.539062 437.152344 706.714844 436.328125 706.714844 435.3125 C 706.714844 434.296875 707.539062 433.472656 708.554688 433.472656 L 716.359375 433.472656 C 717.375 433.472656 718.199219 434.296875 718.199219 435.3125 C 718.199219 436.328125 717.375 437.152344 716.359375 437.152344 Z M 716.359375 437.152344 " fill-opacity="1" fill-rule="nonzero"/><path fill="#000000" d="M 722 447.835938 L 708.554688 447.835938 C 707.539062 447.835938 706.714844 447.011719 706.714844 445.996094 C 706.714844 444.976562 707.539062 444.152344 708.554688 444.152344 L 722 444.152344 C 723.015625 444.152344 723.839844 444.976562 723.839844 445.996094 C 723.839844 447.011719 723.015625 447.835938 722 447.835938 Z M 722 447.835938 " fill-opacity="1" fill-rule="nonzero"/><path fill="#000000" d="M 716.359375 458.441406 L 708.554688 458.441406 C 707.539062 458.441406 706.714844 457.617188 706.714844 456.601562 C 706.714844 455.585938 707.539062 454.761719 708.554688 454.761719 L 716.359375 454.761719 C 717.375 454.761719 718.199219 455.585938 718.199219 456.601562 C 718.199219 457.617188 717.375 458.441406 716.359375 458.441406 Z M 716.359375 458.441406 " fill-opacity="1" fill-rule="nonzero"/><path fill="#000000" d="M 722 469.125 L 708.554688 469.125 C 707.539062 469.125 706.714844 468.300781 706.714844 467.28125 C 706.714844 466.265625 707.539062 465.441406 708.554688 465.441406 L 722 465.441406 C 723.015625 465.441406 723.839844 466.265625 723.839844 467.28125 C 723.839844 468.300781 723.015625 469.125 722 469.125 Z M 722 469.125 " fill-opacity="1" fill-rule="nonzero"/><path fill="#000000" d="M 716.359375 479.765625 L 708.554688 479.765625 C 707.539062 479.765625 706.714844 478.941406 706.714844 477.925781 C 706.714844 476.910156 707.539062 476.085938 708.554688 476.085938 L 716.359375 476.085938 C 717.375 476.085938 718.199219 476.910156 718.199219 477.925781 C 718.199219 478.941406 717.375 479.765625 716.359375 479.765625 Z M 716.359375 479.765625 " fill-opacity="1" fill-rule="nonzero"/><g clip-path="url(#330c02face)"><path fill="#000000" d="M 647.9375 510.03125 C 623.996094 510.03125 604.519531 490.546875 604.519531 466.601562 C 604.519531 447.90625 616.746094 431.144531 634.414062 425.355469 L 634.414062 392.8125 C 634.414062 391.796875 635.238281 390.972656 636.253906 390.972656 L 659.636719 390.972656 C 660.652344 390.972656 661.476562 391.796875 661.476562 392.8125 L 661.476562 425.355469 C 679.136719 431.136719 691.351562 447.898438 691.351562 466.601562 C 691.351562 490.546875 671.875 510.03125 647.9375 510.03125 Z M 638.09375 394.652344 L 638.09375 426.714844 C 638.09375 427.53125 637.554688 428.253906 636.769531 428.480469 C 619.949219 433.394531 608.203125 449.070312 608.203125 466.601562 C 608.203125 488.519531 626.027344 506.347656 647.9375 506.347656 C 669.847656 506.347656 687.671875 488.519531 687.671875 466.601562 C 687.671875 449.058594 675.929688 433.386719 659.121094 428.480469 C 658.335938 428.253906 657.796875 427.53125 657.796875 426.714844 L 657.796875 394.652344 Z M 638.09375 394.652344 " fill-opacity="1" fill-rule="nonzero"/></g><g clip-path="url(#acc905a250)"><path fill="#000000" d="M 818.363281 510.03125 L 763.761719 510.03125 C 758.578125 510.03125 752.976562 507.1875 749.824219 502.957031 C 747.378906 499.683594 746.621094 495.90625 747.6875 492.324219 L 765.160156 433.613281 C 768.179688 423.511719 772.753906 418.09375 779.113281 417.113281 L 779.113281 393.117188 C 779.113281 392.097656 779.9375 391.273438 780.953125 391.273438 L 801.171875 391.273438 C 802.1875 391.273438 803.011719 392.097656 803.011719 393.117188 L 803.011719 417.113281 C 809.378906 418.089844 813.949219 423.511719 816.945312 433.613281 L 834.417969 492.324219 C 835.488281 495.902344 834.734375 499.675781 832.296875 502.949219 C 829.144531 507.183594 823.546875 510.03125 818.363281 510.03125 Z M 782.792969 394.957031 L 782.792969 418.796875 C 782.792969 419.796875 781.996094 420.613281 780.996094 420.636719 C 775.496094 420.773438 771.46875 425.359375 768.6875 434.664062 L 751.214844 493.375 C 750.285156 496.5 751.546875 499.117188 752.773438 500.757812 C 755.265625 504.101562 759.683594 506.351562 763.761719 506.351562 L 818.363281 506.351562 C 822.375 506.351562 826.894531 504.046875 829.347656 500.75 C 830.566406 499.109375 831.828125 496.5 830.894531 493.378906 L 813.417969 434.664062 C 810.660156 425.359375 806.640625 420.773438 801.125 420.636719 C 800.128906 420.613281 799.332031 419.796875 799.332031 418.796875 L 799.332031 394.957031 Z M 782.792969 394.957031 " fill-opacity="1" fill-rule="nonzero"/></g><path fill="#000000" d="M 673.683594 406.964844 C 672.667969 406.964844 671.84375 406.140625 671.84375 405.125 L 671.84375 358.457031 C 671.84375 352.371094 666.894531 347.417969 660.8125 347.417969 C 654.726562 347.417969 649.777344 352.371094 649.777344 358.457031 L 649.777344 400.652344 C 649.777344 401.671875 648.953125 402.496094 647.9375 402.496094 C 646.921875 402.496094 646.097656 401.671875 646.097656 400.652344 L 646.097656 358.457031 C 646.097656 350.339844 652.699219 343.738281 660.8125 343.738281 C 668.925781 343.738281 675.523438 350.339844 675.523438 358.457031 L 675.523438 405.125 C 675.523438 406.140625 674.703125 406.964844 673.683594 406.964844 Z M 673.683594 406.964844 " fill-opacity="1" fill-rule="nonzero"/><path fill="#000000" d="M 686.574219 432.152344 C 678.453125 432.152344 671.84375 425.550781 671.84375 417.433594 L 671.84375 375.238281 C 671.84375 374.21875 672.667969 373.394531 673.683594 373.394531 C 674.703125 373.394531 675.523438 374.21875 675.523438 375.238281 L 675.523438 417.433594 C 675.523438 423.519531 680.484375 428.472656 686.574219 428.472656 C 692.671875 428.472656 697.628906 423.519531 697.628906 417.433594 L 697.628906 351.261719 C 697.628906 350.246094 698.453125 349.421875 699.46875 349.421875 C 700.484375 349.421875 701.308594 350.246094 701.308594 351.261719 L 701.308594 417.433594 C 701.308594 425.550781 694.699219 432.152344 686.574219 432.152344 Z M 686.574219 432.152344 " fill-opacity="1" fill-rule="nonzero"/><path fill="#000000" d="M 699.46875 404.996094 C 698.453125 404.996094 697.628906 404.171875 697.628906 403.152344 L 697.628906 337.019531 C 697.628906 328.882812 704.230469 322.261719 712.34375 322.261719 C 720.457031 322.261719 727.058594 328.882812 727.058594 337.019531 L 727.058594 379.175781 C 727.058594 380.191406 726.234375 381.015625 725.21875 381.015625 C 724.203125 381.015625 723.378906 380.191406 723.378906 379.175781 L 723.378906 337.019531 C 723.378906 330.910156 718.425781 325.945312 712.34375 325.945312 C 706.257812 325.945312 701.308594 330.910156 701.308594 337.019531 L 701.308594 403.152344 C 701.308594 404.171875 700.484375 404.996094 699.46875 404.996094 Z M 699.46875 404.996094 " fill-opacity="1" fill-rule="nonzero"/><path fill="#000000" d="M 750.984375 382.757812 C 749.96875 382.757812 749.144531 381.933594 749.144531 380.917969 L 749.144531 314.746094 C 749.144531 308.660156 744.183594 303.707031 738.089844 303.707031 C 732.007812 303.707031 727.058594 308.660156 727.058594 314.746094 L 727.058594 356.902344 C 727.058594 357.921875 726.234375 358.746094 725.21875 358.746094 C 724.203125 358.746094 723.378906 357.921875 723.378906 356.902344 L 723.378906 314.746094 C 723.378906 306.628906 729.976562 300.027344 738.089844 300.027344 C 746.214844 300.027344 752.824219 306.632812 752.824219 314.746094 L 752.824219 380.917969 C 752.824219 381.933594 752 382.757812 750.984375 382.757812 Z M 750.984375 382.757812 " fill-opacity="1" fill-rule="nonzero"/><path fill="#000000" d="M 758.898438 426.699219 C 753.519531 426.699219 749.144531 420.792969 749.144531 413.53125 L 749.144531 355.351562 C 749.144531 354.335938 749.96875 353.511719 750.984375 353.511719 C 752 353.511719 752.824219 354.335938 752.824219 355.351562 L 752.824219 413.53125 C 752.824219 418.671875 755.605469 423.015625 758.898438 423.015625 C 762.199219 423.015625 764.988281 418.671875 764.988281 413.53125 L 764.988281 376.449219 C 764.988281 375.433594 765.8125 374.609375 766.828125 374.609375 C 767.847656 374.609375 768.667969 375.433594 768.667969 376.449219 L 768.667969 413.53125 C 768.667969 420.792969 764.285156 426.699219 758.898438 426.699219 Z M 758.898438 426.699219 " fill-opacity="1" fill-rule="nonzero"/><path fill="#000000" d="M 790.832031 415.371094 C 789.816406 415.371094 788.992188 414.546875 788.992188 413.53125 L 788.992188 362.207031 C 788.992188 356.101562 784.433594 351.132812 778.832031 351.132812 C 773.230469 351.132812 768.671875 356.101562 768.671875 362.207031 L 768.671875 404.367188 C 768.671875 405.382812 767.847656 406.207031 766.832031 406.207031 C 765.8125 406.207031 764.992188 405.382812 764.992188 404.367188 L 764.992188 362.207031 C 764.992188 354.070312 771.199219 347.449219 778.832031 347.449219 C 786.464844 347.449219 792.675781 354.070312 792.675781 362.207031 L 792.675781 413.53125 C 792.671875 414.546875 791.847656 415.371094 790.832031 415.371094 Z M 790.832031 415.371094 " fill-opacity="1" fill-rule="nonzero"/><path fill="#000000" d="M 800.414062 386.507812 L 781.691406 386.507812 C 780.675781 386.507812 779.851562 385.6875 779.851562 384.667969 L 779.851562 375.882812 C 779.851562 374.863281 780.675781 374.039062 781.691406 374.039062 L 800.414062 374.039062 C 801.429688 374.039062 802.253906 374.863281 802.253906 375.882812 L 802.253906 384.667969 C 802.257812 385.6875 801.433594 386.507812 800.414062 386.507812 Z M 783.53125 382.828125 L 798.574219 382.828125 L 798.574219 377.722656 L 783.53125 377.722656 Z M 783.53125 382.828125 " fill-opacity="1" fill-rule="nonzero"/><path fill="#000000" d="M 657.328125 386.507812 L 638.585938 386.507812 C 637.570312 386.507812 636.746094 385.6875 636.746094 384.667969 L 636.746094 375.882812 C 636.746094 374.863281 637.570312 374.039062 638.585938 374.039062 L 657.328125 374.039062 C 658.34375 374.039062 659.167969 374.863281 659.167969 375.882812 L 659.167969 384.667969 C 659.167969 385.6875 658.34375 386.507812 657.328125 386.507812 Z M 640.425781 382.828125 L 655.488281 382.828125 L 655.488281 377.722656 L 640.425781 377.722656 Z M 640.425781 382.828125 " fill-opacity="1" fill-rule="nonzero"/><path fill="#000000" d="M 608.671875 482.152344 C 608.367188 482.152344 608.0625 482.078125 607.78125 481.921875 C 606.890625 481.425781 606.570312 480.304688 607.066406 479.417969 C 607.433594 478.753906 616.199219 463.179688 626.929688 461.902344 C 631.042969 461.417969 634.835938 463.019531 638.199219 466.679688 C 650.460938 480.046875 688.445312 465.042969 688.828125 464.890625 C 689.769531 464.515625 690.839844 464.972656 691.21875 465.914062 C 691.597656 466.859375 691.136719 467.929688 690.195312 468.308594 C 689.082031 468.753906 671.078125 475.863281 655.144531 475.863281 C 647.359375 475.867188 640.074219 474.167969 635.488281 469.167969 C 632.9375 466.394531 630.28125 465.210938 627.367188 465.558594 C 619.996094 466.4375 612.535156 477.152344 610.28125 481.207031 C 609.945312 481.8125 609.316406 482.152344 608.671875 482.152344 Z M 608.671875 482.152344 " fill-opacity="1" fill-rule="nonzero"/><path fill="#000000" d="M 804.832031 486.402344 C 794.898438 486.402344 788.660156 483.8125 786.253906 478.667969 C 785.488281 477.042969 784.242188 475.992188 782.445312 475.457031 C 774.703125 473.160156 759.378906 481.089844 754.128906 484.339844 C 753.265625 484.871094 752.132812 484.605469 751.597656 483.742188 C 751.0625 482.878906 751.328125 481.742188 752.191406 481.207031 C 753.019531 480.695312 772.597656 468.695312 783.492188 471.929688 C 786.3125 472.765625 788.363281 474.507812 789.582031 477.105469 C 794 486.546875 819.273438 481.832031 828.640625 479.222656 C 829.617188 478.949219 830.632812 479.519531 830.90625 480.5 C 831.179688 481.476562 830.609375 482.492188 829.628906 482.765625 C 829.265625 482.867188 820.5625 485.273438 810.953125 486.117188 C 808.777344 486.308594 806.738281 486.402344 804.832031 486.402344 Z M 804.832031 486.402344 " fill-opacity="1" fill-rule="nonzero"/><path fill="#000000" d="M 805.488281 453.78125 C 802.429688 453.78125 799.941406 451.289062 799.941406 448.230469 C 799.941406 445.167969 802.429688 442.675781 805.488281 442.675781 C 808.539062 442.675781 811.019531 445.167969 811.019531 448.230469 C 811.019531 451.289062 808.539062 453.78125 805.488281 453.78125 Z M 805.488281 446.355469 C 804.457031 446.355469 803.617188 447.195312 803.617188 448.230469 C 803.617188 449.261719 804.457031 450.101562 805.488281 450.101562 C 806.507812 450.101562 807.339844 449.261719 807.339844 448.230469 C 807.339844 447.195312 806.507812 446.355469 805.488281 446.355469 Z M 805.488281 446.355469 " fill-opacity="1" fill-rule="nonzero"/><path fill="#000000" d="M 777.734375 460.75 C 775.445312 460.75 773.585938 458.890625 773.585938 456.601562 C 773.585938 454.3125 775.445312 452.449219 777.734375 452.449219 C 780.023438 452.449219 781.882812 454.3125 781.882812 456.601562 C 781.882812 458.890625 780.023438 460.75 777.734375 460.75 Z M 777.734375 456.128906 C 777.460938 456.128906 777.265625 456.328125 777.265625 456.601562 C 777.265625 456.871094 777.460938 457.070312 777.734375 457.070312 C 778.007812 457.070312 778.203125 456.871094 778.203125 456.601562 C 778.203125 456.328125 778.007812 456.128906 777.734375 456.128906 Z M 777.734375 456.128906 " fill-opacity="1" fill-rule="nonzero"/><path fill="#000000" d="M 805.183594 472.191406 C 802.898438 472.191406 801.035156 470.328125 801.035156 468.039062 C 801.035156 465.75 802.898438 463.886719 805.183594 463.886719 C 807.472656 463.886719 809.332031 465.75 809.332031 468.039062 C 809.332031 470.328125 807.472656 472.191406 805.183594 472.191406 Z M 805.183594 467.570312 C 804.914062 467.570312 804.714844 467.765625 804.714844 468.039062 C 804.714844 468.3125 804.914062 468.507812 805.183594 468.507812 C 805.457031 468.507812 805.652344 468.3125 805.652344 468.039062 C 805.652344 467.765625 805.457031 467.570312 805.183594 467.570312 Z M 805.183594 467.570312 " fill-opacity="1" fill-rule="nonzero"/><path fill="#000000" d="M 789.359375 441.925781 C 787.070312 441.925781 785.207031 440.0625 785.207031 437.773438 C 785.207031 435.484375 787.070312 433.625 789.359375 433.625 C 791.65625 433.625 793.527344 435.484375 793.527344 437.773438 C 793.527344 440.0625 791.65625 441.925781 789.359375 441.925781 Z M 789.359375 437.304688 C 789.09375 437.304688 788.886719 437.511719 788.886719 437.773438 C 788.886719 438.035156 789.097656 438.246094 789.359375 438.246094 C 789.632812 438.246094 789.847656 438.039062 789.847656 437.773438 C 789.847656 437.511719 789.632812 437.304688 789.359375 437.304688 Z M 789.359375 437.304688 " fill-opacity="1" fill-rule="nonzero"/><path fill="#000000" d="M 629.34375 455.21875 C 627.039062 455.21875 625.160156 453.359375 625.160156 451.070312 C 625.160156 448.761719 627.035156 446.882812 629.34375 446.882812 C 631.632812 446.882812 633.496094 448.761719 633.496094 451.070312 C 633.496094 453.359375 631.632812 455.21875 629.34375 455.21875 Z M 629.34375 450.5625 C 629.074219 450.5625 628.839844 450.800781 628.839844 451.070312 C 628.839844 451.289062 629.058594 451.539062 629.34375 451.539062 C 629.585938 451.539062 629.8125 451.3125 629.8125 451.070312 C 629.8125 450.800781 629.59375 450.5625 629.34375 450.5625 Z M 629.34375 450.5625 " fill-opacity="1" fill-rule="nonzero"/><path fill="#000000" d="M 645.550781 441.546875 C 642.929688 441.546875 640.796875 439.414062 640.796875 436.789062 C 640.796875 434.121094 642.886719 432.03125 645.550781 432.03125 C 648.171875 432.03125 650.304688 434.167969 650.304688 436.789062 C 650.304688 439.414062 648.171875 441.546875 645.550781 441.546875 Z M 645.550781 435.714844 C 644.9375 435.714844 644.476562 436.175781 644.476562 436.789062 C 644.476562 437.382812 644.960938 437.867188 645.550781 437.867188 C 646.125 437.867188 646.625 437.363281 646.625 436.789062 C 646.625 436.195312 646.144531 435.714844 645.550781 435.714844 Z M 645.550781 435.714844 " fill-opacity="1" fill-rule="nonzero"/><path fill="#000000" d="M 655.679688 463.628906 C 653.054688 463.628906 650.921875 461.496094 650.921875 458.875 C 650.921875 456.25 653.054688 454.113281 655.679688 454.113281 C 658.300781 454.113281 660.4375 456.25 660.4375 458.875 C 660.4375 461.496094 658.300781 463.628906 655.679688 463.628906 Z M 655.679688 457.796875 C 655.074219 457.796875 654.601562 458.269531 654.601562 458.875 C 654.601562 459.457031 655.097656 459.949219 655.679688 459.949219 C 656.261719 459.949219 656.757812 459.457031 656.757812 458.875 C 656.757812 458.269531 656.28125 457.796875 655.679688 457.796875 Z M 655.679688 457.796875 " fill-opacity="1" fill-rule="nonzero"/><path fill="#000000" d="M 673.511719 465.21875 C 671.214844 465.21875 669.34375 463.359375 669.34375 461.070312 C 669.34375 458.78125 671.214844 456.917969 673.511719 456.917969 C 675.8125 456.917969 677.679688 458.78125 677.679688 461.070312 C 677.683594 463.359375 675.8125 465.21875 673.511719 465.21875 Z M 673.511719 460.597656 C 673.246094 460.597656 673.023438 460.816406 673.023438 461.070312 C 673.023438 461.324219 673.246094 461.539062 673.511719 461.539062 C 673.792969 461.539062 674 461.339844 674 461.070312 C 674.003906 460.800781 673.792969 460.597656 673.511719 460.597656 Z M 673.511719 460.597656 " fill-opacity="1" fill-rule="nonzero"/></svg>