<svg xmlns="http://www.w3.org/2000/svg" xmlns:xlink="http://www.w3.org/1999/xlink" width="1920" zoomAndPan="magnify" viewBox="0 0 1440 809.999993" height="1080" preserveAspectRatio="xMidYMid meet" version="1.0"><defs><clipPath id="33febdbbed"><path d="M 606.75 292 L 833.25 292 L 833.25 520.5 L 606.75 520.5 Z M 606.75 292 " clip-rule="nonzero"/></clipPath></defs><g clip-path="url(#33febdbbed)"><path fill="#000000" d="M 813.695312 384.027344 C 814.636719 383.132812 815.507812 382.171875 816.308594 381.148438 C 817.109375 380.125 817.832031 379.046875 818.472656 377.914062 C 819.117188 376.78125 819.671875 375.609375 820.140625 374.398438 C 820.609375 373.183594 820.988281 371.941406 821.273438 370.671875 C 821.5625 369.402344 821.753906 368.117188 821.851562 366.820312 C 821.949219 365.523438 821.953125 364.222656 821.859375 362.925781 C 821.765625 361.625 821.578125 360.339844 821.296875 359.070312 C 821.011719 357.800781 820.640625 356.558594 820.175781 355.339844 C 819.710938 354.125 819.15625 352.953125 818.519531 351.816406 C 817.882812 350.683594 817.164062 349.605469 816.367188 348.578125 C 815.570312 347.546875 814.703125 346.585938 813.765625 345.6875 C 812.824219 344.789062 811.828125 343.964844 810.765625 343.210938 C 809.707031 342.460938 808.597656 341.792969 807.4375 341.207031 C 806.28125 340.621094 805.085938 340.121094 803.851562 339.710938 C 802.621094 339.300781 801.367188 338.984375 800.089844 338.761719 C 798.808594 338.539062 797.523438 338.410156 796.226562 338.378906 C 795.433594 336.917969 794.601562 335.480469 793.730469 334.070312 C 792.855469 332.65625 791.945312 331.273438 790.992188 329.914062 C 790.039062 328.554688 789.050781 327.222656 788.019531 325.917969 C 786.992188 324.617188 785.929688 323.34375 784.828125 322.101562 C 783.726562 320.859375 782.59375 319.652344 781.421875 318.476562 C 780.253906 317.300781 779.050781 316.15625 777.816406 315.050781 C 776.582031 313.941406 775.316406 312.871094 774.019531 311.835938 C 772.726562 310.804688 771.402344 309.804688 770.046875 308.847656 C 768.695312 307.890625 767.316406 306.96875 765.910156 306.089844 C 764.507812 305.210938 763.078125 304.375 761.625 303.578125 C 760.171875 302.777344 758.695312 302.023438 757.199219 301.3125 C 755.703125 300.597656 754.1875 299.929688 752.65625 299.304688 C 751.121094 298.679688 749.570312 298.097656 748.003906 297.5625 C 746.433594 297.027344 744.851562 296.535156 743.257812 296.089844 C 741.664062 295.644531 740.054688 295.242188 738.4375 294.890625 C 736.820312 294.539062 735.191406 294.230469 733.554688 293.972656 C 731.921875 293.710938 730.277344 293.5 728.632812 293.332031 C 726.984375 293.167969 725.332031 293.050781 723.675781 292.980469 C 722.023438 292.910156 720.367188 292.886719 718.710938 292.910156 C 717.054688 292.933594 715.402344 293.007812 713.75 293.125 C 712.097656 293.246094 710.453125 293.414062 708.808594 293.625 C 707.167969 293.839844 705.53125 294.101562 703.90625 294.410156 C 702.277344 294.71875 700.660156 295.074219 699.054688 295.472656 C 697.445312 295.875 695.851562 296.320312 694.269531 296.8125 C 692.6875 297.304688 691.121094 297.84375 689.570312 298.425781 C 688.019531 299.007812 686.488281 299.636719 684.972656 300.304688 C 683.457031 300.976562 681.960938 301.691406 680.488281 302.445312 C 679.011719 303.203125 677.5625 304 676.132812 304.839844 C 674.703125 305.679688 673.300781 306.558594 671.921875 307.480469 C 670.542969 308.402344 669.191406 309.359375 667.867188 310.359375 C 666.542969 311.355469 665.246094 312.390625 663.984375 313.464844 C 662.71875 314.539062 661.484375 315.644531 660.285156 316.789062 C 653.664062 323.121094 648.167969 330.316406 643.796875 338.378906 C 642.5 338.410156 641.214844 338.539062 639.933594 338.761719 C 638.65625 338.984375 637.402344 339.300781 636.167969 339.710938 C 634.9375 340.121094 633.742188 340.617188 632.585938 341.203125 C 631.425781 341.789062 630.316406 342.457031 629.253906 343.210938 C 628.195312 343.960938 627.195312 344.785156 626.257812 345.683594 C 625.316406 346.582031 624.449219 347.542969 623.652344 348.570312 C 622.855469 349.597656 622.136719 350.679688 621.496094 351.8125 C 620.859375 352.945312 620.308594 354.117188 619.839844 355.332031 C 619.375 356.546875 619 357.792969 618.71875 359.0625 C 618.433594 360.332031 618.246094 361.617188 618.152344 362.914062 C 618.054688 364.214844 618.058594 365.511719 618.152344 366.808594 C 618.25 368.109375 618.441406 369.390625 618.726562 370.664062 C 619.011719 371.933594 619.390625 373.175781 619.855469 374.386719 C 620.324219 375.601562 620.878906 376.777344 621.519531 377.90625 C 622.160156 379.039062 622.878906 380.121094 623.679688 381.144531 C 624.480469 382.171875 625.347656 383.132812 626.289062 384.027344 C 624.945312 384.214844 623.632812 384.519531 622.34375 384.945312 C 621.058594 385.367188 619.816406 385.902344 618.625 386.550781 C 617.433594 387.195312 616.308594 387.945312 615.25 388.792969 C 614.191406 389.644531 613.21875 390.578125 612.328125 391.605469 C 611.4375 392.628906 610.644531 393.726562 609.949219 394.894531 C 609.253906 396.058594 608.671875 397.28125 608.195312 398.554688 C 607.71875 399.828125 607.359375 401.132812 607.117188 402.46875 C 606.875 403.808594 606.75 405.15625 606.75 406.515625 L 606.75 455.753906 C 606.75 456.253906 606.847656 456.738281 607.039062 457.203125 C 607.230469 457.667969 607.5 458.074219 607.855469 458.429688 C 608.210938 458.785156 608.617188 459.058594 609.082031 459.253906 C 609.542969 459.445312 610.023438 459.539062 610.523438 459.539062 L 670.925781 459.539062 L 670.925781 516.351562 C 670.925781 516.855469 671.019531 517.339844 671.210938 517.804688 C 671.402344 518.265625 671.675781 518.675781 672.03125 519.03125 C 672.382812 519.386719 672.792969 519.660156 673.253906 519.851562 C 673.71875 520.042969 674.199219 520.140625 674.699219 520.140625 L 765.300781 520.140625 C 765.800781 520.140625 766.28125 520.042969 766.746094 519.851562 C 767.207031 519.660156 767.617188 519.386719 767.96875 519.03125 C 768.324219 518.675781 768.597656 518.265625 768.789062 517.804688 C 768.980469 517.339844 769.074219 516.855469 769.074219 516.351562 L 769.074219 459.539062 L 829.476562 459.539062 C 829.976562 459.539062 830.457031 459.445312 830.917969 459.253906 C 831.382812 459.058594 831.789062 458.785156 832.144531 458.429688 C 832.5 458.074219 832.769531 457.667969 832.960938 457.203125 C 833.152344 456.738281 833.25 456.253906 833.25 455.753906 L 833.25 406.515625 C 833.25 405.15625 833.125 403.804688 832.882812 402.46875 C 832.640625 401.128906 832.28125 399.824219 831.804688 398.550781 C 831.328125 397.277344 830.742188 396.058594 830.046875 394.890625 C 829.351562 393.722656 828.558594 392.625 827.667969 391.601562 C 826.777344 390.574219 825.800781 389.636719 824.742188 388.789062 C 823.683594 387.941406 822.558594 387.191406 821.363281 386.546875 C 820.171875 385.898438 818.929688 385.363281 817.640625 384.941406 C 816.355469 384.519531 815.039062 384.214844 813.695312 384.027344 Z M 757.75 426.453125 C 755.539062 424.894531 753.144531 423.707031 750.566406 422.890625 C 747.992188 422.074219 745.351562 421.664062 742.648438 421.664062 L 741.304688 421.664062 C 743.792969 419.648438 745.953125 417.324219 747.789062 414.699219 C 749.625 412.070312 751.0625 409.242188 752.105469 406.207031 L 755.082031 409.191406 C 755.816406 409.933594 756.707031 410.300781 757.75 410.300781 Z M 720 429.238281 C 723.820312 429.234375 727.53125 428.59375 731.136719 427.320312 C 731.027344 427.976562 730.867188 428.621094 730.644531 429.25 C 730.425781 429.878906 730.152344 430.484375 729.824219 431.0625 C 729.5 431.644531 729.125 432.191406 728.703125 432.703125 C 728.277344 433.21875 727.8125 433.691406 727.308594 434.121094 C 726.800781 434.554688 726.261719 434.9375 725.6875 435.273438 C 725.113281 435.609375 724.515625 435.894531 723.894531 436.121094 C 723.269531 436.351562 722.632812 436.527344 721.976562 436.644531 C 721.324219 436.757812 720.664062 436.816406 720 436.816406 C 719.335938 436.816406 718.675781 436.757812 718.023438 436.644531 C 717.367188 436.527344 716.730469 436.351562 716.105469 436.121094 C 715.484375 435.894531 714.886719 435.609375 714.3125 435.273438 C 713.738281 434.9375 713.199219 434.554688 712.691406 434.121094 C 712.1875 433.691406 711.722656 433.21875 711.296875 432.703125 C 710.875 432.191406 710.5 431.644531 710.175781 431.0625 C 709.847656 430.484375 709.574219 429.878906 709.355469 429.25 C 709.132812 428.621094 708.96875 427.976562 708.863281 427.320312 C 712.46875 428.59375 716.179688 429.234375 720 429.238281 Z M 746.425781 395.152344 C 746.425781 396.019531 746.382812 396.886719 746.296875 397.75 C 746.210938 398.617188 746.085938 399.472656 745.917969 400.324219 C 745.75 401.175781 745.539062 402.019531 745.289062 402.847656 C 745.035156 403.679688 744.746094 404.496094 744.414062 405.296875 C 744.082031 406.101562 743.710938 406.882812 743.304688 407.652344 C 742.898438 408.417969 742.453125 409.160156 741.972656 409.882812 C 741.492188 410.605469 740.976562 411.300781 740.425781 411.972656 C 739.878906 412.644531 739.296875 413.285156 738.683594 413.898438 C 738.074219 414.515625 737.433594 415.097656 736.765625 415.648438 C 736.09375 416.199219 735.402344 416.714844 734.679688 417.195312 C 733.960938 417.679688 733.21875 418.125 732.457031 418.535156 C 731.695312 418.945312 730.910156 419.316406 730.113281 419.648438 C 729.3125 419.980469 728.5 420.269531 727.671875 420.523438 C 726.84375 420.777344 726.003906 420.984375 725.15625 421.15625 C 724.304688 421.324219 723.453125 421.453125 722.589844 421.539062 C 721.730469 421.621094 720.867188 421.664062 720 421.664062 C 719.132812 421.664062 718.269531 421.621094 717.410156 421.539062 C 716.546875 421.453125 715.695312 421.324219 714.84375 421.15625 C 713.996094 420.984375 713.15625 420.777344 712.328125 420.523438 C 711.5 420.269531 710.6875 419.980469 709.886719 419.648438 C 709.089844 419.316406 708.304688 418.945312 707.542969 418.535156 C 706.78125 418.125 706.039062 417.679688 705.320312 417.195312 C 704.597656 416.714844 703.90625 416.199219 703.234375 415.648438 C 702.566406 415.097656 701.925781 414.515625 701.316406 413.898438 C 700.703125 413.285156 700.121094 412.644531 699.574219 411.972656 C 699.023438 411.300781 698.507812 410.605469 698.027344 409.882812 C 697.546875 409.160156 697.101562 408.417969 696.695312 407.652344 C 696.289062 406.882812 695.917969 406.101562 695.585938 405.296875 C 695.253906 404.496094 694.964844 403.679688 694.710938 402.847656 C 694.460938 402.019531 694.25 401.175781 694.082031 400.324219 C 693.914062 399.472656 693.785156 398.617188 693.703125 397.75 C 693.617188 396.886719 693.574219 396.019531 693.574219 395.152344 C 693.574219 394.285156 693.617188 393.417969 693.703125 392.554688 C 693.785156 391.691406 693.914062 390.832031 694.082031 389.980469 C 694.25 389.128906 694.460938 388.289062 694.710938 387.457031 C 694.964844 386.625 695.253906 385.808594 695.585938 385.007812 C 695.917969 384.203125 696.289062 383.421875 696.695312 382.65625 C 697.101562 381.886719 697.546875 381.144531 698.027344 380.421875 C 698.507812 379.699219 699.023438 379.003906 699.574219 378.332031 C 700.121094 377.660156 700.703125 377.019531 701.316406 376.40625 C 701.925781 375.792969 702.566406 375.207031 703.234375 374.65625 C 703.90625 374.105469 704.597656 373.589844 705.320312 373.109375 C 706.039062 372.625 706.78125 372.179688 707.542969 371.769531 C 708.304688 371.359375 709.089844 370.988281 709.886719 370.65625 C 710.6875 370.324219 711.5 370.035156 712.328125 369.78125 C 713.15625 369.527344 713.996094 369.320312 714.84375 369.148438 C 715.695312 368.980469 716.546875 368.851562 717.410156 368.765625 C 718.269531 368.683594 719.132812 368.640625 720 368.640625 C 720.863281 368.640625 721.726562 368.683594 722.589844 368.769531 C 723.449219 368.855469 724.304688 368.984375 725.152344 369.152344 C 726 369.324219 726.839844 369.535156 727.667969 369.789062 C 728.496094 370.039062 729.308594 370.332031 730.109375 370.664062 C 730.90625 371 731.6875 371.371094 732.449219 371.777344 C 733.214844 372.1875 733.953125 372.632812 734.671875 373.117188 C 735.394531 373.601562 736.085938 374.117188 736.753906 374.667969 C 737.425781 375.21875 738.066406 375.800781 738.675781 376.414062 C 739.289062 377.027344 739.867188 377.671875 740.417969 378.339844 C 740.964844 379.011719 741.480469 379.707031 741.960938 380.429688 C 742.441406 381.152344 742.886719 381.894531 743.296875 382.660156 C 743.703125 383.425781 744.074219 384.210938 744.40625 385.011719 C 744.738281 385.8125 745.027344 386.628906 745.28125 387.460938 C 745.53125 388.289062 745.742188 389.132812 745.914062 389.980469 C 746.082031 390.832031 746.210938 391.691406 746.296875 392.554688 C 746.378906 393.417969 746.425781 394.285156 746.425781 395.152344 Z M 701.503906 429.238281 C 701.71875 430.300781 702.019531 431.339844 702.414062 432.347656 C 702.804688 433.359375 703.28125 434.328125 703.839844 435.257812 C 704.398438 436.183594 705.03125 437.058594 705.738281 437.875 C 706.445312 438.695312 707.21875 439.449219 708.054688 440.132812 C 708.890625 440.820312 709.78125 441.429688 710.722656 441.964844 C 711.660156 442.496094 712.640625 442.945312 713.660156 443.308594 C 714.675781 443.671875 715.71875 443.949219 716.78125 444.132812 C 717.847656 444.316406 718.917969 444.410156 720 444.410156 C 721.082031 444.410156 722.152344 444.316406 723.21875 444.132812 C 724.28125 443.949219 725.324219 443.671875 726.339844 443.308594 C 727.359375 442.945312 728.339844 442.496094 729.277344 441.964844 C 730.21875 441.429688 731.109375 440.820312 731.945312 440.132812 C 732.78125 439.449219 733.554688 438.695312 734.261719 437.875 C 734.96875 437.058594 735.601562 436.183594 736.160156 435.257812 C 736.71875 434.328125 737.195312 433.359375 737.585938 432.347656 C 737.980469 431.339844 738.28125 430.300781 738.496094 429.238281 L 742.648438 429.238281 C 745.945312 429.261719 749.019531 430.101562 751.871094 431.753906 L 719.90625 458.476562 L 686.519531 432.722656 C 688.101562 431.59375 689.816406 430.730469 691.664062 430.136719 C 693.515625 429.542969 695.410156 429.242188 697.351562 429.238281 Z M 814.375 364.851562 C 814.375 365.472656 814.34375 366.089844 814.285156 366.707031 C 814.222656 367.324219 814.132812 367.9375 814.011719 368.546875 C 813.890625 369.15625 813.742188 369.757812 813.5625 370.347656 C 813.382812 370.941406 813.175781 371.527344 812.9375 372.097656 C 812.703125 372.671875 812.4375 373.230469 812.144531 373.78125 C 811.855469 374.328125 811.539062 374.859375 811.195312 375.375 C 810.851562 375.890625 810.484375 376.386719 810.089844 376.867188 C 809.699219 377.34375 809.285156 377.804688 808.847656 378.242188 C 808.410156 378.683594 807.953125 379.097656 807.472656 379.492188 C 806.996094 379.882812 806.5 380.253906 805.988281 380.597656 C 805.472656 380.941406 804.941406 381.261719 804.398438 381.554688 C 803.851562 381.847656 803.292969 382.109375 802.722656 382.347656 C 802.152344 382.585938 801.570312 382.792969 800.980469 382.972656 C 800.386719 383.15625 799.789062 383.304688 799.183594 383.425781 C 798.574219 383.546875 797.964844 383.636719 797.351562 383.699219 C 796.734375 383.757812 796.117188 383.789062 795.5 383.789062 C 794.882812 383.789062 794.265625 383.757812 793.648438 383.699219 C 793.035156 383.636719 792.425781 383.546875 791.816406 383.425781 C 791.210938 383.304688 790.613281 383.15625 790.019531 382.972656 C 789.429688 382.792969 788.847656 382.585938 788.277344 382.347656 C 787.707031 382.109375 787.148438 381.847656 786.601562 381.554688 C 786.058594 381.261719 785.527344 380.941406 785.011719 380.597656 C 784.5 380.253906 784.003906 379.882812 783.527344 379.492188 C 783.046875 379.097656 782.589844 378.683594 782.152344 378.242188 C 781.714844 377.804688 781.300781 377.34375 780.910156 376.867188 C 780.515625 376.386719 780.148438 375.890625 779.804688 375.375 C 779.460938 374.859375 779.144531 374.328125 778.855469 373.78125 C 778.5625 373.230469 778.296875 372.671875 778.0625 372.097656 C 777.824219 371.527344 777.617188 370.941406 777.4375 370.347656 C 777.257812 369.757812 777.109375 369.15625 776.988281 368.546875 C 776.867188 367.9375 776.777344 367.324219 776.714844 366.707031 C 776.65625 366.089844 776.625 365.472656 776.625 364.851562 C 776.625 364.230469 776.65625 363.613281 776.714844 362.996094 C 776.777344 362.378906 776.867188 361.765625 776.988281 361.15625 C 777.109375 360.550781 777.257812 359.949219 777.4375 359.355469 C 777.617188 358.761719 777.824219 358.179688 778.0625 357.605469 C 778.296875 357.03125 778.5625 356.472656 778.855469 355.925781 C 779.144531 355.378906 779.460938 354.847656 779.804688 354.332031 C 780.148438 353.816406 780.515625 353.316406 780.910156 352.839844 C 781.300781 352.359375 781.714844 351.898438 782.152344 351.460938 C 782.589844 351.023438 783.046875 350.605469 783.527344 350.214844 C 784.003906 349.820312 784.5 349.449219 785.011719 349.105469 C 785.527344 348.761719 786.058594 348.441406 786.601562 348.152344 C 787.148438 347.859375 787.707031 347.59375 788.277344 347.355469 C 788.847656 347.117188 789.429688 346.910156 790.019531 346.730469 C 790.613281 346.550781 791.210938 346.398438 791.816406 346.277344 C 792.425781 346.15625 793.035156 346.066406 793.648438 346.003906 C 794.265625 345.945312 794.882812 345.914062 795.5 345.914062 C 796.117188 345.914062 796.734375 345.945312 797.347656 346.007812 C 797.964844 346.070312 798.574219 346.160156 799.179688 346.28125 C 799.785156 346.402344 800.386719 346.554688 800.976562 346.734375 C 801.566406 346.914062 802.148438 347.125 802.71875 347.363281 C 803.289062 347.601562 803.847656 347.863281 804.394531 348.15625 C 804.9375 348.449219 805.46875 348.769531 805.980469 349.113281 C 806.496094 349.457031 806.992188 349.828125 807.46875 350.21875 C 807.945312 350.613281 808.402344 351.03125 808.839844 351.46875 C 809.277344 351.90625 809.691406 352.363281 810.082031 352.84375 C 810.476562 353.324219 810.84375 353.820312 811.1875 354.335938 C 811.53125 354.851562 811.847656 355.382812 812.140625 355.929688 C 812.429688 356.476562 812.695312 357.035156 812.933594 357.609375 C 813.167969 358.179688 813.378906 358.765625 813.558594 359.355469 C 813.738281 359.949219 813.886719 360.550781 814.007812 361.160156 C 814.128906 361.765625 814.222656 362.378906 814.28125 362.996094 C 814.34375 363.613281 814.375 364.230469 814.375 364.851562 Z M 802.496094 390.390625 C 802.214844 391.09375 801.839844 391.742188 801.371094 392.328125 C 800.898438 392.917969 800.351562 393.425781 799.726562 393.851562 C 799.101562 394.277344 798.429688 394.597656 797.710938 394.820312 C 796.992188 395.042969 796.253906 395.15625 795.5 395.15625 C 794.746094 395.15625 794.007812 395.042969 793.289062 394.820312 C 792.570312 394.597656 791.898438 394.277344 791.273438 393.851562 C 790.648438 393.425781 790.101562 392.917969 789.628906 392.328125 C 789.160156 391.742188 788.785156 391.09375 788.503906 390.390625 C 790.792969 391.039062 793.125 391.363281 795.5 391.363281 C 797.875 391.363281 800.207031 391.039062 802.496094 390.390625 Z M 788.148438 339.398438 C 787.636719 339.546875 787.132812 339.710938 786.628906 339.886719 C 786.128906 340.066406 785.632812 340.257812 785.140625 340.464844 C 784.652344 340.671875 784.167969 340.894531 783.691406 341.132812 C 783.214844 341.371094 782.746094 341.621094 782.285156 341.886719 C 781.824219 342.15625 781.371094 342.433594 780.925781 342.726562 C 780.480469 343.019531 780.046875 343.328125 779.621094 343.648438 C 779.195312 343.96875 778.777344 344.300781 778.371094 344.644531 C 777.96875 344.988281 777.570312 345.347656 777.1875 345.714844 C 776.804688 346.085938 776.429688 346.464844 776.070312 346.859375 C 775.707031 347.25 775.359375 347.652344 775.019531 348.066406 C 774.683594 348.476562 774.359375 348.902344 774.046875 349.332031 C 773.738281 349.765625 773.4375 350.207031 773.152344 350.660156 C 772.867188 351.109375 772.597656 351.570312 772.339844 352.035156 C 772.082031 352.503906 771.839844 352.980469 771.613281 353.460938 C 771.382812 353.941406 771.167969 354.429688 770.96875 354.925781 C 770.773438 355.421875 770.585938 355.921875 770.417969 356.429688 C 770.25 356.933594 770.097656 357.445312 769.960938 357.960938 C 769.820312 358.476562 769.699219 358.996094 769.59375 359.519531 C 769.484375 360.042969 769.394531 360.570312 769.320312 361.097656 C 769.246094 361.625 769.1875 362.15625 769.144531 362.6875 C 769.101562 363.21875 769.074219 363.753906 769.0625 364.285156 C 769.054688 364.820312 769.058594 365.355469 769.082031 365.886719 C 769.101562 366.421875 769.140625 366.953125 769.195312 367.484375 C 769.25 368.015625 769.316406 368.542969 769.402344 369.070312 C 769.488281 369.597656 769.589844 370.121094 769.707031 370.644531 C 769.824219 371.164062 769.957031 371.679688 770.109375 372.191406 C 770.257812 372.707031 770.421875 373.214844 770.597656 373.714844 C 770.777344 374.21875 770.972656 374.714844 771.183594 375.207031 C 771.390625 375.695312 771.613281 376.179688 771.855469 376.65625 C 772.09375 377.136719 772.34375 377.605469 772.613281 378.066406 C 772.878906 378.527344 773.160156 378.980469 773.453125 379.425781 C 773.746094 379.871094 774.054688 380.308594 774.375 380.734375 L 763.191406 388.214844 C 762.632812 388.585938 762.207031 389.074219 761.90625 389.671875 L 756.699219 400.121094 L 753.855469 397.265625 C 753.894531 396.5625 753.960938 395.863281 753.960938 395.152344 C 753.960938 391.609375 753.421875 388.152344 752.339844 384.78125 L 753.886719 376.949219 C 754 376.394531 753.984375 375.84375 753.847656 375.292969 L 750.070312 360.144531 C 749.902344 359.464844 749.570312 358.878906 749.078125 358.386719 C 748.585938 357.890625 748.003906 357.558594 747.328125 357.390625 L 732.226562 353.601562 C 731.929688 353.527344 731.628906 353.492188 731.324219 353.488281 L 708.675781 353.488281 L 708.675781 350.597656 L 711.492188 344.949219 L 717.675781 341.847656 L 728.160156 338.339844 L 738.875 338.339844 C 739.46875 338.339844 740.03125 338.207031 740.5625 337.941406 L 748.113281 334.152344 C 748.863281 333.777344 749.429688 333.210938 749.804688 332.457031 L 753.578125 324.882812 C 753.878906 324.273438 754.007812 323.632812 753.964844 322.957031 C 753.925781 322.28125 753.714844 321.660156 753.339844 321.09375 L 747.507812 312.308594 L 752.414062 307.382812 C 756.125 309.050781 759.6875 310.992188 763.101562 313.207031 C 766.511719 315.425781 769.734375 317.890625 772.765625 320.609375 C 775.800781 323.324219 778.605469 326.257812 781.1875 329.40625 C 783.769531 332.558594 786.097656 335.890625 788.164062 339.398438 Z M 744.683594 304.429688 L 739.980469 309.148438 C 739.671875 309.457031 739.425781 309.8125 739.238281 310.207031 C 739.050781 310.601562 738.9375 311.019531 738.894531 311.453125 C 738.851562 311.890625 738.882812 312.320312 738.988281 312.746094 C 739.09375 313.171875 739.265625 313.566406 739.507812 313.929688 L 745.84375 323.460938 L 743.609375 327.941406 L 737.984375 330.765625 L 727.550781 330.765625 C 727.140625 330.765625 726.746094 330.828125 726.355469 330.957031 L 715.03125 334.746094 C 714.863281 334.800781 714.699219 334.871094 714.539062 334.949219 L 706.988281 338.738281 C 706.234375 339.113281 705.671875 339.679688 705.296875 340.433594 L 701.519531 348.007812 C 701.257812 348.542969 701.125 349.105469 701.125 349.703125 L 701.125 357.277344 C 701.125 357.78125 701.222656 358.261719 701.414062 358.726562 C 701.605469 359.191406 701.875 359.601562 702.230469 359.957031 C 702.585938 360.308594 702.992188 360.585938 703.457031 360.777344 C 703.917969 360.96875 704.398438 361.066406 704.898438 361.066406 L 730.859375 361.066406 L 743.316406 364.1875 L 745.417969 372.601562 C 744.640625 371.722656 743.824219 370.882812 742.960938 370.089844 C 742.097656 369.292969 741.195312 368.542969 740.257812 367.84375 C 739.316406 367.140625 738.34375 366.488281 737.339844 365.890625 C 736.332031 365.289062 735.296875 364.742188 734.234375 364.25 C 733.171875 363.757812 732.085938 363.320312 730.976562 362.9375 C 729.871094 362.558594 728.746094 362.238281 727.601562 361.972656 C 726.460938 361.710938 725.308594 361.507812 724.148438 361.363281 C 722.984375 361.21875 721.820312 361.136719 720.648438 361.113281 C 719.476562 361.089844 718.308594 361.128906 717.140625 361.226562 C 715.972656 361.324219 714.816406 361.484375 713.664062 361.703125 C 712.515625 361.921875 711.378906 362.199219 710.257812 362.539062 C 709.132812 362.875 708.03125 363.269531 706.953125 363.71875 C 705.871094 364.171875 704.816406 364.679688 703.785156 365.238281 C 702.757812 365.800781 701.757812 366.414062 700.792969 367.078125 C 699.828125 367.742188 698.898438 368.457031 698.007812 369.21875 C 697.113281 369.980469 696.265625 370.785156 695.457031 371.632812 C 694.644531 372.484375 693.882812 373.371094 693.164062 374.300781 C 692.449219 375.230469 691.78125 376.195312 691.164062 377.191406 C 690.546875 378.191406 689.980469 379.21875 689.46875 380.273438 C 688.957031 381.332031 688.5 382.410156 688.101562 383.515625 C 687.699219 384.621094 687.355469 385.742188 687.074219 386.882812 C 686.789062 388.023438 686.5625 389.171875 686.398438 390.335938 C 686.230469 391.5 686.125 392.667969 686.082031 393.84375 C 686.035156 395.015625 686.050781 396.191406 686.125 397.363281 C 686.203125 398.535156 686.339844 399.699219 686.535156 400.859375 C 686.730469 402.019531 686.988281 403.164062 687.300781 404.292969 C 687.613281 405.425781 687.988281 406.539062 688.414062 407.632812 C 688.84375 408.726562 689.328125 409.792969 689.867188 410.835938 C 690.40625 411.878906 691 412.890625 691.644531 413.875 C 692.289062 414.855469 692.980469 415.800781 693.722656 416.710938 C 694.460938 417.621094 695.25 418.488281 696.078125 419.316406 C 696.910156 420.144531 697.78125 420.925781 698.695312 421.664062 L 697.351562 421.664062 C 694.648438 421.664062 692.007812 422.074219 689.433594 422.890625 C 686.855469 423.707031 684.460938 424.894531 682.25 426.453125 L 682.25 406.515625 C 682.25 405.15625 682.125 403.808594 681.882812 402.46875 C 681.640625 401.132812 681.28125 399.828125 680.804688 398.554688 C 680.328125 397.28125 679.746094 396.058594 679.050781 394.894531 C 678.355469 393.726562 677.5625 392.628906 676.671875 391.605469 C 675.78125 390.578125 674.808594 389.644531 673.75 388.792969 C 672.691406 387.945312 671.566406 387.195312 670.375 386.550781 C 669.183594 385.902344 667.941406 385.367188 666.65625 384.945312 C 665.367188 384.519531 664.054688 384.214844 662.710938 384.027344 C 663.59375 383.191406 664.417969 382.292969 665.175781 381.339844 L 669.230469 383.386719 C 669.765625 383.65625 670.328125 383.789062 670.925781 383.789062 L 678.476562 383.789062 C 678.976562 383.789062 679.457031 383.695312 679.917969 383.5 C 680.382812 383.308594 680.789062 383.035156 681.144531 382.679688 C 681.5 382.324219 681.769531 381.914062 681.960938 381.453125 C 682.152344 380.988281 682.25 380.503906 682.25 380.003906 L 682.25 361.066406 C 682.25 360.753906 682.210938 360.445312 682.136719 360.144531 L 678.363281 344.996094 C 678.125 344.046875 677.605469 343.304688 676.796875 342.761719 L 669.300781 337.753906 L 669.820312 337.230469 C 670.304688 336.742188 670.632812 336.167969 670.804688 335.503906 C 670.976562 334.839844 670.96875 334.175781 670.78125 333.515625 L 667.171875 320.800781 C 669.746094 318.476562 672.460938 316.332031 675.316406 314.367188 C 678.171875 312.402344 681.140625 310.632812 684.226562 309.058594 C 687.316406 307.488281 690.492188 306.121094 693.757812 304.96875 C 697.023438 303.8125 700.347656 302.878906 703.734375 302.164062 C 707.125 301.449219 710.542969 300.957031 713.996094 300.695312 C 717.449219 300.429688 720.902344 300.394531 724.359375 300.585938 C 727.816406 300.777344 731.246094 301.191406 734.648438 301.835938 C 738.050781 302.480469 741.394531 303.34375 744.683594 304.429688 Z M 662.910156 333.445312 L 660.707031 335.660156 C 660.507812 335.859375 660.335938 336.078125 660.1875 336.3125 C 660.035156 336.550781 659.914062 336.800781 659.820312 337.066406 C 659.726562 337.328125 659.664062 337.597656 659.628906 337.878906 C 659.59375 338.15625 659.589844 338.433594 659.617188 338.710938 C 659.644531 338.992188 659.703125 339.261719 659.792969 339.53125 C 659.878906 339.796875 659.996094 340.046875 660.136719 340.289062 C 660.28125 340.527344 660.449219 340.75 660.640625 340.953125 C 660.835938 341.15625 661.046875 341.335938 661.28125 341.492188 L 671.394531 348.253906 L 674.699219 361.53125 L 674.699219 376.214844 L 671.820312 376.214844 L 668.972656 374.777344 C 669.320312 373.921875 669.625 373.050781 669.878906 372.164062 C 670.136719 371.277344 670.347656 370.378906 670.511719 369.46875 C 670.671875 368.558594 670.789062 367.640625 670.855469 366.71875 C 670.921875 365.796875 670.941406 364.875 670.910156 363.953125 C 670.882812 363.027344 670.804688 362.109375 670.679688 361.191406 C 670.554688 360.277344 670.378906 359.371094 670.160156 358.472656 C 669.9375 357.574219 669.671875 356.691406 669.359375 355.824219 C 669.046875 354.953125 668.6875 354.101562 668.285156 353.269531 C 667.882812 352.441406 667.441406 351.632812 666.953125 350.847656 C 666.46875 350.0625 665.941406 349.304688 665.375 348.574219 C 664.808594 347.84375 664.207031 347.148438 663.570312 346.480469 C 662.929688 345.816406 662.257812 345.183594 661.554688 344.589844 C 660.847656 343.992188 660.113281 343.4375 659.351562 342.917969 C 658.589844 342.402344 657.800781 341.925781 656.988281 341.488281 C 656.175781 341.054688 655.34375 340.664062 654.488281 340.316406 C 653.636719 339.96875 652.765625 339.667969 651.878906 339.410156 C 654.527344 334.929688 657.582031 330.746094 661.046875 326.863281 Z M 625.625 364.851562 C 625.625 363.742188 625.71875 362.640625 625.914062 361.546875 C 626.105469 360.457031 626.390625 359.386719 626.769531 358.347656 C 627.152344 357.304688 627.617188 356.300781 628.171875 355.34375 C 628.726562 354.382812 629.363281 353.480469 630.074219 352.628906 C 630.789062 351.78125 631.570312 351.003906 632.421875 350.292969 C 633.269531 349.582031 634.175781 348.953125 635.136719 348.402344 C 636.097656 347.851562 637.097656 347.390625 638.136719 347.015625 C 639.179688 346.640625 640.246094 346.359375 641.335938 346.175781 C 642.425781 345.988281 643.523438 345.898438 644.628906 345.90625 C 645.734375 345.914062 646.832031 346.019531 647.921875 346.21875 C 649.007812 346.421875 650.070312 346.714844 651.105469 347.105469 C 652.144531 347.492188 653.136719 347.96875 654.089844 348.53125 C 655.042969 349.097656 655.9375 349.738281 656.777344 350.460938 C 657.617188 351.183594 658.390625 351.972656 659.089844 352.832031 C 659.792969 353.6875 660.414062 354.601562 660.957031 355.570312 C 661.496094 356.535156 661.953125 357.542969 662.316406 358.59375 C 662.683594 359.640625 662.953125 360.710938 663.128906 361.804688 C 663.308594 362.902344 663.390625 364.003906 663.375 365.113281 C 663.355469 366.222656 663.246094 367.324219 663.035156 368.414062 C 662.828125 369.503906 662.527344 370.566406 662.132812 371.601562 C 661.738281 372.640625 661.257812 373.632812 660.6875 374.585938 C 660.117188 375.535156 659.472656 376.429688 658.746094 377.269531 C 658.019531 378.105469 657.226562 378.875 656.367188 379.570312 C 655.507812 380.269531 654.59375 380.886719 653.625 381.421875 C 652.226562 382.183594 650.753906 382.757812 649.214844 383.148438 C 647.671875 383.542969 646.105469 383.738281 644.515625 383.738281 C 642.925781 383.738281 641.359375 383.542969 639.816406 383.148438 C 638.273438 382.757812 636.804688 382.183594 635.40625 381.421875 C 633.925781 380.605469 632.582031 379.609375 631.367188 378.429688 C 630.15625 377.253906 629.121094 375.933594 628.257812 374.476562 C 627.398438 373.019531 626.746094 371.476562 626.296875 369.84375 C 625.851562 368.210938 625.628906 366.546875 625.625 364.851562 Z M 651.5 390.417969 C 651.21875 391.117188 650.839844 391.761719 650.367188 392.347656 C 649.890625 392.933594 649.34375 393.4375 648.71875 393.859375 C 648.097656 394.28125 647.425781 394.601562 646.707031 394.820312 C 645.988281 395.042969 645.25 395.152344 644.5 395.152344 C 643.75 395.152344 643.011719 395.042969 642.292969 394.820312 C 641.574219 394.601562 640.902344 394.28125 640.28125 393.859375 C 639.65625 393.4375 639.109375 392.933594 638.632812 392.347656 C 638.160156 391.761719 637.78125 391.117188 637.5 390.417969 C 639.792969 391.042969 642.125 391.355469 644.5 391.355469 C 646.875 391.355469 649.207031 391.042969 651.5 390.417969 Z M 614.300781 451.964844 L 614.300781 406.515625 C 614.300781 405.519531 614.398438 404.535156 614.589844 403.558594 C 614.785156 402.582031 615.070312 401.636719 615.449219 400.71875 C 615.828125 399.796875 616.292969 398.925781 616.84375 398.097656 C 617.394531 397.269531 618.023438 396.503906 618.722656 395.800781 C 619.421875 395.097656 620.1875 394.472656 621.011719 393.917969 C 621.835938 393.367188 622.707031 392.898438 623.621094 392.519531 C 624.539062 392.136719 625.480469 391.851562 626.453125 391.65625 C 627.425781 391.460938 628.410156 391.363281 629.398438 391.363281 L 629.9375 391.363281 C 630.140625 392.171875 630.410156 392.957031 630.742188 393.71875 C 631.078125 394.480469 631.472656 395.207031 631.925781 395.902344 C 632.378906 396.601562 632.890625 397.253906 633.449219 397.867188 C 634.011719 398.476562 634.621094 399.039062 635.277344 399.550781 C 635.929688 400.0625 636.625 400.515625 637.351562 400.910156 C 638.082031 401.304688 638.839844 401.636719 639.625 401.910156 C 640.410156 402.179688 641.210938 402.382812 642.027344 402.519531 C 642.847656 402.65625 643.671875 402.722656 644.5 402.722656 C 645.328125 402.722656 646.152344 402.65625 646.972656 402.519531 C 647.789062 402.382812 648.589844 402.179688 649.375 401.910156 C 650.160156 401.636719 650.917969 401.304688 651.648438 400.910156 C 652.375 400.515625 653.070312 400.0625 653.722656 399.550781 C 654.378906 399.039062 654.988281 398.476562 655.550781 397.867188 C 656.109375 397.253906 656.621094 396.601562 657.074219 395.902344 C 657.527344 395.207031 657.921875 394.480469 658.257812 393.71875 C 658.589844 392.957031 658.859375 392.171875 659.0625 391.363281 L 659.601562 391.363281 C 660.589844 391.363281 661.574219 391.460938 662.546875 391.65625 C 663.519531 391.851562 664.460938 392.136719 665.378906 392.519531 C 666.292969 392.898438 667.164062 393.367188 667.988281 393.917969 C 668.8125 394.472656 669.578125 395.097656 670.277344 395.800781 C 670.976562 396.503906 671.605469 397.269531 672.15625 398.097656 C 672.707031 398.925781 673.171875 399.796875 673.550781 400.71875 C 673.929688 401.636719 674.214844 402.582031 674.410156 403.558594 C 674.601562 404.535156 674.699219 405.519531 674.699219 406.515625 L 674.699219 434.59375 C 673.464844 436.640625 672.527344 438.820312 671.886719 441.125 C 671.246094 443.433594 670.925781 445.785156 670.925781 448.179688 L 670.925781 451.964844 Z M 761.523438 512.566406 L 750.199219 512.566406 L 750.199219 463.328125 L 742.648438 463.328125 L 742.648438 512.566406 L 697.351562 512.566406 L 697.351562 463.328125 L 689.800781 463.328125 L 689.800781 512.566406 L 678.476562 512.566406 L 678.476562 448.179688 C 678.488281 444.601562 679.441406 441.300781 681.335938 438.269531 L 717.695312 466.328125 C 718.039062 466.589844 718.410156 466.789062 718.816406 466.921875 C 719.226562 467.058594 719.644531 467.121094 720.074219 467.113281 C 720.5 467.105469 720.917969 467.027344 721.320312 466.875 C 721.71875 466.726562 722.085938 466.511719 722.414062 466.238281 L 757.636719 436.796875 C 758.890625 438.425781 759.851562 440.21875 760.515625 442.164062 C 761.179688 444.113281 761.519531 446.117188 761.523438 448.179688 Z M 825.699219 451.964844 L 769.074219 451.964844 L 769.074219 448.179688 C 769.074219 445.785156 768.753906 443.433594 768.113281 441.125 C 767.472656 438.820312 766.535156 436.640625 765.300781 434.59375 L 765.300781 406.515625 C 765.300781 405.519531 765.398438 404.535156 765.589844 403.558594 C 765.785156 402.582031 766.070312 401.636719 766.449219 400.71875 C 766.828125 399.796875 767.292969 398.925781 767.84375 398.097656 C 768.394531 397.269531 769.023438 396.503906 769.722656 395.800781 C 770.421875 395.097656 771.1875 394.472656 772.011719 393.917969 C 772.835938 393.367188 773.707031 392.898438 774.621094 392.519531 C 775.539062 392.136719 776.480469 391.851562 777.453125 391.65625 C 778.425781 391.460938 779.410156 391.363281 780.398438 391.363281 L 780.9375 391.363281 C 781.140625 392.171875 781.410156 392.957031 781.742188 393.71875 C 782.078125 394.480469 782.472656 395.207031 782.925781 395.902344 C 783.378906 396.601562 783.890625 397.253906 784.449219 397.867188 C 785.011719 398.476562 785.621094 399.039062 786.277344 399.550781 C 786.929688 400.0625 787.625 400.515625 788.351562 400.910156 C 789.082031 401.304688 789.839844 401.636719 790.625 401.910156 C 791.410156 402.179688 792.210938 402.382812 793.027344 402.519531 C 793.847656 402.65625 794.671875 402.722656 795.5 402.722656 C 796.328125 402.722656 797.152344 402.65625 797.972656 402.519531 C 798.789062 402.382812 799.589844 402.179688 800.375 401.910156 C 801.160156 401.636719 801.917969 401.304688 802.648438 400.910156 C 803.375 400.515625 804.070312 400.0625 804.722656 399.550781 C 805.378906 399.039062 805.988281 398.476562 806.550781 397.867188 C 807.109375 397.253906 807.621094 396.601562 808.074219 395.902344 C 808.527344 395.207031 808.921875 394.480469 809.257812 393.71875 C 809.589844 392.957031 809.859375 392.171875 810.0625 391.363281 L 810.601562 391.363281 C 811.589844 391.363281 812.574219 391.460938 813.546875 391.65625 C 814.519531 391.851562 815.460938 392.136719 816.378906 392.519531 C 817.292969 392.898438 818.164062 393.367188 818.988281 393.917969 C 819.8125 394.472656 820.578125 395.097656 821.277344 395.800781 C 821.976562 396.503906 822.605469 397.269531 823.15625 398.097656 C 823.707031 398.925781 824.171875 399.796875 824.550781 400.71875 C 824.929688 401.636719 825.214844 402.582031 825.410156 403.558594 C 825.601562 404.535156 825.699219 405.519531 825.699219 406.515625 Z M 825.699219 451.964844 " fill-opacity="1" fill-rule="nonzero"/></g><path fill="#000000" d="M 716.226562 478.476562 L 723.773438 478.476562 L 723.773438 486.054688 L 716.226562 486.054688 Z M 716.226562 478.476562 " fill-opacity="1" fill-rule="nonzero"/><path fill="#000000" d="M 716.226562 493.628906 L 723.773438 493.628906 L 723.773438 501.203125 L 716.226562 501.203125 Z M 716.226562 493.628906 " fill-opacity="1" fill-rule="nonzero"/><path fill="#000000" d="M 640.726562 414.089844 L 648.273438 414.089844 L 648.273438 421.664062 L 640.726562 421.664062 Z M 640.726562 414.089844 " fill-opacity="1" fill-rule="nonzero"/><path fill="#000000" d="M 640.726562 429.238281 L 648.273438 429.238281 L 648.273438 436.816406 L 640.726562 436.816406 Z M 640.726562 429.238281 " fill-opacity="1" fill-rule="nonzero"/><path fill="#000000" d="M 791.726562 414.089844 L 799.273438 414.089844 L 799.273438 421.664062 L 791.726562 421.664062 Z M 791.726562 414.089844 " fill-opacity="1" fill-rule="nonzero"/><path fill="#000000" d="M 791.726562 429.238281 L 799.273438 429.238281 L 799.273438 436.816406 L 791.726562 436.816406 Z M 791.726562 429.238281 " fill-opacity="1" fill-rule="nonzero"/></svg>