<svg width="51" height="51" viewBox="0 0 51 51" fill="none" xmlns="http://www.w3.org/2000/svg">
<g id="sociologia" clip-path="url(#clip0_415_2641)">
<g id="Clip path group">
<mask id="mask0_415_2641" style="mask-type:luminance" maskUnits="userSpaceOnUse" x="0" y="-1" width="51" height="52">
<g id="33febdbbed">
<path id="Vector" d="M0.5 -0.212646H50.5V50.0624H0.5V-0.212646Z" fill="white"/>
</g>
</mask>
<g mask="url(#mask0_415_2641)">
<g id="Group">
<path id="Vector_2" d="M46.1833 20.0353C46.3911 19.8385 46.5834 19.6271 46.7602 19.4019C46.937 19.1767 47.0965 18.9395 47.2379 18.6903C47.3802 18.441 47.5026 18.1832 47.6061 17.9167C47.7096 17.6495 47.7932 17.3761 47.8562 17.0968C47.92 16.8175 47.9622 16.5347 47.9838 16.2494C48.0053 15.9641 48.0062 15.6778 47.9855 15.3925C47.9648 15.1063 47.9234 14.8235 47.8613 14.5442C47.7984 14.2649 47.7165 13.9916 47.6139 13.7234C47.5112 13.4561 47.3888 13.1983 47.2482 12.9482C47.1077 12.699 46.949 12.4617 46.7731 12.2357C46.5972 12.0088 46.4058 11.7974 46.1988 11.5997C45.991 11.402 45.7711 11.2207 45.5366 11.0548C45.3029 10.8898 45.058 10.7428 44.8019 10.6139C44.5466 10.485 44.2828 10.375 44.0103 10.2847C43.7387 10.1945 43.4619 10.1249 43.1799 10.0759C42.897 10.0269 42.6133 9.99853 42.3271 9.99166C42.152 9.67022 41.9683 9.35394 41.776 9.04367C41.5829 8.73255 41.382 8.4283 41.1716 8.1292C40.9612 7.83011 40.743 7.53703 40.5154 7.24998C40.2886 6.96377 40.054 6.68359 39.8108 6.41028C39.5677 6.13697 39.3176 5.8714 39.0589 5.6127C38.8011 5.354 38.5355 5.10218 38.263 4.85895C37.9905 4.61487 37.7111 4.37938 37.4248 4.15162C37.1394 3.92472 36.8471 3.7047 36.5479 3.49413C36.2495 3.28356 35.9451 3.08073 35.6347 2.88735C35.3251 2.69397 35.0095 2.51005 34.6887 2.33472C34.368 2.15853 34.042 1.99265 33.7118 1.83623C33.3815 1.67895 33.0469 1.53198 32.7089 1.39447C32.37 1.25695 32.0277 1.12889 31.6819 1.01115C31.3352 0.893401 30.986 0.785109 30.6342 0.687131C30.2824 0.589152 29.9271 0.500628 29.5701 0.423276C29.2131 0.345925 28.8535 0.278027 28.4922 0.221303C28.1318 0.163719 27.7687 0.117308 27.4057 0.0803512C27.0418 0.044254 26.677 0.0184699 26.3114 0.00299976C25.9467 -0.0124707 25.5811 -0.0176272 25.2154 -0.0124705C24.8498 -0.00731366 24.4851 0.00901588 24.1203 0.0347998C23.7556 0.0614432 23.3925 0.0983998 23.0295 0.144811C22.6673 0.192081 22.306 0.249665 21.9473 0.317562C21.5877 0.38546 21.2307 0.463671 20.8763 0.551336C20.521 0.63986 20.1692 0.737839 19.82 0.846131C19.4708 0.954423 19.125 1.07303 18.7826 1.20109C18.4403 1.32915 18.1023 1.46752 17.7677 1.61449C17.4331 1.76232 17.1029 1.9196 16.7778 2.08547C16.4518 2.25221 16.1319 2.42754 15.8163 2.61232C15.5007 2.79711 15.1911 2.99049 14.8867 3.19332C14.5823 3.39615 14.284 3.60672 13.9917 3.82674C13.6993 4.0459 13.413 4.27366 13.1345 4.51001C12.8551 4.74637 12.5826 4.98959 12.3179 5.24141C10.8563 6.6346 9.64304 8.21773 8.67812 9.99166C8.39183 9.99853 8.10813 10.0269 7.8253 10.0759C7.54332 10.1249 7.26652 10.1945 6.99403 10.2847C6.72241 10.375 6.45854 10.4841 6.2033 10.613C5.94719 10.742 5.7023 10.8889 5.46775 11.0548C5.23406 11.2198 5.01331 11.4012 4.80636 11.5988C4.59854 11.7965 4.40711 12.008 4.2312 12.234C4.05529 12.46 3.89663 12.6981 3.75521 12.9473C3.61465 13.1966 3.49307 13.4544 3.38959 13.7217C3.28698 13.989 3.20419 14.2632 3.14211 14.5425C3.07916 14.8218 3.03777 15.1046 3.01707 15.3899C2.99552 15.6761 2.99638 15.9615 3.01707 16.2468C3.03863 16.533 3.08088 16.8149 3.14383 17.0951C3.20678 17.3744 3.29042 17.6477 3.39304 17.9142C3.49652 18.1815 3.61896 18.4402 3.76038 18.6885C3.9018 18.9378 4.06046 19.1759 4.23724 19.401C4.41401 19.6271 4.60544 19.8385 4.81326 20.0353C4.51663 20.0766 4.22689 20.1436 3.94233 20.2373C3.65863 20.3301 3.38442 20.4479 3.12141 20.5905C2.85841 20.7323 2.61006 20.8974 2.37638 21.0839C2.14269 21.2712 1.92798 21.4766 1.73137 21.7027C1.53477 21.9279 1.35972 22.1694 1.20623 22.4263C1.05274 22.6825 0.924255 22.9515 0.819054 23.2317C0.713852 23.5118 0.63452 23.7989 0.581057 24.0928C0.527594 24.3876 0.5 24.6841 0.5 24.9832V35.8167C0.5 35.9268 0.521558 36.0333 0.563811 36.1356C0.606064 36.2379 0.665563 36.3273 0.744033 36.4055C0.822503 36.4837 0.912183 36.5438 1.0148 36.5868C1.11655 36.6289 1.22261 36.6496 1.33299 36.6496H14.6668V49.1496C14.6668 49.2604 14.6875 49.367 14.7298 49.4693C14.772 49.5707 14.8324 49.6609 14.9109 49.7392C14.9885 49.8174 15.079 49.8775 15.1808 49.9196C15.2834 49.9618 15.3895 49.9832 15.4998 49.9832H35.5002C35.6105 49.9832 35.7166 49.9618 35.8192 49.9196C35.921 49.8775 36.0115 49.8174 36.0891 49.7392C36.1676 49.6609 36.228 49.5707 36.2702 49.4693C36.3125 49.367 36.3332 49.2604 36.3332 49.1496V36.6496H49.667C49.7774 36.6496 49.8834 36.6289 49.9852 36.5868C50.0878 36.5438 50.1775 36.4837 50.256 36.4055C50.3344 36.3273 50.3939 36.2379 50.4362 36.1356C50.4784 36.0333 50.5 35.9268 50.5 35.8167V24.9832C50.5 24.6841 50.4724 24.3868 50.4189 24.0928C50.3655 23.798 50.2861 23.511 50.1809 23.2308C50.0757 22.9506 49.9464 22.6825 49.7929 22.4255C49.6394 22.1685 49.4644 21.927 49.2678 21.7018C49.0712 21.4758 48.8556 21.2695 48.6219 21.083C48.3882 20.8965 48.1399 20.7315 47.876 20.5897C47.613 20.447 47.3388 20.3293 47.0542 20.2364C46.7705 20.1436 46.4799 20.0766 46.1833 20.0353ZM33.8333 29.3699C33.3453 29.027 32.8167 28.7657 32.2476 28.5861C31.6793 28.4065 31.0964 28.3162 30.4997 28.3162H30.203C30.7523 27.8727 31.2292 27.3614 31.6345 26.7838C32.0397 26.2054 32.3571 25.5831 32.5873 24.9153L33.2444 25.572C33.4065 25.7353 33.6031 25.8161 33.8333 25.8161V29.3699ZM25.5 29.9827C26.3433 29.9819 27.1625 29.8409 27.9584 29.5607C27.9343 29.7051 27.8989 29.8469 27.8498 29.9853C27.8015 30.1237 27.7411 30.2569 27.6687 30.3841C27.5971 30.5121 27.5143 30.6325 27.4212 30.7451C27.3272 30.8585 27.2246 30.9625 27.1134 31.057C27.0013 31.1524 26.8823 31.2367 26.7555 31.3106C26.6288 31.3845 26.4968 31.4472 26.3597 31.4971C26.2218 31.5478 26.0812 31.5865 25.9363 31.6123C25.7923 31.6372 25.6466 31.6501 25.5 31.6501C25.3534 31.6501 25.2077 31.6372 25.0637 31.6123C24.9188 31.5865 24.7782 31.5478 24.6403 31.4971C24.5032 31.4472 24.3712 31.3845 24.2445 31.3106C24.1177 31.2367 23.9987 31.1524 23.8866 31.057C23.7754 30.9625 23.6728 30.8585 23.5788 30.7451C23.4857 30.6325 23.4029 30.5121 23.3313 30.3841C23.2589 30.2569 23.1985 30.1237 23.1502 29.9853C23.1011 29.8469 23.0648 29.7051 23.0416 29.5607C23.8375 29.8409 24.6567 29.9819 25.5 29.9827ZM31.3335 22.4831C31.3335 22.6739 31.324 22.8647 31.305 23.0546C31.2861 23.2454 31.2585 23.4336 31.2214 23.621C31.1843 23.8084 31.1378 23.994 31.0826 24.1762C31.0265 24.3593 30.9627 24.5389 30.8894 24.7151C30.8161 24.8921 30.7342 25.064 30.6445 25.2333C30.5548 25.4018 30.4565 25.5651 30.3505 25.7241C30.2444 25.8831 30.1306 26.0361 30.009 26.1839C29.8883 26.3317 29.7598 26.4727 29.6244 26.6076C29.4899 26.7434 29.3485 26.8715 29.201 26.9927C29.0527 27.1138 28.9001 27.2273 28.7405 27.333C28.5819 27.4396 28.418 27.5376 28.2499 27.6278C28.0817 27.718 27.9084 27.7997 27.7325 27.8727C27.5557 27.9458 27.3764 28.0094 27.1936 28.0653C27.0108 28.1211 26.8254 28.1667 26.6382 28.2045C26.4503 28.2415 26.2623 28.2698 26.0717 28.2887C25.882 28.3068 25.6914 28.3162 25.5 28.3162C25.3086 28.3162 25.118 28.3068 24.9283 28.2887C24.7377 28.2698 24.5497 28.2415 24.3618 28.2045C24.1746 28.1667 23.9892 28.1211 23.8064 28.0653C23.6236 28.0094 23.4443 27.9458 23.2675 27.8727C23.0916 27.7997 22.9183 27.718 22.7501 27.6278C22.582 27.5376 22.4181 27.4396 22.2595 27.333C22.0999 27.2273 21.9473 27.1138 21.799 26.9927C21.6515 26.8715 21.5101 26.7434 21.3756 26.6076C21.2402 26.4727 21.1117 26.3317 20.991 26.1839C20.8694 26.0361 20.7556 25.8831 20.6495 25.7241C20.5435 25.5651 20.4452 25.4018 20.3555 25.2333C20.2658 25.064 20.1839 24.8921 20.1106 24.7151C20.0373 24.5389 19.9735 24.3593 19.9174 24.1762C19.8622 23.994 19.8157 23.8084 19.7786 23.621C19.7415 23.4336 19.7131 23.2454 19.695 23.0546C19.676 22.8647 19.6665 22.6739 19.6665 22.4831C19.6665 22.2923 19.676 22.1015 19.695 21.9115C19.7131 21.7216 19.7415 21.5325 19.7786 21.3451C19.8157 21.1578 19.8622 20.973 19.9174 20.7899C19.9735 20.6069 20.0373 20.4272 20.1106 20.251C20.1839 20.074 20.2658 19.9021 20.3555 19.7336C20.4452 19.5643 20.5435 19.401 20.6495 19.242C20.7556 19.083 20.8694 18.93 20.991 18.7822C21.1117 18.6344 21.2402 18.4934 21.3756 18.3585C21.5101 18.2236 21.6515 18.0947 21.799 17.9735C21.9473 17.8523 22.0999 17.7388 22.2595 17.6331C22.4181 17.5266 22.582 17.4286 22.7501 17.3383C22.9183 17.2481 23.0916 17.1664 23.2675 17.0934C23.4443 17.0203 23.6236 16.9567 23.8064 16.9009C23.9892 16.845 24.1746 16.7994 24.3618 16.7616C24.5497 16.7247 24.7377 16.6963 24.9283 16.6774C25.118 16.6594 25.3086 16.6499 25.5 16.6499C25.6906 16.6499 25.8811 16.6594 26.0717 16.6783C26.2614 16.6972 26.4503 16.7255 26.6374 16.7625C26.8245 16.8003 27.0099 16.8467 27.1927 16.9026C27.3755 16.9576 27.5549 17.022 27.7317 17.0951C27.9076 17.169 28.08 17.2507 28.2482 17.34C28.4172 17.4303 28.5802 17.5283 28.7388 17.6348C28.8984 17.7414 29.051 17.8549 29.1984 17.976C29.3468 18.0972 29.4882 18.2253 29.6227 18.3602C29.7581 18.4952 29.8857 18.637 30.0073 18.7839C30.128 18.9318 30.2418 19.0848 30.3479 19.2438C30.454 19.4028 30.5523 19.5661 30.6428 19.7345C30.7325 19.903 30.8144 20.0757 30.8877 20.2519C30.961 20.4281 31.0248 20.6077 31.0809 20.7908C31.136 20.973 31.1826 21.1586 31.2205 21.3451C31.2576 21.5325 31.2861 21.7216 31.305 21.9115C31.3232 22.1015 31.3335 22.2923 31.3335 22.4831ZM21.417 29.9827C21.4644 30.2165 21.5308 30.4451 21.6179 30.6669C21.7041 30.8895 21.8093 31.1026 21.9326 31.3071C22.0559 31.5108 22.1956 31.7034 22.3517 31.883C22.5078 32.0635 22.6785 32.2294 22.8631 32.3798C23.0476 32.531 23.2442 32.6651 23.452 32.7828C23.659 32.8997 23.8754 32.9986 24.1005 33.0785C24.3247 33.1584 24.5549 33.2194 24.7895 33.2598C25.0249 33.3002 25.2611 33.3209 25.5 33.3209C25.7389 33.3209 25.9751 33.3002 26.2105 33.2598C26.4451 33.2194 26.6753 33.1584 26.8995 33.0785C27.1246 32.9986 27.341 32.8997 27.548 32.7828C27.7558 32.6651 27.9524 32.531 28.1369 32.3798C28.3215 32.2294 28.4922 32.0635 28.6483 31.883C28.8044 31.7034 28.9441 31.5108 29.0674 31.3071C29.1907 31.1026 29.2959 30.8895 29.3821 30.6669C29.4692 30.4451 29.5356 30.2165 29.583 29.9827H30.4997C31.2274 29.9879 31.9061 30.1727 32.5356 30.5362L25.4793 36.4158L18.1092 30.7494C18.4584 30.501 18.837 30.311 19.2448 30.1804C19.6536 30.0498 20.0718 29.9836 20.5003 29.9827H21.417ZM46.3333 15.8162C46.3333 15.9529 46.3264 16.0887 46.3135 16.2245C46.2997 16.3603 46.2799 16.4952 46.2531 16.6293C46.2264 16.7633 46.1936 16.8957 46.154 17.0255C46.1143 17.1561 46.0686 17.285 46.016 17.4105C45.9643 17.5369 45.9056 17.6598 45.841 17.781C45.7771 17.9013 45.7073 18.0182 45.6314 18.1316C45.5555 18.2451 45.4745 18.3542 45.3874 18.4599C45.3012 18.5648 45.2097 18.6662 45.1132 18.7625C45.0166 18.8596 44.9157 18.9507 44.8096 19.0375C44.7044 19.1234 44.5949 19.2051 44.482 19.2807C44.3681 19.3563 44.2509 19.4268 44.131 19.4913C44.0103 19.5557 43.887 19.6133 43.7611 19.6657C43.6352 19.7182 43.5067 19.7637 43.3765 19.8033C43.2454 19.8437 43.1135 19.8763 42.9798 19.903C42.8453 19.9296 42.7108 19.9494 42.5754 19.9631C42.4392 19.976 42.3029 19.9829 42.1667 19.9829C42.0304 19.9829 41.8942 19.976 41.7579 19.9631C41.6226 19.9494 41.488 19.9296 41.3535 19.903C41.2199 19.8763 41.0879 19.8437 40.9569 19.8033C40.8266 19.7637 40.6982 19.7182 40.5723 19.6657C40.4464 19.6133 40.3231 19.5557 40.2023 19.4913C40.0825 19.4268 39.9652 19.3563 39.8514 19.2807C39.7384 19.2051 39.6289 19.1234 39.5237 19.0375C39.4176 18.9507 39.3167 18.8596 39.2202 18.7625C39.1236 18.6662 39.0322 18.5648 38.9459 18.4599C38.8589 18.3542 38.7778 18.2451 38.7019 18.1316C38.626 18.0182 38.5562 17.9013 38.4924 17.781C38.4277 17.6598 38.3691 17.5369 38.3173 17.4105C38.2647 17.285 38.219 17.1561 38.1794 17.0255C38.1397 16.8957 38.1069 16.7633 38.0802 16.6293C38.0535 16.4952 38.0336 16.3603 38.0198 16.2245C38.0069 16.0887 38 15.9529 38 15.8162C38 15.6796 38.0069 15.5438 38.0198 15.408C38.0336 15.2722 38.0535 15.1372 38.0802 15.0032C38.1069 14.87 38.1397 14.7376 38.1794 14.607C38.219 14.4763 38.2647 14.3483 38.3173 14.2219C38.3691 14.0956 38.4277 13.9727 38.4924 13.8524C38.5562 13.732 38.626 13.6151 38.7019 13.5017C38.7778 13.3882 38.8589 13.2782 38.9459 13.1734C39.0322 13.0677 39.1236 12.9663 39.2202 12.87C39.3167 12.7737 39.4176 12.6818 39.5237 12.5958C39.6289 12.509 39.7384 12.4274 39.8514 12.3517C39.9652 12.2761 40.0825 12.2056 40.2023 12.142C40.3231 12.0776 40.4464 12.0191 40.5723 11.9667C40.6982 11.9143 40.8266 11.8687 40.9569 11.8292C41.0879 11.7896 41.2199 11.7561 41.3535 11.7295C41.488 11.7028 41.6226 11.6831 41.7579 11.6693C41.8942 11.6564 42.0304 11.6496 42.1667 11.6496C42.3029 11.6496 42.4392 11.6564 42.5745 11.6702C42.7108 11.6839 42.8453 11.7037 42.979 11.7303C43.1126 11.757 43.2454 11.7905 43.3756 11.83C43.5058 11.8696 43.6343 11.916 43.7602 11.9684C43.8861 12.0208 44.0094 12.0784 44.1301 12.1429C44.25 12.2073 44.3673 12.2778 44.4802 12.3535C44.5941 12.4291 44.7036 12.5107 44.8088 12.5967C44.914 12.6835 45.0149 12.7754 45.1114 12.8717C45.208 12.968 45.2994 13.0685 45.3857 13.1742C45.4728 13.28 45.5538 13.3891 45.6297 13.5026C45.7056 13.616 45.7754 13.7329 45.8401 13.8532C45.9039 13.9735 45.9625 14.0964 46.0151 14.2228C46.0669 14.3483 46.1134 14.4772 46.1531 14.607C46.1928 14.7376 46.2255 14.87 46.2523 15.004C46.279 15.1372 46.2997 15.2722 46.3126 15.408C46.3264 15.5438 46.3333 15.6796 46.3333 15.8162ZM43.7111 21.4354C43.649 21.5901 43.5662 21.7328 43.4627 21.8617C43.3584 21.9915 43.2377 22.1032 43.0997 22.1969C42.9617 22.2905 42.8134 22.361 42.6547 22.41C42.4961 22.459 42.3331 22.4839 42.1667 22.4839C42.0002 22.4839 41.8373 22.459 41.6786 22.41C41.5199 22.361 41.3716 22.2905 41.2337 22.1969C41.0957 22.1032 40.975 21.9915 40.8706 21.8617C40.7671 21.7328 40.6844 21.5901 40.6223 21.4354C41.1276 21.5781 41.6424 21.6494 42.1667 21.6494C42.6909 21.6494 43.2057 21.5781 43.7111 21.4354ZM40.5438 10.216C40.4308 10.2486 40.3196 10.2847 40.2084 10.3234C40.098 10.3629 39.9885 10.4051 39.8798 10.4506C39.772 10.4962 39.6651 10.5451 39.5599 10.5976C39.4547 10.65 39.3512 10.705 39.2495 10.7635C39.1477 10.8228 39.0477 10.8838 38.9494 10.9482C38.8511 11.0127 38.7554 11.0806 38.6614 11.1511C38.5674 11.2215 38.4751 11.2946 38.3855 11.3702C38.2966 11.4459 38.2087 11.5249 38.1242 11.6057C38.0397 11.6874 37.9569 11.7707 37.8776 11.8575C37.7974 11.9435 37.7206 12.032 37.6456 12.1231C37.5714 12.2134 37.4999 12.307 37.4309 12.4016C37.3628 12.497 37.2964 12.5941 37.2334 12.6938C37.1705 12.7926 37.111 12.8941 37.0541 12.9963C36.9971 13.0995 36.9437 13.2043 36.8937 13.31C36.8428 13.4157 36.7954 13.5232 36.7514 13.6323C36.7083 13.7415 36.6669 13.8515 36.6298 13.9632C36.5927 14.0741 36.5591 14.1867 36.5289 14.3001C36.4979 14.4136 36.4711 14.5279 36.4478 14.6431C36.4237 14.7582 36.4039 14.8743 36.3875 14.9903C36.3711 15.1063 36.3582 15.2232 36.3487 15.3401C36.3392 15.457 36.3332 15.5747 36.3306 15.6916C36.3288 15.8093 36.3297 15.9271 36.3349 16.044C36.3392 16.1617 36.3478 16.2786 36.3599 16.3955C36.372 16.5124 36.3866 16.6284 36.4056 16.7444C36.4246 16.8605 36.447 16.9756 36.4729 17.0908C36.4987 17.2051 36.528 17.3186 36.5617 17.4312C36.5944 17.5446 36.6307 17.6563 36.6695 17.7663C36.7091 17.8772 36.7522 17.9864 36.7988 18.0947C36.8445 18.2021 36.8937 18.3087 36.9471 18.4135C36.9997 18.5192 37.0549 18.6224 37.1144 18.7238C37.173 18.8252 37.2351 18.9249 37.2998 19.0229C37.3645 19.1209 37.4326 19.2171 37.5033 19.3108L35.0345 20.9567C34.9112 21.0383 34.8172 21.1457 34.7508 21.2772L33.6014 23.5763L32.9736 22.948C32.9822 22.7933 32.9969 22.6395 32.9969 22.4831C32.9969 21.7035 32.8779 20.9429 32.639 20.2012L32.9805 18.478C33.0055 18.3559 33.0021 18.2347 32.9719 18.1136L32.138 14.7806C32.101 14.631 32.0277 14.5021 31.919 14.3938C31.8104 14.2847 31.6819 14.2116 31.5327 14.1747L28.199 13.341C28.1335 13.3246 28.0671 13.3169 27.9998 13.3161H23.0002V12.68L23.6219 11.4373L24.9869 10.7549L27.3014 9.98306H29.6667C29.7977 9.98306 29.9219 9.95384 30.0392 9.8954L31.706 9.06172C31.8716 8.97921 31.9966 8.85459 32.0794 8.68871L32.9124 7.02222C32.9788 6.88814 33.0072 6.74719 32.9978 6.5985C32.9891 6.44982 32.9426 6.31316 32.8598 6.18854L31.5724 4.25561L32.6554 3.17183C33.4746 3.53882 34.261 3.96597 35.0147 4.45329C35.7675 4.94146 36.4789 5.48378 37.148 6.08197C37.8181 6.67929 38.4372 7.32475 39.0072 8.01747C39.5772 8.71106 40.0911 9.44418 40.5473 10.216H40.5438ZM30.9489 2.52208L29.9107 3.56031C29.8426 3.62821 29.7883 3.70642 29.7469 3.79322C29.7055 3.88003 29.6805 3.97199 29.671 4.06739C29.6615 4.16365 29.6684 4.25819 29.6917 4.35187C29.715 4.44555 29.7529 4.53236 29.8064 4.61229L31.205 6.70937L30.7118 7.69518L29.4701 8.31657H27.1668C27.0763 8.31657 26.9892 8.33032 26.903 8.35868L24.4031 9.19236C24.3661 9.20439 24.3298 9.21986 24.2945 9.23705L22.6277 10.0707C22.4612 10.1532 22.3371 10.2779 22.2543 10.4437L21.4204 12.1102C21.3627 12.228 21.3333 12.3517 21.3333 12.4832V14.1497C21.3333 14.2606 21.3549 14.3663 21.3971 14.4686C21.4394 14.5709 21.4989 14.6611 21.5774 14.7393C21.6558 14.8167 21.7455 14.8777 21.8481 14.9198C21.9499 14.9619 22.0559 14.9834 22.1663 14.9834H27.8972L30.6471 15.6701L31.111 17.5214C30.9394 17.328 30.7592 17.1432 30.5686 16.9688C30.3781 16.7934 30.1789 16.6284 29.9719 16.4746C29.7641 16.3199 29.5494 16.1763 29.3278 16.0448C29.1053 15.9125 28.8768 15.7922 28.6422 15.6839C28.4077 15.5756 28.168 15.4793 27.9231 15.3951C27.6791 15.3117 27.4307 15.2412 27.178 15.1828C26.9263 15.1252 26.6719 15.0805 26.4158 15.0487C26.1588 15.0169 25.9018 14.9989 25.6431 14.9937C25.3845 14.9886 25.1266 14.9972 24.8688 15.0186C24.611 15.0401 24.3557 15.0754 24.1013 15.1235C23.8478 15.1716 23.5969 15.2326 23.3494 15.3074C23.1011 15.3813 22.8579 15.4681 22.6199 15.567C22.381 15.6667 22.1482 15.7784 21.9206 15.9013C21.6938 16.0251 21.473 16.16 21.26 16.3061C21.047 16.4522 20.8418 16.6095 20.6452 16.7771C20.4477 16.9447 20.2606 17.1217 20.0821 17.3082C19.9028 17.4956 19.7346 17.6907 19.576 17.8953C19.4181 18.0998 19.2707 18.3121 19.1345 18.5313C18.9982 18.7513 18.8732 18.9773 18.7602 19.2094C18.6472 19.4423 18.5464 19.6795 18.4584 19.9227C18.3696 20.166 18.2937 20.4126 18.2316 20.6636C18.1687 20.9145 18.1187 21.1672 18.0824 21.4233C18.0454 21.6795 18.0221 21.9364 18.0126 22.1951C18.0022 22.453 18.0057 22.7117 18.0221 22.9695C18.0393 23.2274 18.0695 23.4835 18.1126 23.7387C18.1557 23.994 18.2126 24.2458 18.2816 24.4942C18.3506 24.7434 18.4334 24.9884 18.5274 25.229C18.6222 25.4697 18.7292 25.7043 18.8482 25.9338C18.9672 26.1633 19.0982 26.3859 19.2405 26.6025C19.3828 26.8182 19.5354 27.0262 19.6993 27.2264C19.8622 27.4267 20.0364 27.6175 20.2192 27.7997C20.4029 27.9819 20.5952 28.1538 20.797 28.3162H20.5003C19.9036 28.3162 19.3207 28.4065 18.7524 28.5861C18.1833 28.7657 17.6547 29.027 17.1667 29.3699V24.9832C17.1667 24.6841 17.1391 24.3876 17.0856 24.0928C17.0321 23.7989 16.9528 23.5118 16.8476 23.2317C16.7424 22.9515 16.6139 22.6825 16.4604 22.4263C16.3069 22.1694 16.1319 21.9279 15.9353 21.7027C15.7387 21.4766 15.524 21.2712 15.2903 21.0839C15.0566 20.8974 14.8083 20.7323 14.5453 20.5905C14.2823 20.4479 14.008 20.3301 13.7243 20.2373C13.4398 20.1436 13.15 20.0766 12.8534 20.0353C13.0483 19.8514 13.2302 19.6537 13.3975 19.444L14.2926 19.8944C14.4107 19.9537 14.5349 19.9829 14.6668 19.9829H16.3337C16.4441 19.9829 16.5501 19.9623 16.6519 19.9193C16.7545 19.8772 16.8442 19.817 16.9226 19.7388C17.0011 19.6606 17.0606 19.5703 17.1029 19.4689C17.1451 19.3667 17.1667 19.2601 17.1667 19.1501V14.9834C17.1667 14.9146 17.158 14.8468 17.1417 14.7806L16.3087 11.4476C16.2561 11.2387 16.1414 11.0754 15.9629 10.956L14.3081 9.85414L14.4228 9.73897C14.5297 9.63154 14.6022 9.5052 14.6401 9.35909C14.678 9.21298 14.6763 9.06688 14.6349 8.92163L13.8382 6.12408C14.4064 5.6127 15.0057 5.14086 15.6361 4.70855C16.2664 4.27624 16.9218 3.8869 17.603 3.54054C18.2851 3.19504 18.9861 2.89423 19.707 2.64069C20.4279 2.38629 21.1617 2.18087 21.9094 2.02359C22.6578 1.86631 23.4124 1.75802 24.1746 1.70044C24.9369 1.64199 25.6992 1.63426 26.4623 1.67637C27.2255 1.71848 27.9826 1.80959 28.7337 1.9514C29.4847 2.09321 30.2229 2.28315 30.9489 2.52208ZM12.8974 8.90616L12.411 9.39347C12.3671 9.4373 12.3291 9.48543 12.2964 9.537C12.2627 9.58943 12.236 9.64443 12.2153 9.70288C12.1946 9.76046 12.1808 9.81976 12.173 9.88165C12.1653 9.94267 12.1644 10.0037 12.1705 10.0647C12.1765 10.1266 12.1894 10.1859 12.2093 10.2452C12.2282 10.3036 12.2541 10.3586 12.2851 10.4119C12.3171 10.4644 12.3541 10.5133 12.3964 10.558C12.4395 10.6027 12.4861 10.6423 12.5378 10.6766L14.7703 12.1644L15.4998 15.0857V18.3164H14.8643L14.2357 18.0001C14.3124 17.8119 14.3797 17.6202 14.4357 17.4251C14.4927 17.23 14.5392 17.0324 14.5754 16.8321C14.6108 16.6319 14.6367 16.4299 14.6513 16.227C14.666 16.0242 14.6703 15.8214 14.6634 15.6185C14.6574 15.4149 14.6401 15.2129 14.6125 15.0109C14.5849 14.8098 14.5461 14.6104 14.4978 14.4127C14.4487 14.215 14.39 14.0208 14.3211 13.83C14.2521 13.6383 14.1727 13.451 14.0839 13.2679C13.9951 13.0857 13.8977 12.9078 13.7899 12.7351C13.6829 12.5623 13.5665 12.3956 13.4415 12.2348C13.3165 12.0741 13.1837 11.9211 13.0431 11.7742C12.9017 11.6281 12.7534 11.4888 12.5982 11.3582C12.4421 11.2267 12.28 11.1047 12.1118 10.9903C11.9437 10.8769 11.7695 10.772 11.5901 10.6758C11.4108 10.5804 11.2271 10.4944 11.0383 10.4179C10.8503 10.3415 10.658 10.2753 10.4622 10.2186C11.0469 9.23275 11.7212 8.31227 12.4861 7.45796L12.8974 8.90616ZM4.66667 15.8162C4.66667 15.5721 4.68736 15.3298 4.73048 15.0891C4.77273 14.8493 4.83568 14.6138 4.91932 14.3852C5.00383 14.1557 5.10644 13.9349 5.22889 13.7243C5.35134 13.5129 5.49189 13.3143 5.64883 13.127C5.80664 12.9405 5.9791 12.7694 6.16708 12.613C6.3542 12.4566 6.55426 12.3182 6.76638 12.197C6.97851 12.0758 7.19926 11.9744 7.42864 11.8919C7.65887 11.8094 7.89428 11.7475 8.13486 11.7071C8.37545 11.6659 8.61776 11.6461 8.86179 11.6478C9.10582 11.6496 9.34813 11.6728 9.58871 11.7166C9.82844 11.7613 10.063 11.8257 10.2915 11.9117C10.5209 11.9968 10.7399 12.1016 10.9503 12.2254C11.1607 12.35 11.3582 12.491 11.5436 12.65C11.729 12.809 11.8997 12.9826 12.054 13.1717C12.2093 13.3599 12.3464 13.561 12.4662 13.7741C12.5852 13.9864 12.6861 14.2082 12.7663 14.4394C12.8474 14.6697 12.9069 14.9052 12.9457 15.1458C12.9853 15.3874 13.0034 15.6297 13 15.8738C12.9957 16.1179 12.9715 16.3603 12.925 16.6001C12.8793 16.8398 12.8129 17.0736 12.7258 17.3014C12.6387 17.53 12.5326 17.7483 12.4067 17.958C12.2808 18.1668 12.1386 18.3637 11.9782 18.5485C11.8178 18.7324 11.6427 18.9017 11.453 19.0547C11.2633 19.2085 11.0615 19.3443 10.8477 19.4621C10.539 19.6297 10.2139 19.756 9.87414 19.8419C9.53353 19.9287 9.18774 19.9717 8.83678 19.9717C8.48582 19.9717 8.14004 19.9287 7.79943 19.8419C7.45882 19.756 7.13459 19.6297 6.82588 19.4621C6.49907 19.2824 6.20244 19.0633 5.93426 18.8037C5.66694 18.545 5.43843 18.2545 5.24786 17.9339C5.05815 17.6134 4.91415 17.2739 4.81498 16.9146C4.71668 16.5554 4.66753 16.1892 4.66667 15.8162ZM10.3786 21.4414C10.3165 21.5952 10.2329 21.7371 10.1285 21.866C10.0233 21.9949 9.90259 22.1058 9.76462 22.1986C9.62752 22.2914 9.4792 22.3619 9.32054 22.41C9.16187 22.459 8.9989 22.4831 8.83333 22.4831C8.66777 22.4831 8.50479 22.459 8.34613 22.41C8.18747 22.3619 8.03915 22.2914 7.90204 22.1986C7.76407 22.1058 7.64335 21.9949 7.53815 21.866C7.43381 21.7371 7.35017 21.5952 7.28808 21.4414C7.79425 21.5789 8.30905 21.6477 8.83333 21.6477C9.35762 21.6477 9.87241 21.5789 10.3786 21.4414ZM2.16684 34.9831V24.9832C2.16684 24.7641 2.1884 24.5475 2.23065 24.3326C2.27377 24.1178 2.33671 23.9098 2.42036 23.7078C2.504 23.505 2.60662 23.3133 2.7282 23.1311C2.84979 22.9489 2.98862 22.7804 3.14297 22.6257C3.29732 22.471 3.46634 22.3335 3.64828 22.2115C3.83023 22.0903 4.02252 21.9872 4.2243 21.9038C4.42695 21.8196 4.63476 21.7568 4.84948 21.7138C5.06419 21.6709 5.28149 21.6494 5.49966 21.6494H5.61865C5.66349 21.8273 5.72299 22 5.79629 22.1676C5.87045 22.3352 5.95754 22.4951 6.05757 22.6481C6.1576 22.8019 6.27056 22.9455 6.39387 23.0804C6.51804 23.2145 6.65256 23.3382 6.79743 23.4508C6.94143 23.5634 7.09492 23.6631 7.25531 23.7499C7.41656 23.8367 7.58385 23.9098 7.75717 23.9699C7.9305 24.0292 8.10727 24.0739 8.28749 24.104C8.46858 24.1341 8.65052 24.1487 8.83333 24.1487C9.01614 24.1487 9.19809 24.1341 9.37917 24.104C9.5594 24.0739 9.73617 24.0292 9.90949 23.9699C10.0828 23.9098 10.2501 23.8367 10.4114 23.7499C10.5717 23.6631 10.7252 23.5634 10.8692 23.4508C11.0141 23.3382 11.1486 23.2145 11.2728 23.0804C11.3961 22.9455 11.5091 22.8019 11.6091 22.6481C11.7091 22.4951 11.7962 22.3352 11.8704 22.1676C11.9437 22 12.0032 21.8273 12.048 21.6494H12.167C12.3852 21.6494 12.6025 21.6709 12.8172 21.7138C13.0319 21.7568 13.2397 21.8196 13.4424 21.9038C13.6441 21.9872 13.8364 22.0903 14.0184 22.2115C14.2003 22.3335 14.3693 22.471 14.5237 22.6257C14.678 22.7804 14.8169 22.9489 14.9385 23.1311C15.0601 23.3133 15.1627 23.505 15.2463 23.7078C15.33 23.9098 15.3929 24.1178 15.436 24.3326C15.4783 24.5475 15.4998 24.7641 15.4998 24.9832V31.161C15.2273 31.6114 15.0204 32.091 14.879 32.5981C14.7375 33.106 14.6668 33.6234 14.6668 34.1502V34.9831H2.16684ZM34.6663 48.3167H32.1665V37.4832H30.4997V48.3167H20.5003V37.4832H18.8335V48.3167H16.3337V34.1502C16.3363 33.363 16.5467 32.6367 16.9649 31.9698L24.9912 38.1433C25.0671 38.2009 25.149 38.2447 25.2387 38.2739C25.3293 38.304 25.4215 38.3178 25.5164 38.3161C25.6104 38.3143 25.7026 38.2971 25.7915 38.2636C25.8794 38.231 25.9605 38.1837 26.0329 38.1235L33.8083 31.6458C34.0851 32.0042 34.2973 32.3987 34.4438 32.8267C34.5904 33.2555 34.6655 33.6964 34.6663 34.1502V48.3167ZM48.8332 34.9831H36.3332V34.1502C36.3332 33.6234 36.2625 33.106 36.121 32.5981C35.9796 32.091 35.7727 31.6114 35.5002 31.161V24.9832C35.5002 24.7641 35.5217 24.5475 35.564 24.3326C35.6071 24.1178 35.67 23.9098 35.7537 23.7078C35.8373 23.505 35.9399 23.3133 36.0615 23.1311C36.1831 22.9489 36.322 22.7804 36.4763 22.6257C36.6307 22.471 36.7997 22.3335 36.9816 22.2115C37.1636 22.0903 37.3559 21.9872 37.5576 21.9038C37.7603 21.8196 37.9681 21.7568 38.1828 21.7138C38.3975 21.6709 38.6148 21.6494 38.833 21.6494H38.952C38.9968 21.8273 39.0563 22 39.1296 22.1676C39.2038 22.3352 39.2909 22.4951 39.3909 22.6481C39.4909 22.8019 39.6039 22.9455 39.7272 23.0804C39.8514 23.2145 39.9859 23.3382 40.1308 23.4508C40.2748 23.5634 40.4283 23.6631 40.5886 23.7499C40.7499 23.8367 40.9172 23.9098 41.0905 23.9699C41.2638 24.0292 41.4406 24.0739 41.6208 24.104C41.8019 24.1341 41.9839 24.1487 42.1667 24.1487C42.3495 24.1487 42.5314 24.1341 42.7125 24.104C42.8927 24.0739 43.0695 24.0292 43.2428 23.9699C43.4161 23.9098 43.5834 23.8367 43.7447 23.7499C43.9051 23.6631 44.0586 23.5634 44.2026 23.4508C44.3474 23.3382 44.482 23.2145 44.6061 23.0804C44.7294 22.9455 44.8424 22.8019 44.9424 22.6481C45.0425 22.4951 45.1296 22.3352 45.2037 22.1676C45.277 22 45.3365 21.8273 45.3813 21.6494H45.5003C45.7185 21.6494 45.9358 21.6709 46.1505 21.7138C46.3652 21.7568 46.5731 21.8196 46.7757 21.9038C46.9775 21.9872 47.1698 22.0903 47.3517 22.2115C47.5337 22.3335 47.7027 22.471 47.857 22.6257C48.0114 22.7804 48.1502 22.9489 48.2718 23.1311C48.3934 23.3133 48.496 23.505 48.5796 23.7078C48.6633 23.9098 48.7262 24.1178 48.7694 24.3326C48.8116 24.5475 48.8332 24.7641 48.8332 24.9832V34.9831Z" fill="black"/>
</g>
</g>
</g>
<path id="Vector_3" d="M24.668 40.8164H26.3339V42.4838H24.668V40.8164Z" fill="black"/>
<path id="Vector_4" d="M24.668 44.1501H26.3339V45.8166H24.668V44.1501Z" fill="black"/>
<path id="Vector_5" d="M8 26.6499H9.66598V28.3164H8V26.6499Z" fill="black"/>
<path id="Vector_6" d="M8 29.9829H9.66598V31.6503H8V29.9829Z" fill="black"/>
<path id="Vector_7" d="M41.334 26.6499H43V28.3164H41.334V26.6499Z" fill="black"/>
<path id="Vector_8" d="M41.334 29.9829H43V31.6503H41.334V29.9829Z" fill="black"/>
</g>
<defs>
<clipPath id="clip0_415_2641">
<rect width="50" height="50" fill="white" transform="translate(0.5 0.0625)"/>
</clipPath>
</defs>
</svg>
