<svg xmlns="http://www.w3.org/2000/svg" width="141" height="71" viewBox="0 0 141 71" fill="none">
  <g clip-path="url(#clip0_613_737)">
    <mask id="mask0_613_737" style="mask-type:luminance" maskUnits="userSpaceOnUse" x="20" y="-1" width="101" height="72">
      <path d="M120.908 -0.149414H20.9082V70.6298H120.908V-0.149414Z" fill="white"/>
    </mask>
    <g mask="url(#mask0_613_737)">
      <mask id="mask1_613_737" style="mask-type:luminance" maskUnits="userSpaceOnUse" x="21" y="0" width="100" height="71">
        <path d="M21.2705 0.0332031H120.545V70.3178H21.2705V0.0332031Z" fill="white"/>
      </mask>
      <g mask="url(#mask1_613_737)">
        <path d="M71.6917 18.2557C65.8906 12.3735 59.8055 8.7894 53.0939 10.5827C37.4663 14.7604 30.222 64.4661 50.4533 63.383C60.6121 62.8402 68.3409 53.1685 78.35 35.1185C81.5943 40.0521 84.7269 45.0566 87.6667 50.1728C79.111 61.7724 67.6789 69.5975 56.3127 70.2038C45.989 70.7567 37.3674 68.3166 31.3736 63.1903C10.6933 45.5031 25.2377 9.62138 45.71 2.03463C59.0141 -2.89384 71.8667 3.14563 81.1833 13.0279C89.1075 21.4365 94.3073 32.0899 99.5782 42.2436C105.052 52.7829 109.732 61.473 114.176 46.4746L120.373 49.1886C121.243 60.8034 111.642 71.122 102.635 65.8485C98.6194 63.4972 97.166 58.7057 93.7696 51.5831C89.2013 42.0052 80.7775 27.4658 71.6917 18.2557ZM88.9882 15.3184C91.436 10.2175 93.6935 5.04295 95.7557 0.0891113H112.073L111.916 0.489882C108.403 9.3525 104.093 20.2241 98.9187 30.7659C95.9256 25.429 92.6992 20.2418 88.9882 15.3184Z" fill="white" fill-opacity="0.2"/>
      </g>
    </g>
    <path d="M5.94929 42.7984C6.17569 42.7984 6.40209 42.7984 6.62535 42.7984C8.15984 42.7984 9.69118 42.7984 11.2257 42.7984C11.4269 42.7984 11.6062 42.7984 11.7885 42.7764C11.9237 42.7764 12.059 42.7072 12.1722 42.6412C12.2382 42.572 12.2822 42.484 12.3074 42.3928C12.3294 42.2136 12.3294 42.0312 12.3514 41.852C12.3734 41.7388 12.3734 41.6256 12.3954 41.5155C12.4426 41.3331 12.4646 41.1539 12.4646 40.9747C12.4866 40.6791 12.4866 40.3866 12.5306 40.0942C12.6218 39.7326 12.6218 39.3521 12.5998 38.9905C12.5998 38.8773 12.4646 38.7861 12.3514 38.8333C12.2602 38.8333 12.1942 38.8993 12.147 38.9905C12.125 39.0565 12.103 39.1257 12.103 39.1918C12.059 39.3741 12.0369 39.5534 11.9678 39.7106C11.9237 39.893 11.8546 40.0722 11.7665 40.2294C11.6973 40.3866 11.6062 40.5439 11.5401 40.7262C11.4709 40.8615 11.3829 40.9967 11.2917 41.1319C11.2005 41.2451 11.1125 41.3331 10.9993 41.4243C10.9081 41.4903 10.82 41.5595 10.7068 41.6035C10.5716 41.6947 10.4364 41.7608 10.2792 41.8079C9.91758 41.896 9.57798 41.9872 9.19436 42.0092C8.87992 42.0092 8.56547 42.0092 8.24788 42.0784C8.13783 42.1004 8.00262 42.1004 7.88942 42.1004C7.05614 42.1004 6.1977 42.1004 5.36443 42.1004C5.29839 42.1004 5.22921 42.1004 5.16318 42.1004C5.11601 42.0784 5.00281 42.0092 5.00281 41.9652C4.9808 41.9211 4.95879 41.874 4.95879 41.8299C4.95879 41.5595 4.93678 41.2891 4.93678 41.0187C4.93678 40.0502 4.93678 39.0817 4.93678 38.1352C4.93678 37.6604 4.93678 37.2108 5.00281 36.7579C5.02797 36.6447 5.02797 36.5347 5.02797 36.4215C5.04998 36.1039 5.04998 35.7674 5.07199 35.453C5.07199 35.3838 5.07199 35.3178 5.094 35.2486C5.094 35.2046 5.18519 35.1134 5.22921 35.1134C5.29839 35.0914 5.40845 35.0694 5.49964 35.0694C6.21971 35.0914 6.96495 35.0914 7.68503 35.0914C7.97746 35.0914 8.22587 35.1574 8.47428 35.2926C8.51831 35.3398 8.58748 35.3618 8.65352 35.4058C8.67867 35.4058 8.67867 35.4278 8.70068 35.453C8.78873 35.497 8.85791 35.5631 8.87992 35.6542C8.99312 35.9247 9.08431 36.2171 9.15034 36.4875C9.19436 36.6447 9.24153 36.8051 9.30756 36.9623C9.32957 36.9844 9.35473 37.0284 9.37674 37.0755C9.42076 37.1416 9.46478 37.1636 9.55597 37.1636C9.62515 37.1636 9.71319 37.0755 9.73521 36.9844C9.73521 36.9152 9.73521 36.8491 9.73521 36.78C9.73521 36.6007 9.71319 36.4215 9.66917 36.2391C9.62515 36.0599 9.59999 35.8806 9.59999 35.6983C9.57798 35.3618 9.57798 35.0222 9.59999 34.6637C9.62515 34.5285 9.59999 34.3933 9.64716 34.2581C9.71319 33.8305 9.71319 33.3997 9.76036 32.972C9.78237 32.7928 9.76036 32.6356 9.76036 32.4784C9.76036 32.4312 9.76036 32.3872 9.73521 32.3431C9.71319 32.318 9.66917 32.274 9.64716 32.252C9.62515 32.2299 9.48994 32.274 9.46478 32.296C9.42076 32.3652 9.37674 32.4092 9.35473 32.4784C9.28555 32.6796 9.24153 32.884 9.21951 33.0852C9.17235 33.2896 9.10632 33.4689 9.03714 33.6701C8.99312 33.8305 8.87992 33.9405 8.74471 34.0317C8.49629 34.1889 8.24788 34.2801 7.97746 34.2801C7.8674 34.2801 7.7542 34.3021 7.641 34.3021C6.87376 34.3021 6.13167 34.3021 5.36443 34.3021C5.34241 34.3021 5.3204 34.3021 5.29839 34.3021C5.2072 34.2801 5.11601 34.1889 5.11601 34.1229C5.11601 33.9185 5.11601 33.6953 5.11601 33.4909C5.11601 33.3116 5.094 33.1293 5.11601 32.95C5.16318 32.7236 5.16318 32.5004 5.16318 32.274C5.16318 31.7771 5.16318 31.3055 5.16318 30.8307C5.16318 30.447 5.18519 30.0886 5.11601 29.727C5.094 29.6609 5.094 29.5918 5.094 29.5257C5.094 29.0729 5.07199 28.6013 5.07199 28.1485C5.04998 28.0824 5.07199 28.0132 5.07199 27.9472C5.07199 27.878 5.16318 27.768 5.25122 27.7428C5.34241 27.7208 5.4336 27.7208 5.52165 27.7208C6.38008 27.7208 7.25738 27.7208 8.11267 27.7208C8.40825 27.7208 8.67867 27.7208 8.94909 27.7208C9.03714 27.7208 9.12833 27.7208 9.21951 27.7428C9.42076 27.812 9.62515 27.812 9.8264 27.856C9.89557 27.878 9.96161 27.9032 10.0056 27.9472C10.0528 27.9692 10.0968 27.9912 10.1188 28.0132C10.5024 28.3528 10.82 28.7585 11.0905 29.1861C11.2005 29.3654 11.3137 29.5697 11.4269 29.771C11.4489 29.8182 11.4709 29.8622 11.4709 29.9062C11.5401 30.1106 11.6313 30.2898 11.6533 30.4942C11.6533 30.5602 11.6753 30.6294 11.6973 30.6955C11.6973 30.7426 11.7194 30.7866 11.7665 30.8087C11.7885 30.8307 11.8326 30.8527 11.8766 30.8527C11.9237 30.8778 12.0369 30.7866 12.0369 30.7426C12.0369 30.6955 12.059 30.6514 12.059 30.6074C12.059 30.2678 12.059 29.9314 12.0118 29.5918C11.9898 29.3654 11.9678 29.1201 11.9678 28.8937C11.9678 28.5541 11.9678 28.2176 11.9678 27.878C11.9458 27.6548 11.9458 27.4504 11.9017 27.2491C11.9017 27.18 11.7885 27.0919 11.7194 27.0668C11.6062 27.0448 11.4961 27.0448 11.3829 27.0448C9.12833 27.0227 6.89577 27.0227 4.64435 27.0007C4.48398 27.0007 4.32676 27.0007 4.16954 27.0227C3.8771 27.0448 3.56266 27.0448 3.26708 27.0448C3.10986 27.0448 2.95263 27.0668 2.79541 27.0919C2.34576 27.18 1.89296 27.158 1.42129 27.0919C1.08169 27.0448 0.745234 27.0448 0.405633 27.0668C0.339599 27.0668 0.248411 27.158 0.248411 27.2491C0.248411 27.2932 0.270422 27.3372 0.292433 27.3844C0.383622 27.4724 0.474811 27.5416 0.588011 27.5416C0.833278 27.5636 1.08169 27.6548 1.3301 27.6988C1.4433 27.7208 1.53449 27.79 1.62253 27.878C1.69171 27.9252 1.73573 28.0132 1.73573 28.1044C1.75774 28.2396 1.75774 28.3749 1.75774 28.5101C1.75774 29.4786 1.75774 30.447 1.75774 31.3935C1.77976 31.8463 1.77976 32.274 1.80491 32.7016C1.80491 32.8368 1.80491 32.972 1.82692 33.1072C1.87094 33.3336 1.87094 33.5821 1.87094 33.8053C1.87094 34.3933 1.87094 35.0002 1.89296 35.5882C1.91497 35.8806 1.89296 36.1731 1.87094 36.4655C1.80491 36.9152 1.80491 37.346 1.77976 37.7736C1.77976 38.066 1.77976 38.3805 1.75774 38.6761C1.75774 38.8113 1.75774 38.9465 1.73573 39.0817C1.64454 39.3741 1.6697 39.6666 1.6697 39.959C1.6697 40.2986 1.6697 40.613 1.6697 40.9275C1.6697 41.1539 1.64454 41.3803 1.62253 41.6035C1.60052 41.7859 1.50933 41.9211 1.35211 41.9872C1.26407 42.0563 1.15087 42.1004 1.03767 42.1444C0.880445 42.2136 0.698067 42.2356 0.518833 42.2576C0.361611 42.2796 0.204389 42.3488 0.0691774 42.4368C0.0220105 42.484 0 42.55 0 42.6192C0 42.6852 0.0691775 42.7544 0.113199 42.7764C0.204389 42.8204 0.292433 42.8204 0.383622 42.8204C1.62253 42.8204 2.86145 42.8456 4.1035 42.8456C4.68837 42.8456 5.29839 42.8676 5.88326 42.7984C5.90527 42.7984 5.92728 42.7984 5.94929 42.7984Z" fill="white"/>
    <path d="M15.9115 35.4752C15.9115 36.016 15.9115 36.5569 15.9115 37.1197C15.9115 37.865 15.9115 38.6291 15.9115 39.3743C15.9115 40.1384 15.8895 40.8836 15.8895 41.6509C15.8895 41.7169 15.8895 41.7861 15.8895 41.8521C15.8675 41.9433 15.8424 42.0313 15.7983 42.1005C15.7763 42.1666 15.7323 42.2357 15.6631 42.2357C15.3927 42.3269 15.1443 42.393 14.8519 42.393C14.7607 42.393 14.6726 42.415 14.5814 42.415C14.5374 42.437 14.4902 42.437 14.4462 42.4621C14.355 42.4841 14.289 42.5282 14.245 42.6194C14.1978 42.6854 14.2198 42.7766 14.267 42.7766C14.333 42.7986 14.4022 42.8206 14.4682 42.8206C14.943 42.8206 15.3927 42.8458 15.8424 42.8458C16.0027 42.8458 16.1599 42.8678 16.3172 42.8898C16.5436 42.9118 16.7448 42.9118 16.9492 42.9118C18.2541 42.9118 19.5402 42.9338 20.8483 42.9338C21.1187 42.9338 21.4112 42.9118 21.6816 42.8898C22.0652 42.8206 22.4457 42.8206 22.8293 42.7074C22.9645 42.6634 23.1469 42.6854 23.3041 42.6194C23.4614 42.5722 23.6406 42.5282 23.823 42.4841C23.933 42.437 24.0462 42.415 24.1374 42.3489C24.3638 42.2577 24.543 42.1445 24.7694 42.0565C24.9707 41.9653 25.1971 41.8961 25.3983 41.8081C26.2096 41.4245 26.9108 40.8616 27.5397 40.2076C27.5869 40.1384 27.6529 40.0724 27.6969 40.0032C27.7661 39.9151 27.8321 39.8019 27.8793 39.7107C28.0585 39.4403 28.1937 39.1479 28.351 38.8775C28.4422 38.6511 28.4862 38.4278 28.5774 38.2234C28.6906 37.931 28.7346 37.6165 28.8258 37.299C28.8478 37.1417 28.8478 36.9845 28.8698 36.8273C28.939 36.4877 28.983 36.1512 29.005 35.7896C29.005 35.6984 29.027 35.6104 29.049 35.5192C29.0962 35.34 29.0962 35.1576 29.0962 34.9784C29.0962 34.6419 29.0962 34.3023 29.0962 33.9658C29.0962 33.8967 29.0962 33.8055 29.0742 33.7615C28.983 33.469 29.005 33.1546 28.8918 32.8842C28.8698 32.815 28.8478 32.7489 28.8478 32.6798C28.8258 32.4314 28.7126 32.2081 28.6686 31.9597C28.5333 31.5289 28.373 31.1233 28.2378 30.7176C28.1277 30.4724 27.9925 30.2239 27.8321 29.9975C27.7221 29.8403 27.6089 29.6611 27.4957 29.4787C27.4517 29.4127 27.4045 29.3435 27.3385 29.2775C27.1812 29.1423 27.0209 29.007 26.8636 28.8718C26.5272 28.6014 26.1876 28.331 25.8511 28.0606C25.5587 27.8122 25.2411 27.6549 24.8826 27.5417C24.543 27.4285 24.1594 27.4065 23.823 27.2933C23.4614 27.2713 23.0997 27.1581 22.7413 27.0921C22.5589 27.0229 22.3797 27.0229 22.2004 27.0229C21.5464 26.9789 20.8703 27.0009 20.2163 27.0669C20.0811 27.0921 19.9459 27.1141 19.8107 27.1141C19.6534 27.1141 19.4962 27.1141 19.3138 27.1141C17.9397 27.1141 16.5436 27.1141 15.1443 27.1141C14.9871 27.1141 14.8298 27.1141 14.6506 27.1141C14.5594 27.1361 14.4902 27.1581 14.4022 27.2021C14.355 27.2493 14.333 27.2713 14.333 27.3153C14.289 27.4065 14.355 27.5197 14.4242 27.5417C14.4902 27.5417 14.5594 27.5637 14.6255 27.5637C14.8078 27.5858 14.9871 27.5858 15.1915 27.5858C15.3015 27.6078 15.3927 27.6329 15.5059 27.699C15.6411 27.7901 15.7543 27.9033 15.7763 28.0606C15.8203 28.309 15.8424 28.5542 15.8895 28.8027C15.9115 28.9159 15.9335 29.0291 15.9335 29.1423C15.9335 29.3907 15.9556 29.6139 15.9556 29.8403C15.9556 30.7868 15.9776 31.7113 15.9335 32.6578C15.9115 33.2426 15.9115 33.8306 15.9115 34.4375C15.9115 34.7771 15.9115 35.1136 15.9115 35.4752ZM25.804 34.9343C25.804 35.2268 25.804 35.4972 25.804 35.7676C25.782 35.994 25.782 36.2173 25.7379 36.4437C25.6939 36.6449 25.6939 36.8493 25.6939 37.0505C25.6688 37.2109 25.6467 37.321 25.6247 37.4593C25.5807 37.5694 25.5807 37.6826 25.5587 37.7958C25.5335 37.887 25.5335 37.975 25.4895 38.0662C25.4235 38.2014 25.3983 38.3366 25.3543 38.4498C25.3103 38.6291 25.2631 38.8114 25.1971 38.9907C25.1531 39.1259 25.0619 39.2831 24.9927 39.4183C24.9707 39.4875 24.9487 39.5535 24.9267 39.5975C24.7694 39.8239 24.6342 40.0724 24.521 40.3208C24.3418 40.7484 24.0462 41.11 23.7318 41.4245C23.6878 41.4685 23.6626 41.4905 23.6186 41.5377C23.4393 41.7389 23.1909 41.8741 22.9425 41.9653C22.8073 42.0093 22.6721 42.0565 22.5369 42.0785C22.4709 42.1005 22.4017 42.1225 22.3356 42.1225C22.2004 42.1225 22.0652 42.1225 21.93 42.1445C21.8168 42.1445 21.7036 42.1445 21.5904 42.1666C21.2288 42.2357 20.8703 42.2357 20.4867 42.2357C20.0811 42.2357 19.6754 42.2357 19.2698 42.2137C19.1786 42.2137 19.0906 42.1225 19.0906 42.0313C19.0906 41.9873 19.0906 41.9433 19.0906 41.8961C19.0906 41.8081 19.0906 41.7169 19.0906 41.6257C19.0906 40.3648 19.1126 39.1039 19.1346 37.865C19.1346 37.1637 19.1346 36.4877 19.1346 35.7896C19.1346 34.9563 19.1346 34.1011 19.1346 33.2646C19.1346 33.0854 19.1566 32.9062 19.1786 32.7018C19.2006 32.4314 19.2258 32.1609 19.2478 31.8905C19.2478 31.6421 19.2698 31.3937 19.3138 31.1484C19.361 30.966 19.3358 30.7868 19.3358 30.6076C19.3358 29.8623 19.3358 29.1423 19.3358 28.397C19.3358 28.2838 19.3358 28.1738 19.361 28.0606C19.361 28.0134 19.361 27.9694 19.361 27.9254C19.383 27.8562 19.427 27.8122 19.4962 27.7681C19.5402 27.743 19.5843 27.721 19.6314 27.721C19.9679 27.6769 20.3075 27.6769 20.6439 27.6078C20.9584 27.5858 21.276 27.5637 21.6124 27.6329C21.7256 27.6549 21.8388 27.6769 21.952 27.6769C22.2445 27.6769 22.5369 27.7681 22.8293 27.8122C23.1469 27.9033 23.4173 28.0386 23.6626 28.2618C23.933 28.5102 24.1374 28.8027 24.3638 29.0951C24.3858 29.1423 24.4078 29.1863 24.4298 29.2083C24.499 29.3435 24.5651 29.4567 24.6122 29.5919C24.8355 30.1107 25.0619 30.6516 25.2631 31.1704C25.3103 31.2836 25.3543 31.3717 25.3983 31.4849C25.5587 31.8685 25.6467 32.2741 25.6688 32.6798C25.6939 32.9722 25.6939 33.2898 25.7599 33.5822C25.804 33.7174 25.804 33.8967 25.804 34.0539C25.804 34.3463 25.804 34.6419 25.804 34.9343Z" fill="white"/>
    <path d="M35.5642 39.4404C35.517 39.2391 35.451 39.0819 35.407 38.8995C35.2938 38.4499 35.2246 38.0002 35.2246 37.5254C35.2246 37.255 35.2246 36.9846 35.2246 36.7141C35.2246 36.6009 35.2246 36.4877 35.2026 36.3745C35.1334 36.0821 35.1585 35.7677 35.1585 35.4752C35.1585 34.076 35.1585 32.6798 35.1585 31.2837C35.1585 30.9221 35.1585 30.5605 35.1585 30.202C35.1585 30.0668 35.1585 29.9316 35.1806 29.7964C35.2026 29.57 35.2246 29.3656 35.2246 29.1643C35.2246 28.8939 35.2466 28.6235 35.2466 28.3531C35.2466 28.2399 35.2938 28.1267 35.3598 28.0135C35.451 27.8562 35.5642 27.743 35.7434 27.677C35.9226 27.6078 36.105 27.5638 36.2843 27.5198C36.4195 27.5198 36.5547 27.4506 36.6679 27.3846C36.7119 27.3626 36.7119 27.2494 36.6899 27.2022C36.6459 27.1582 36.5987 27.1362 36.5547 27.1362C36.4415 27.1362 36.3283 27.1142 36.2182 27.1142C35.0453 27.1142 33.8945 27.1142 32.7247 27.1142C32.1367 27.1142 31.5739 27.1142 31.011 27.1142C30.9198 27.1142 30.8318 27.1142 30.7406 27.1362C30.6714 27.1582 30.6054 27.1802 30.5614 27.2274C30.5362 27.2714 30.5142 27.3154 30.4922 27.3374C30.4922 27.3846 30.5834 27.4726 30.6274 27.4978C30.6714 27.4978 30.7186 27.5198 30.7626 27.5198C31.033 27.5418 31.3035 27.6078 31.5739 27.677C31.6871 27.721 31.7783 27.7902 31.8663 27.8562C31.8883 27.8783 31.9135 27.9254 31.9355 27.9694C31.9355 28.0606 31.9575 28.1487 31.9575 28.2399C31.9575 28.8027 31.9355 29.3436 31.9575 29.8844C31.9795 30.8529 31.9795 31.8245 31.9795 32.771C31.9575 33.4911 31.9575 34.1892 31.9575 34.9124C31.9575 35.4281 31.9575 35.9469 31.9575 36.4877C31.9575 37.0066 31.9355 37.5474 31.9355 38.0663C31.9355 38.3807 31.9575 38.6983 32.0707 39.0127C32.1367 39.4624 32.3191 39.8932 32.5424 40.2988C32.5644 40.3428 32.5895 40.3648 32.6115 40.4089C32.7468 40.6573 32.904 40.8837 33.0832 41.0629C33.1964 41.1981 33.3096 41.2893 33.4228 41.4245C33.6712 41.6729 33.9416 41.8742 34.2121 42.0786C34.2781 42.1226 34.3693 42.1918 34.4573 42.2138C34.7529 42.327 35.0453 42.4622 35.3378 42.5723C35.495 42.6194 35.6522 42.6414 35.8126 42.6634C36.0138 42.6854 36.2182 42.6854 36.4195 42.7075C36.8691 42.7986 37.3439 42.8207 37.7936 42.8207C38.1332 42.7986 38.4696 42.7986 38.8313 42.7986C39.0797 42.7766 39.3281 42.7766 39.5733 42.7075C39.6645 42.6854 39.7557 42.6855 39.8438 42.6855C40.1614 42.6414 40.4758 42.6414 40.7934 42.5502C40.8154 42.5282 40.8374 42.5282 40.8594 42.5282C41.1298 42.5502 41.3562 42.437 41.6047 42.371C41.7399 42.327 41.8971 42.2578 42.0543 42.2138C42.2336 42.1226 42.4159 42.0314 42.5952 41.9213C42.7744 41.7861 42.9568 41.6509 43.136 41.5157C43.3624 41.3554 43.5416 41.1541 43.6769 40.9057C43.768 40.7485 43.8341 40.5692 43.9253 40.4089C44.1265 40.0724 44.1957 39.6888 44.2837 39.3052C44.3529 38.8335 44.4441 38.3587 44.4189 37.887C44.4189 37.7298 44.4189 37.5694 44.4189 37.3902C44.4189 35.8589 44.4189 34.3244 44.4189 32.793C44.4189 32.5446 44.4189 32.2962 44.4189 32.0478C44.4189 31.7774 44.4189 31.5069 44.3529 31.2145C44.3309 31.1013 44.3309 30.9441 44.3309 30.8089C44.3089 30.5385 44.3089 30.268 44.2837 29.9976C44.2837 29.8624 44.2837 29.7052 44.2617 29.592C44.1957 29.1643 44.2177 28.7587 44.2177 28.3531C44.2177 28.2179 44.2397 28.0826 44.2837 27.9474C44.3089 27.8562 44.3749 27.7902 44.4441 27.743C44.6013 27.655 44.7806 27.5638 44.9598 27.5418C45.051 27.5418 45.1422 27.5418 45.2302 27.5198C45.4786 27.4286 45.727 27.4286 45.9754 27.4066C46.0195 27.4066 46.0666 27.3846 46.1107 27.3846C46.1547 27.3626 46.2459 27.2714 46.2239 27.2274C46.2018 27.1802 46.1798 27.1362 46.1547 27.1142C46.1107 27.0921 46.0666 27.067 46.0195 27.067C45.8622 27.023 45.705 27.023 45.5478 27.045C45.1862 27.0921 44.8246 27.0921 44.4441 27.1142C44.0133 27.1142 43.5857 27.1142 43.158 27.1362C42.7964 27.1582 42.46 27.1582 42.1203 27.1362C41.8279 27.1142 41.5355 27.1142 41.221 27.1582C41.1739 27.1582 41.1298 27.1582 41.1078 27.1802C41.0387 27.2022 40.9726 27.2494 40.9726 27.3154C40.9506 27.4066 41.0166 27.5198 41.0858 27.5418C41.1298 27.5418 41.1739 27.5638 41.221 27.5638C41.4003 27.5638 41.5795 27.5638 41.7839 27.5858C41.8751 27.5858 41.9631 27.5858 42.0543 27.6078C42.2556 27.655 42.46 27.655 42.6612 27.677C42.7524 27.699 42.8436 27.721 42.9096 27.7682C42.9788 27.7902 43.0448 27.8122 43.114 27.8562C43.2272 27.9254 43.3152 28.0386 43.3152 28.1738C43.3152 28.2839 43.3152 28.3751 43.3152 28.4663C43.3152 29.8624 43.3373 31.2365 43.3624 32.6358C43.3624 33.1075 43.3844 33.5603 43.3844 34.0099C43.4064 34.3464 43.3844 34.664 43.4505 34.9784C43.4505 35.0476 43.4505 35.1136 43.4505 35.1828C43.4505 35.7677 43.4725 36.3745 43.4725 36.9626C43.4725 37.1418 43.4725 37.321 43.4284 37.5034C43.3844 37.7738 43.3844 38.0663 43.3624 38.3367C43.3373 38.5851 43.3624 38.8335 43.3152 39.0819C43.202 39.4875 43.0668 39.868 42.8876 40.2737C42.7744 40.4089 42.6392 40.5692 42.504 40.7265C42.4599 40.7925 42.3908 40.8617 42.3247 40.9277C42.0983 41.1101 41.8499 41.3113 41.6047 41.4465C41.3562 41.5817 41.1078 41.695 40.8374 41.717C40.7242 41.717 40.633 41.739 40.545 41.739C40.2274 41.8302 39.9129 41.8302 39.5985 41.8302C39.3501 41.8302 39.1017 41.8081 38.8533 41.8081C38.5388 41.8081 38.2464 41.7861 37.9508 41.6729C37.8628 41.6258 37.7496 41.5817 37.6584 41.5377C37.0043 41.1761 36.4415 40.7044 36.0138 40.0944C35.8786 39.8932 35.7434 39.6888 35.5642 39.4404Z" fill="white"/>
    <path d="M52.3537 42.6633C52.3977 42.6633 52.4669 42.6853 52.5329 42.7073C52.7813 42.7765 53.0297 42.7985 53.2781 42.8205C53.4354 42.8205 53.5926 42.8456 53.7498 42.8677C54.5831 43.0249 55.3943 43.0249 56.2308 42.9557C56.454 42.9337 56.6804 42.8897 56.9068 42.8456C57.2653 42.8205 57.6269 42.7073 57.9885 42.6633C58.0766 42.6633 58.1677 42.6192 58.2369 42.5972C58.913 42.3928 59.5199 42.0784 60.0827 41.7168C60.1299 41.6728 60.1739 41.6508 60.1959 41.6256C60.2651 41.5816 60.2871 41.5155 60.3091 41.4464C60.3091 41.3552 60.3091 41.2671 60.3091 41.1759C60.3091 40.6131 60.3091 40.0722 60.3091 39.5314C60.3091 39.305 60.3311 39.1038 60.4003 38.9214C60.4443 38.8113 60.4443 38.6981 60.4443 38.5849C60.4443 38.4937 60.4003 38.4497 60.3311 38.4277C60.2651 38.3805 60.1959 38.4277 60.1299 38.4497C60.0387 38.5157 59.9695 38.6069 59.9255 38.7201C59.8595 38.8333 59.7903 38.9685 59.7463 39.1038C59.6991 39.261 59.6331 39.4402 59.589 39.6226C59.4758 39.937 59.3626 40.2735 59.2054 40.5691C59.1142 40.7263 59.001 40.8835 58.8878 41.0187C58.7086 41.22 58.5073 41.4023 58.2809 41.5816C58.0766 41.7168 57.8533 41.852 57.6269 41.9432C57.4697 42.0092 57.3125 42.0564 57.1521 42.1004C56.9508 42.1444 56.7244 42.1916 56.5012 42.2356C56.454 42.2356 56.41 42.2356 56.366 42.2356C55.9603 42.2576 55.5767 42.2576 55.1931 42.2136C54.8787 42.1916 54.5611 42.1444 54.2246 42.1224C54.1554 42.1224 54.0894 42.1224 54.0202 42.1004C53.5706 41.9432 53.1429 41.7388 52.7373 41.4684C52.6681 41.4464 52.6241 41.4023 52.5801 41.3552C52.3757 41.1759 52.2185 40.9967 52.1053 40.7703C51.948 40.4087 51.7436 40.0722 51.5424 39.7578C51.4072 39.5534 51.316 39.3522 51.2248 39.1478C51.1588 38.9906 51.0896 38.8553 51.0896 38.6761C51.0676 38.4277 50.9544 38.2013 50.9324 37.9309C50.9104 37.6825 50.8443 37.4592 50.7752 37.2108C50.7091 36.9152 50.662 36.6228 50.662 36.3304C50.662 35.9247 50.662 35.5411 50.662 35.1575C50.662 34.9342 50.662 34.7078 50.7091 34.4814C50.7752 34.145 50.7752 33.8305 50.7752 33.5129C50.7972 33.1545 50.7972 32.7929 50.9104 32.4312C50.9104 32.4092 50.9104 32.3872 50.9324 32.3652C50.9324 32.0728 51.0236 31.8244 51.1148 31.5539C51.294 31.0791 51.4512 30.6075 51.7216 30.1326C51.8348 29.9754 51.97 29.7962 52.1053 29.6138C52.3317 29.2994 52.5801 29.0069 52.9165 28.7805C53.0077 28.7145 53.0737 28.6453 53.1869 28.5793C53.4794 28.3309 53.797 28.1045 54.1554 27.9473C54.5611 27.768 54.9007 27.6768 55.2151 27.6548C55.5075 27.6548 55.8 27.6328 56.0956 27.6768C56.476 27.7209 56.476 27.7209 56.9068 27.8341C57.0861 27.8781 57.2433 27.9693 57.4225 28.0133C57.6049 28.0605 57.7841 28.1265 57.9193 28.2177C58.1457 28.3749 58.3941 28.5321 58.5954 28.6893C58.7778 28.8246 58.935 29.0069 59.0702 29.2082C59.2274 29.4786 59.3846 29.749 59.5419 30.0415C59.6771 30.2899 59.7903 30.5823 59.8595 30.8779C59.9035 31.0131 59.9695 31.1703 60.0167 31.3275C60.0167 31.3716 60.0607 31.3936 60.0607 31.4407C60.1047 31.5068 60.2399 31.5539 60.3091 31.5068C60.4003 31.4627 60.4443 31.3716 60.4443 31.2835C60.4443 30.9659 60.4223 30.6515 60.3531 30.337C60.3311 30.2018 60.3091 30.0666 60.2871 29.9314C60.2871 29.8182 60.2651 29.683 60.2399 29.5918C60.1739 29.3434 60.1739 29.095 60.1519 28.8246C60.1519 28.6673 60.1519 28.5101 60.1299 28.3529C60.1299 28.2397 60.1047 28.1265 60.0607 28.0133C59.9947 27.9032 59.9035 27.79 59.7903 27.7209C59.5199 27.4976 59.2054 27.3844 58.8658 27.2932C58.7526 27.2712 58.6426 27.2712 58.5294 27.2272C58.347 27.18 58.1677 27.158 57.9885 27.158C57.8061 27.136 57.6269 27.136 57.4477 27.136C57.1081 27.136 56.7936 27.136 56.476 27.114C56.2528 27.114 56.0264 27.136 55.8 27.0448C55.778 27.0448 55.756 27.0448 55.7339 27.0448C55.3503 27.0228 54.9887 27.0008 54.6302 27.092C54.4259 27.136 54.2246 27.136 54.0202 27.18C53.841 27.2492 53.6838 27.2932 53.5014 27.3152C53.3222 27.3372 53.1429 27.4064 52.9605 27.4284C52.8725 27.4284 52.7813 27.4724 52.6901 27.4976C52.5329 27.5856 52.3537 27.6548 52.1964 27.7429C51.8128 27.9473 51.4512 28.1737 51.0676 28.3749C50.7972 28.5101 50.5488 28.6893 50.3035 28.8497C50.2343 28.8937 50.1431 28.9598 50.0991 29.0289C49.8287 29.2774 49.5803 29.5258 49.3098 29.7962C49.1306 29.9754 49.0174 30.2018 48.8382 30.3811C48.6118 30.6515 48.4546 30.9659 48.3193 31.2584C48.2061 31.4627 48.1149 31.6891 48.0269 31.8904C48.0049 31.9816 47.9577 32.0728 47.9357 32.1608C47.9137 32.3652 47.8225 32.5444 47.7785 32.7488C47.7093 33.0413 47.6433 33.3337 47.6433 33.6261C47.6213 33.7613 47.5993 33.8966 47.5741 34.0318C47.5301 34.2362 47.5301 34.4374 47.5301 34.6418C47.5081 35.0914 47.5081 35.5191 47.5521 35.9467C47.5521 36.2392 47.5993 36.5347 47.6433 36.8272C47.6873 37.0064 47.7565 37.1856 47.8005 37.368C47.8697 37.6605 48.0049 37.9089 48.1149 38.2013C48.1621 38.3585 48.2281 38.4937 48.3193 38.6289C48.4766 38.8994 48.6338 39.1918 48.791 39.4622C48.8602 39.5974 48.9514 39.7578 49.0394 39.8679C49.2438 40.0943 49.401 40.3427 49.5583 40.5911C49.6274 40.6791 49.6715 40.7483 49.7155 40.8143C50.2783 41.4684 50.9324 42.0092 51.7216 42.3708C51.926 42.462 52.1273 42.5501 52.3537 42.6633Z" fill="white"/>
    <path d="M63.5319 42.0786C63.1703 42.2138 62.7867 42.2798 62.4031 42.371C62.2899 42.415 62.1326 42.393 61.9974 42.415C61.8842 42.437 61.7962 42.4842 61.705 42.5722C61.661 42.5974 61.639 42.6414 61.661 42.6854C61.683 42.7326 61.705 42.7546 61.749 42.7766C61.7962 42.7766 61.8402 42.7986 61.8842 42.7986C62.0666 42.7986 62.2679 42.7986 62.4502 42.7986C64.274 42.7986 66.1009 42.7986 67.9247 42.7986C68.0819 42.7986 68.2643 42.7766 68.4215 42.7766C68.4656 42.7766 68.4876 42.7546 68.5347 42.7546C68.6228 42.7326 68.67 42.5974 68.6228 42.5282C68.5788 42.4622 68.5347 42.415 68.4656 42.415C68.1291 42.371 67.8115 42.393 67.4971 42.3018C67.4059 42.2798 67.3178 42.3018 67.2266 42.2798C67.0474 42.2798 66.865 42.2798 66.6858 42.2798C66.5726 42.2578 66.4594 42.2578 66.3462 42.2138C66.167 42.1446 65.9877 42.1446 65.8305 42.0565C65.7613 42.0314 65.6953 41.9874 65.6481 41.9654C65.4689 41.8301 65.3557 41.6729 65.3557 41.4465C65.3557 41.2893 65.3557 41.1321 65.4249 40.9749C65.4909 40.7264 65.5601 40.478 65.6041 40.2296C65.6481 40.0284 65.7173 39.846 65.7613 39.6448C65.8054 39.4875 65.8745 39.3523 65.9186 39.192C65.9657 39.0127 66.0097 38.8335 66.1009 38.6763C66.145 38.5159 66.145 38.3587 66.211 38.2015C66.2361 38.1574 66.2582 38.1354 66.3022 38.1103C66.3714 38.0662 66.4154 38.0442 66.4814 38.0442C66.799 38.0002 67.0914 38.0002 67.3839 38.0002C67.7235 38.0002 68.0599 37.9751 68.3995 37.931C68.5347 37.887 68.692 37.887 68.8272 37.887C69.7296 37.865 70.651 37.8178 71.5534 37.8178C71.7578 37.8178 71.9811 37.8178 72.1854 37.7738C72.2295 37.7738 72.2766 37.7738 72.3207 37.7738C72.4339 37.7738 72.5471 37.8178 72.6131 37.909C72.7263 38.0662 72.8175 38.2235 72.8615 38.4058C73.0187 38.8775 73.2231 39.3272 73.3803 39.824C73.4023 39.8932 73.4244 39.9812 73.4464 40.0724C73.4935 40.3208 73.5596 40.5692 73.6508 40.8145C73.764 41.1101 73.83 41.4245 73.9652 41.7169C73.9872 41.7861 73.9652 41.8522 73.9432 41.8962C73.8992 41.9654 73.874 42.0314 73.808 42.0786C73.6948 42.1446 73.5816 42.2358 73.4464 42.2578C73.1759 42.2798 72.9055 42.371 72.6351 42.393C72.5911 42.393 72.5471 42.415 72.4999 42.415C72.3427 42.4622 72.3207 42.6634 72.3867 42.7546C72.4559 42.8458 72.5219 42.8678 72.6131 42.9118C72.9747 42.9338 73.3583 42.9338 73.7168 42.8898C74.1224 42.8458 74.5281 42.8458 74.9337 42.8206C76.0625 42.8206 77.1883 42.8206 78.314 42.7986C78.3831 42.7986 78.4492 42.7986 78.5184 42.7986C78.6536 42.7986 78.7668 42.6854 78.8108 42.5502C78.8548 42.4622 78.7888 42.3018 78.6756 42.2798C78.5184 42.2358 78.3391 42.1446 78.1567 42.1446C77.9995 42.1226 77.8423 42.0565 77.7071 42.0094C77.5027 41.9433 77.3895 41.8081 77.3015 41.6258C77.2794 41.5817 77.2543 41.5157 77.2323 41.4465C76.9839 40.8396 76.7386 40.2076 76.5562 39.5756C76.4902 39.3272 76.399 39.1039 76.2858 38.8775C76.2418 38.7643 76.1978 38.6511 76.1726 38.5631C75.9714 38.0662 75.767 37.5694 75.5437 37.0978C75.4305 36.8934 75.3393 36.6921 75.2513 36.4877C75.1601 36.2393 75.0469 36.0161 74.9809 35.7897C74.9117 35.5633 74.7985 35.362 74.7104 35.1576C74.7104 35.1356 74.7104 35.1136 74.6853 35.0916C74.5972 34.7772 74.506 34.4816 74.4149 34.1671C74.2136 33.5131 74.0092 32.859 73.7168 32.2302C73.5816 31.9126 73.4464 31.5981 73.3332 31.2837C73.3112 31.1705 73.2671 31.0573 73.2231 30.9661C73.0407 30.4473 72.8175 29.9316 72.6571 29.4127C72.5911 29.1863 72.4999 28.9851 72.4118 28.7807C72.2986 28.5543 72.2295 28.309 72.0943 28.0826C71.9811 27.9254 71.937 27.699 71.8458 27.5418C71.7106 27.3154 71.5314 27.1802 71.305 27.1361C71.239 27.1361 71.1698 27.1361 71.1038 27.1361C70.7642 27.1141 70.4497 27.1141 70.1353 27.067C70.0221 27.045 69.9089 27.045 69.7957 27.045C69.39 27.045 68.9624 27.0229 68.5567 27.0229C68.3995 27.0229 68.2423 27.0229 68.0819 27.067C67.9719 27.1141 67.8587 27.1141 67.7455 27.1141C67.4751 27.1361 67.2046 27.1582 66.9122 27.1582C66.843 27.1802 66.777 27.1802 66.7078 27.2022C66.6858 27.2022 66.6418 27.2493 66.6166 27.2714C66.5726 27.3154 66.5506 27.4286 66.5946 27.4726C66.6166 27.4978 66.6638 27.5418 66.6858 27.5418C66.821 27.5638 66.9782 27.5638 67.1134 27.5638C67.3178 27.5638 67.5191 27.5638 67.7235 27.5638C67.8587 27.5858 67.9719 27.699 67.9939 27.8342C67.9939 27.9254 67.9939 27.9914 67.9939 28.0606C67.9939 28.2398 67.9467 28.4191 67.9247 28.6015C67.8587 28.8247 67.8115 29.0291 67.7455 29.2555C67.6763 29.4568 67.6543 29.6611 67.5662 29.8404C67.5191 30.0416 67.4751 30.246 67.431 30.4473C67.3619 30.7428 67.2707 31.0133 67.1826 31.3057C67.0474 31.6893 66.9122 32.0729 66.799 32.4786C66.6166 33.1295 66.4374 33.7835 66.211 34.4376C66.211 34.4816 66.189 34.5287 66.189 34.5728C66.167 34.8432 66.0538 35.0696 65.9877 35.318C65.8965 35.6104 65.8054 35.9249 65.7173 36.2173C65.6261 36.5097 65.5349 36.7802 65.4689 37.0757C65.4689 37.1418 65.4469 37.211 65.4249 37.277C65.3557 37.4342 65.3117 37.5694 65.2645 37.7298C64.906 38.7863 64.5664 39.868 64.208 40.9277C64.1388 41.1321 64.0728 41.3553 63.9816 41.5817C63.9596 41.6729 63.8904 41.761 63.8023 41.8522C63.7332 41.9433 63.642 42.0094 63.5319 42.0786ZM68.7832 37.211C68.0819 37.211 67.4751 37.211 66.865 37.211C66.799 37.211 66.7298 37.211 66.6638 37.1638C66.6166 37.1418 66.5726 37.1198 66.5946 37.0757C66.5946 37.0066 66.5946 36.9154 66.6166 36.8714C66.865 36.3525 67.0002 35.7897 67.1355 35.2488C67.2487 34.7772 67.3839 34.3023 67.5191 33.8527C67.7235 33.2647 67.9027 32.6798 68.1291 32.117C68.2423 31.8906 68.2643 31.6421 68.3524 31.3937C68.3995 31.2365 68.4436 31.0793 68.4876 30.9441C68.5127 30.8309 68.5567 30.7177 68.6008 30.6296C68.692 30.4473 68.736 30.29 68.7832 30.1108C68.8492 29.8624 68.8932 29.614 68.9844 29.3656C68.9844 29.3436 69.0284 29.2995 69.0756 29.2775C69.0976 29.2555 69.1416 29.2555 69.1888 29.3215C69.2108 29.3656 69.2548 29.4347 69.2768 29.5008C69.346 29.6611 69.412 29.8184 69.4592 29.9976C69.5252 30.202 69.5693 30.4032 69.6384 30.6076C69.7045 30.8529 69.7957 31.1233 69.8869 31.3717C70.0001 31.6421 70.1353 31.9126 70.2705 32.183C70.3365 32.3434 70.4277 32.5226 70.4937 32.6798C70.5409 32.793 70.6069 32.8842 70.651 32.9943C70.7642 33.3779 70.9685 33.7395 71.1478 34.1231C71.261 34.4155 71.3962 34.686 71.5314 35.0004C71.5754 35.1136 71.6226 35.2488 71.6666 35.384C71.7798 35.8117 71.959 36.2393 72.1414 36.645C72.1854 36.7361 72.2295 36.8053 72.2766 36.8934C72.2986 36.9625 72.2515 37.0286 72.1854 37.0506C72.0502 37.0506 71.915 37.0506 71.7798 37.0506C71.4874 37.0506 71.1918 37.0757 70.8994 37.1198C70.8113 37.1418 70.7201 37.1418 70.6289 37.1418C69.9749 37.1638 69.346 37.211 68.7832 37.211Z" fill="white"/>
    <path d="M81.4255 42.0786C81.0639 42.2138 80.6802 42.2798 80.2966 42.371C80.1834 42.415 80.0262 42.393 79.891 42.415C79.7778 42.437 79.6897 42.4842 79.5986 42.5722C79.5545 42.5974 79.5325 42.6414 79.5545 42.6854C79.5765 42.7326 79.5986 42.7546 79.6426 42.7766C79.6897 42.7766 79.7338 42.7986 79.7778 42.7986C79.9602 42.7986 80.1614 42.7986 80.3438 42.7986C82.1676 42.7986 83.9945 42.7986 85.8183 42.7986C85.9755 42.7986 86.1579 42.7766 86.3151 42.7766C86.3591 42.7766 86.3811 42.7546 86.4283 42.7546C86.5163 42.7326 86.5635 42.5974 86.5163 42.5282C86.4723 42.4622 86.4283 42.415 86.3591 42.415C86.0227 42.371 85.7051 42.393 85.3906 42.3018C85.2994 42.2798 85.2114 42.3018 85.1202 42.2798C84.941 42.2798 84.7586 42.2798 84.5794 42.2798C84.4662 42.2578 84.353 42.2578 84.2398 42.2138C84.0605 42.1446 83.8813 42.1446 83.7241 42.0565C83.6549 42.0314 83.5889 41.9874 83.5417 41.9654C83.3625 41.8301 83.2493 41.6729 83.2493 41.4465C83.2493 41.2893 83.2493 41.1321 83.3184 40.9749C83.3845 40.7264 83.4536 40.478 83.4977 40.2296C83.5417 40.0284 83.6109 39.846 83.6549 39.6448C83.6989 39.4875 83.7681 39.3523 83.8121 39.192C83.8593 39.0127 83.9033 38.8335 83.9945 38.6763C84.0385 38.5159 84.0385 38.3587 84.1045 38.2015C84.1297 38.1574 84.1517 38.1354 84.1957 38.1103C84.2649 38.0662 84.3089 38.0442 84.375 38.0442C84.6926 38.0002 84.985 38.0002 85.2774 38.0002C85.617 38.0002 85.9535 37.9751 86.2931 37.931C86.4283 37.887 86.5855 37.887 86.7207 37.887C87.6232 37.865 88.5445 37.8178 89.447 37.8178C89.6514 37.8178 89.8746 37.8178 90.079 37.7738C90.123 37.7738 90.1702 37.7738 90.2142 37.7738C90.3274 37.7738 90.4406 37.8178 90.5066 37.909C90.6198 38.0662 90.711 38.2235 90.7551 38.4058C90.9123 38.8775 91.1167 39.3272 91.2739 39.824C91.2959 39.8932 91.3179 39.9812 91.3399 40.0724C91.3871 40.3208 91.4531 40.5692 91.5443 40.8145C91.6575 41.1101 91.7235 41.4245 91.8588 41.7169C91.8808 41.7861 91.8588 41.8522 91.8367 41.8962C91.7927 41.9654 91.7676 42.0314 91.7015 42.0786C91.5883 42.1446 91.4751 42.2358 91.3399 42.2578C91.0695 42.2798 90.7991 42.371 90.5287 42.393C90.4846 42.393 90.4406 42.415 90.3934 42.415C90.2362 42.4622 90.2142 42.6634 90.2802 42.7546C90.3494 42.8458 90.4155 42.8678 90.5066 42.9118C90.8683 42.9338 91.2519 42.9338 91.6103 42.8898C92.016 42.8458 92.4216 42.8458 92.8272 42.8206C93.9561 42.8206 95.0818 42.8206 96.2075 42.7986C96.2767 42.7986 96.3427 42.7986 96.4119 42.7986C96.5471 42.7986 96.6603 42.6854 96.7043 42.5502C96.7484 42.4622 96.6823 42.3018 96.5691 42.2798C96.4119 42.2358 96.2327 42.1446 96.0503 42.1446C95.8931 42.1226 95.7359 42.0565 95.6006 42.0094C95.3963 41.9433 95.2831 41.8081 95.195 41.6258C95.173 41.5817 95.1478 41.5157 95.1258 41.4465C94.8774 40.8396 94.6322 40.2076 94.4498 39.5756C94.3837 39.3272 94.2926 39.1039 94.1794 38.8775C94.1353 38.7643 94.0913 38.6511 94.0662 38.5631C93.8649 38.0662 93.6605 37.5694 93.4373 37.0978C93.3241 36.8934 93.2329 36.6921 93.1448 36.4877C93.0536 36.2393 92.9404 36.0161 92.8744 35.7897C92.8052 35.5633 92.692 35.362 92.604 35.1576C92.604 35.1356 92.604 35.1136 92.5788 35.0916C92.4908 34.7772 92.3996 34.4816 92.3084 34.1671C92.1072 33.5131 91.9028 32.859 91.6103 32.2302C91.4751 31.9126 91.3399 31.5981 91.2267 31.2837C91.2047 31.1705 91.1607 31.0573 91.1167 30.9661C90.9343 30.4473 90.711 29.9316 90.5507 29.4127C90.4846 29.1863 90.3934 28.9851 90.3054 28.7807C90.1922 28.5543 90.123 28.309 89.9878 28.0826C89.8746 27.9254 89.8306 27.699 89.7394 27.5418C89.6042 27.3154 89.425 27.1802 89.1986 27.1361C89.1325 27.1361 89.0633 27.1361 88.9973 27.1361C88.6577 27.1141 88.3433 27.1141 88.0288 27.067C87.9156 27.045 87.8024 27.045 87.6892 27.045C87.2836 27.045 86.8559 27.0229 86.4503 27.0229C86.2931 27.0229 86.1359 27.0229 85.9755 27.067C85.8654 27.1141 85.7522 27.1141 85.639 27.1141C85.3686 27.1361 85.0982 27.1582 84.8058 27.1582C84.7366 27.1802 84.6705 27.1802 84.6014 27.2022C84.5794 27.2022 84.5353 27.2493 84.5102 27.2714C84.4662 27.3154 84.4441 27.4286 84.4882 27.4726C84.5102 27.4978 84.5573 27.5418 84.5794 27.5418C84.7146 27.5638 84.8718 27.5638 85.007 27.5638C85.2114 27.5638 85.4126 27.5638 85.617 27.5638C85.7522 27.5858 85.8654 27.699 85.8874 27.8342C85.8874 27.9254 85.8874 27.9914 85.8874 28.0606C85.8874 28.2398 85.8403 28.4191 85.8183 28.6015C85.7522 28.8247 85.7051 29.0291 85.639 29.2555C85.5699 29.4568 85.5478 29.6611 85.4598 29.8404C85.4126 30.0416 85.3686 30.246 85.3246 30.4473C85.2554 30.7428 85.1642 31.0133 85.0762 31.3057C84.941 31.6893 84.8058 32.0729 84.6926 32.4786C84.5102 33.1295 84.3309 33.7835 84.1045 34.4376C84.1045 34.4816 84.0825 34.5287 84.0825 34.5728C84.0605 34.8432 83.9473 35.0696 83.8813 35.318C83.7901 35.6104 83.6989 35.9249 83.6109 36.2173C83.5197 36.5097 83.4285 36.7802 83.3625 37.0757C83.3625 37.1418 83.3404 37.211 83.3184 37.277C83.2493 37.4342 83.2052 37.5694 83.1581 37.7298C82.7996 38.7863 82.46 39.868 82.1015 40.9277C82.0324 41.1321 81.9663 41.3553 81.8751 41.5817C81.8531 41.6729 81.7839 41.761 81.6959 41.8522C81.6267 41.9433 81.5355 42.0094 81.4255 42.0786ZM86.6767 37.211C85.9755 37.211 85.3686 37.211 84.7586 37.211C84.6926 37.211 84.6234 37.211 84.5573 37.1638C84.5102 37.1418 84.4662 37.1198 84.4882 37.0757C84.4882 37.0066 84.4882 36.9154 84.5102 36.8714C84.7586 36.3525 84.8938 35.7897 85.029 35.2488C85.1422 34.7772 85.2774 34.3023 85.4126 33.8527C85.617 33.2647 85.7963 32.6798 86.0227 32.117C86.1359 31.8906 86.1579 31.6421 86.2459 31.3937C86.2931 31.2365 86.3371 31.0793 86.3811 30.9441C86.4063 30.8309 86.4503 30.7177 86.4943 30.6296C86.5855 30.4473 86.6295 30.29 86.6767 30.1108C86.7427 29.8624 86.7868 29.614 86.8779 29.3656C86.8779 29.3436 86.922 29.2995 86.9691 29.2775C86.9911 29.2555 87.0352 29.2555 87.0823 29.3215C87.1043 29.3656 87.1484 29.4347 87.1704 29.5008C87.2396 29.6611 87.3056 29.8184 87.3528 29.9976C87.4188 30.202 87.4628 30.4032 87.532 30.6076C87.598 30.8529 87.6892 31.1233 87.7804 31.3717C87.8936 31.6421 88.0288 31.9126 88.164 32.183C88.2301 32.3434 88.3213 32.5226 88.3873 32.6798C88.4345 32.793 88.5005 32.8842 88.5445 32.9943C88.6577 33.3779 88.8621 33.7395 89.0413 34.1231C89.1545 34.4155 89.2897 34.686 89.425 35.0004C89.469 35.1136 89.5161 35.2488 89.5602 35.384C89.6734 35.8117 89.8526 36.2393 90.035 36.645C90.079 36.7361 90.123 36.8053 90.1702 36.8934C90.1922 36.9625 90.145 37.0286 90.079 37.0506C89.9438 37.0506 89.8086 37.0506 89.6734 37.0506C89.3809 37.0506 89.0854 37.0757 88.7929 37.1198C88.7049 37.1418 88.6137 37.1418 88.5225 37.1418C87.8685 37.1638 87.2396 37.211 86.6767 37.211Z" fill="white"/>
    <path d="M99.678 35.6325C99.678 35.6325 99.678 35.6325 99.656 35.6325C99.656 36.8054 99.656 38.0002 99.656 39.192C99.634 39.6448 99.634 40.1165 99.634 40.5693C99.634 40.9277 99.5648 41.2893 99.4988 41.6509C99.4768 41.717 99.4296 41.7862 99.3856 41.8302C99.3196 41.8742 99.2724 41.9214 99.2064 41.9434C99.0492 42.0094 98.8888 42.1006 98.6875 42.1226C98.4611 42.1666 98.2599 42.2358 98.0335 42.327C97.9675 42.349 97.8763 42.393 97.8071 42.4622C97.7411 42.5062 97.719 42.6414 97.8071 42.6855C97.8322 42.7075 97.8763 42.7326 97.9203 42.7547C98.0115 42.7767 98.1027 42.7767 98.1907 42.7767C100.917 42.7987 103.646 42.8207 106.373 42.7987C106.8 42.7987 107.228 42.7767 107.681 42.7767C107.769 42.7767 107.86 42.7767 107.951 42.7547C108.199 42.7075 108.445 42.7075 108.693 42.6855C108.942 42.6855 109.19 42.6855 109.46 42.6635C109.526 42.6635 109.596 42.6635 109.662 42.6635C109.709 42.6414 109.753 42.6194 109.775 42.5974C109.91 42.5062 110.023 42.393 110.067 42.2358C110.158 42.0566 110.203 41.8962 110.203 41.695C110.203 40.9969 110.228 40.2737 110.228 39.5756C110.228 39.3964 110.228 39.2171 110.228 39.0128C110.228 38.9467 110.203 38.8775 110.203 38.8115C110.18 38.7864 110.092 38.6983 110.045 38.6983C109.932 38.6511 109.822 38.6983 109.731 38.7864C109.662 38.8555 109.596 38.9687 109.552 39.0568C109.438 39.4404 109.256 39.78 109.099 40.1385C108.942 40.5693 108.74 40.9749 108.492 41.3805C108.357 41.6038 108.152 41.7862 107.86 41.8742C107.633 41.9434 107.432 41.9874 107.206 42.0566C107.093 42.1006 106.979 42.0786 106.869 42.0566C106.8 42.0314 106.734 42.0314 106.665 42.0566C106.552 42.0786 106.439 42.1006 106.329 42.1006C105.967 42.1006 105.583 42.1006 105.222 42.0566C104.998 42.0314 104.772 42.0314 104.546 42.0094C104.209 42.0094 103.848 42.0094 103.511 41.9874C103.329 41.9874 103.172 41.8962 103.014 41.7862C102.97 41.761 102.923 41.695 102.923 41.6258C102.901 41.5818 102.901 41.5157 102.901 41.4686C102.901 40.7045 102.879 39.9152 102.901 39.148C102.923 38.0663 102.948 36.9846 102.923 35.9249C102.923 35.1577 102.923 34.4156 102.923 33.6483C102.923 32.4094 102.923 31.1705 102.923 29.9536C102.923 29.5008 102.948 29.0732 102.948 28.6455C102.948 28.4191 103.014 28.1959 103.083 27.9695C103.105 27.9254 103.127 27.8783 103.15 27.8563C103.263 27.7211 103.398 27.633 103.555 27.5858C103.804 27.4978 104.074 27.4506 104.344 27.3846C104.41 27.3626 104.458 27.2022 104.41 27.1362C104.388 27.0922 104.344 27.045 104.275 27.023C104.187 27.023 104.074 27.001 103.983 27.001C102.225 27.001 100.467 27.001 98.7096 27.001C98.6435 27.001 98.5743 27.001 98.5083 27.023C98.4171 27.023 98.3259 27.067 98.2599 27.1362C98.2379 27.1802 98.2127 27.2022 98.1907 27.2494C98.1907 27.3154 98.2599 27.3846 98.3259 27.4066C98.4611 27.4286 98.5964 27.4286 98.7316 27.4726C98.8888 27.4978 99.0492 27.5418 99.2064 27.5638C99.3416 27.6079 99.4548 27.677 99.5648 27.7682C99.59 27.7902 99.612 27.8343 99.634 27.8783C99.656 27.9475 99.656 28.0135 99.656 28.0827C99.656 28.5543 99.656 29.0291 99.656 29.526C99.656 29.7492 99.656 29.9756 99.7001 30.202C99.7472 30.3592 99.7472 30.5165 99.7472 30.6737C99.7252 31.7114 99.7252 32.749 99.7252 33.7835C99.7252 33.9408 99.7252 34.1011 99.7001 34.2584C99.678 34.4376 99.678 34.6168 99.678 34.7992C99.678 35.0696 99.678 35.34 99.678 35.6325Z" fill="white"/>
    <path d="M116.153 38.4718C116.153 38.2234 116.153 37.9529 116.175 37.7045C116.198 37.0505 116.22 36.3744 116.245 35.7235C116.245 35.4971 116.289 35.2707 116.311 35.0475C116.311 35.0223 116.333 35.0003 116.333 34.9783C116.38 34.9563 116.402 34.9123 116.446 34.9123C116.786 34.8651 117.144 34.8651 117.484 34.9123C117.732 34.9123 117.977 34.9343 118.226 34.9343C118.543 34.9343 118.88 34.9343 119.194 34.9343C119.285 34.9343 119.377 34.9563 119.465 34.9563C119.534 34.9783 119.6 34.9783 119.669 35.0223C119.826 35.1135 119.961 35.2487 120.005 35.4279C120.119 35.7455 120.254 36.06 120.323 36.3996C120.367 36.5788 120.411 36.758 120.48 36.9153C120.502 36.9844 120.546 37.0505 120.593 37.0976C120.659 37.1857 120.817 37.1637 120.886 37.0756C120.93 37.0065 120.952 36.9624 120.952 36.8712C120.952 36.8052 120.952 36.736 120.93 36.67C120.886 36.4876 120.864 36.2644 120.842 36.06C120.795 35.3619 120.817 34.6418 120.864 33.9406C120.886 33.8526 120.886 33.7614 120.908 33.6702C120.999 33.2426 120.999 32.8149 120.952 32.3653C120.952 32.3432 120.908 32.2961 120.886 32.2741C120.842 32.23 120.729 32.23 120.681 32.2741C120.681 32.2741 120.659 32.2961 120.637 32.3181C120.546 32.4533 120.48 32.5885 120.458 32.7489C120.458 33.0413 120.367 33.2897 120.276 33.5601C120.254 33.6262 120.21 33.7174 120.166 33.8054C120.097 33.8966 120.005 33.9658 119.895 33.9878C119.848 34.0098 119.804 34.0098 119.76 34.0098C119.669 34.0098 119.578 34.0098 119.49 34.0098C118.7 34.0098 117.933 34.0098 117.144 34.0098C116.921 34.0098 116.694 34.0098 116.468 33.9878C116.424 33.9878 116.333 33.8966 116.333 33.8526C116.333 33.7834 116.311 33.7174 116.311 33.6482C116.311 33.2897 116.311 32.9501 116.333 32.6137C116.355 31.554 116.355 30.5163 116.311 29.4566C116.289 29.2082 116.289 28.9598 116.245 28.7145C116.22 28.4661 116.22 28.1957 116.245 27.9473C116.245 27.8121 116.38 27.7209 116.515 27.6989C116.537 27.6989 116.559 27.6989 116.581 27.6989C117.641 27.6989 118.7 27.6989 119.735 27.6769C119.939 27.6769 120.119 27.6989 120.301 27.6989C120.389 27.6989 120.48 27.7209 120.571 27.7429C120.659 27.7901 120.729 27.8121 120.817 27.8341C121.134 27.9253 121.405 28.1045 121.631 28.3309C121.741 28.4661 121.876 28.6013 121.99 28.7586C122.282 29.1642 122.552 29.5918 122.735 30.0667C122.757 30.1547 122.779 30.2459 122.801 30.3371C122.823 30.4943 122.892 30.6295 122.958 30.7867C122.983 30.8087 123.027 30.8308 123.071 30.8308C123.118 30.8528 123.162 30.8308 123.184 30.7867C123.206 30.7427 123.228 30.6956 123.228 30.6515C123.228 30.4471 123.228 30.2459 123.228 30.0415C123.206 29.683 123.184 29.2994 123.184 28.9378C123.184 28.5793 123.184 28.2177 123.162 27.8341C123.162 27.7429 123.162 27.6549 123.162 27.5637C123.14 27.4285 123.118 27.2933 123.049 27.1801C123.027 27.114 122.983 27.0669 122.914 27.0448C122.757 27.0008 122.578 27.0228 122.417 27.0228C119.895 27.0228 117.348 27.0228 114.801 27.0228C114.71 27.0228 114.619 27.0228 114.531 27.0228C114.396 27.0228 114.261 27.0448 114.125 27.0669C113.855 27.136 113.584 27.158 113.314 27.136C113.044 27.136 112.751 27.136 112.481 27.0669C112.232 27.0228 111.984 27.0228 111.736 27.0228C111.692 27.0228 111.644 27.0448 111.6 27.0448C111.487 27.0669 111.421 27.2272 111.487 27.3153C111.534 27.4285 111.622 27.4976 111.736 27.5197C111.871 27.5637 112.006 27.5637 112.141 27.6077C112.276 27.6329 112.412 27.6769 112.547 27.7209C112.66 27.7429 112.751 27.8121 112.817 27.9033C112.861 27.9473 112.908 28.0133 112.908 28.0825C112.93 28.2177 112.93 28.3529 112.93 28.4881C112.93 29.3654 112.93 30.2679 112.93 31.1704C112.93 31.3056 112.93 31.4408 112.952 31.576C113.022 31.8904 113.022 32.208 113.022 32.5225C113.044 33.6042 113.066 34.6859 113.066 35.7455C113.066 35.9028 113.088 36.038 113.066 36.1732C113.022 36.4876 113.022 36.8052 113.022 37.1197C113.022 37.3901 113.022 37.6825 112.952 37.9529C112.93 38.0221 112.93 38.1353 112.93 38.2234C112.908 39.1258 112.861 40.0503 112.886 40.9496C112.886 41.0408 112.886 41.11 112.886 41.176C112.886 41.3804 112.839 41.5816 112.751 41.7609C112.726 41.83 112.682 41.8961 112.616 41.9212C112.503 41.9873 112.39 42.0564 112.254 42.1225C112.05 42.1445 111.871 42.2357 111.67 42.2577C111.6 42.2797 111.534 42.2797 111.465 42.3017C111.352 42.3489 111.264 42.4149 111.217 42.5281C111.195 42.5721 111.195 42.6193 111.217 42.6633C111.264 42.7545 111.33 42.7985 111.421 42.8205C111.534 42.8457 111.644 42.8457 111.758 42.8457C112.66 42.8457 113.537 42.8457 114.44 42.8457C114.688 42.8457 114.937 42.8457 115.185 42.8897C115.273 42.9117 115.364 42.9117 115.455 42.9117C115.927 42.9117 116.38 42.9337 116.83 42.9337C116.896 42.9337 116.987 42.9337 117.031 42.9117C117.191 42.8677 117.348 42.8457 117.506 42.7545C117.528 42.7325 117.55 42.7073 117.572 42.6413C117.572 42.5721 117.55 42.5281 117.506 42.4621C117.462 42.4149 117.392 42.3709 117.348 42.3489C117.166 42.2797 117.009 42.2137 116.83 42.1445C116.603 42.0564 116.446 41.8961 116.289 41.7388C116.267 41.6948 116.245 41.6508 116.22 41.6256C116.198 41.5816 116.198 41.5376 116.198 41.4904C116.153 41.2452 116.153 40.9747 116.153 40.7263C116.153 39.9811 116.153 39.217 116.153 38.4718Z" fill="white"/>
    <path d="M125.777 42.0786C125.415 42.2138 125.032 42.2798 124.648 42.371C124.535 42.415 124.378 42.393 124.243 42.415C124.129 42.437 124.041 42.4842 123.95 42.5722C123.906 42.5974 123.884 42.6414 123.906 42.6854C123.928 42.7326 123.95 42.7546 123.994 42.7766C124.041 42.7766 124.085 42.7986 124.129 42.7986C124.312 42.7986 124.513 42.7986 124.695 42.7986C126.519 42.7986 128.346 42.7986 130.17 42.7986C130.327 42.7986 130.509 42.7766 130.667 42.7766C130.711 42.7766 130.733 42.7546 130.78 42.7546C130.868 42.7326 130.915 42.5974 130.868 42.5282C130.824 42.4622 130.78 42.415 130.711 42.415C130.374 42.371 130.057 42.393 129.742 42.3018C129.651 42.2798 129.563 42.3018 129.472 42.2798C129.293 42.2798 129.11 42.2798 128.931 42.2798C128.818 42.2578 128.705 42.2578 128.591 42.2138C128.412 42.1446 128.233 42.1446 128.076 42.0565C128.006 42.0314 127.94 41.9874 127.893 41.9654C127.714 41.8301 127.601 41.6729 127.601 41.4465C127.601 41.2893 127.601 41.1321 127.67 40.9749C127.736 40.7264 127.805 40.478 127.849 40.2296C127.893 40.0284 127.962 39.846 128.006 39.6448C128.05 39.4875 128.12 39.3523 128.164 39.192C128.211 39.0127 128.255 38.8335 128.346 38.6763C128.39 38.5159 128.39 38.3587 128.456 38.2015C128.481 38.1574 128.503 38.1354 128.547 38.1103C128.616 38.0662 128.66 38.0442 128.727 38.0442C129.044 38.0002 129.337 38.0002 129.629 38.0002C129.969 38.0002 130.305 37.9751 130.645 37.931C130.78 37.887 130.937 37.887 131.072 37.887C131.975 37.865 132.896 37.8178 133.799 37.8178C134.003 37.8178 134.226 37.8178 134.431 37.7738C134.475 37.7738 134.522 37.7738 134.566 37.7738C134.679 37.7738 134.792 37.8178 134.858 37.909C134.971 38.0662 135.063 38.2235 135.107 38.4058C135.264 38.8775 135.468 39.3272 135.625 39.824C135.647 39.8932 135.669 39.9812 135.691 40.0724C135.739 40.3208 135.805 40.5692 135.896 40.8145C136.009 41.1101 136.075 41.4245 136.21 41.7169C136.232 41.7861 136.21 41.8522 136.188 41.8962C136.144 41.9654 136.119 42.0314 136.053 42.0786C135.94 42.1446 135.827 42.2358 135.691 42.2578C135.421 42.2798 135.151 42.371 134.88 42.393C134.836 42.393 134.792 42.415 134.745 42.415C134.588 42.4622 134.566 42.6634 134.632 42.7546C134.701 42.8458 134.767 42.8678 134.858 42.9118C135.22 42.9338 135.603 42.9338 135.962 42.8898C136.368 42.8458 136.773 42.8458 137.179 42.8206C138.308 42.8206 139.433 42.8206 140.559 42.7986C140.628 42.7986 140.694 42.7986 140.763 42.7986C140.899 42.7986 141.012 42.6854 141.056 42.5502C141.1 42.4622 141.034 42.3018 140.921 42.2798C140.763 42.2358 140.584 42.1446 140.402 42.1446C140.245 42.1226 140.087 42.0565 139.952 42.0094C139.748 41.9433 139.635 41.8081 139.547 41.6258C139.525 41.5817 139.499 41.5157 139.477 41.4465C139.229 40.8396 138.984 40.2076 138.801 39.5756C138.735 39.3272 138.644 39.1039 138.531 38.8775C138.487 38.7643 138.443 38.6511 138.418 38.5631C138.216 38.0662 138.012 37.5694 137.789 37.0978C137.676 36.8934 137.584 36.6921 137.496 36.4877C137.405 36.2393 137.292 36.0161 137.226 35.7897C137.157 35.5633 137.044 35.362 136.956 35.1576C136.956 35.1356 136.956 35.1136 136.93 35.0916C136.842 34.7772 136.751 34.4816 136.66 34.1671C136.459 33.5131 136.254 32.859 135.962 32.2302C135.827 31.9126 135.691 31.5981 135.578 31.2837C135.556 31.1705 135.512 31.0573 135.468 30.9661C135.286 30.4473 135.063 29.9316 134.902 29.4127C134.836 29.1863 134.745 28.9851 134.657 28.7807C134.544 28.5543 134.475 28.309 134.339 28.0826C134.226 27.9254 134.182 27.699 134.091 27.5418C133.956 27.3154 133.777 27.1802 133.55 27.1361C133.484 27.1361 133.415 27.1361 133.349 27.1361C133.009 27.1141 132.695 27.1141 132.38 27.067C132.267 27.045 132.154 27.045 132.041 27.045C131.635 27.045 131.208 27.0229 130.802 27.0229C130.645 27.0229 130.487 27.0229 130.327 27.067C130.217 27.1141 130.104 27.1141 129.991 27.1141C129.72 27.1361 129.45 27.1582 129.157 27.1582C129.088 27.1802 129.022 27.1802 128.953 27.2022C128.931 27.2022 128.887 27.2493 128.862 27.2714C128.818 27.3154 128.796 27.4286 128.84 27.4726C128.862 27.4978 128.909 27.5418 128.931 27.5418C129.066 27.5638 129.223 27.5638 129.359 27.5638C129.563 27.5638 129.764 27.5638 129.969 27.5638C130.104 27.5858 130.217 27.699 130.239 27.8342C130.239 27.9254 130.239 27.9914 130.239 28.0606C130.239 28.2398 130.192 28.4191 130.17 28.6015C130.104 28.8247 130.057 29.0291 129.991 29.2555C129.921 29.4568 129.899 29.6611 129.811 29.8404C129.764 30.0416 129.72 30.246 129.676 30.4473C129.607 30.7428 129.516 31.0133 129.428 31.3057C129.293 31.6893 129.157 32.0729 129.044 32.4786C128.862 33.1295 128.683 33.7835 128.456 34.4376C128.456 34.4816 128.434 34.5287 128.434 34.5728C128.412 34.8432 128.299 35.0696 128.233 35.318C128.142 35.6104 128.05 35.9249 127.962 36.2173C127.871 36.5097 127.78 36.7802 127.714 37.0757C127.714 37.1418 127.692 37.211 127.67 37.277C127.601 37.4342 127.557 37.5694 127.51 37.7298C127.151 38.7863 126.812 39.868 126.453 40.9277C126.384 41.1321 126.318 41.3553 126.227 41.5817C126.205 41.6729 126.136 41.761 126.047 41.8522C125.978 41.9433 125.887 42.0094 125.777 42.0786ZM131.028 37.211C130.327 37.211 129.72 37.211 129.11 37.211C129.044 37.211 128.975 37.211 128.909 37.1638C128.862 37.1418 128.818 37.1198 128.84 37.0757C128.84 37.0066 128.84 36.9154 128.862 36.8714C129.11 36.3525 129.245 35.7897 129.381 35.2488C129.494 34.7772 129.629 34.3023 129.764 33.8527C129.969 33.2647 130.148 32.6798 130.374 32.117C130.487 31.8906 130.509 31.6421 130.597 31.3937C130.645 31.2365 130.689 31.0793 130.733 30.9441C130.758 30.8309 130.802 30.7177 130.846 30.6296C130.937 30.4473 130.981 30.29 131.028 30.1108C131.094 29.8624 131.138 29.614 131.23 29.3656C131.23 29.3436 131.274 29.2995 131.321 29.2775C131.343 29.2555 131.387 29.2555 131.434 29.3215C131.456 29.3656 131.5 29.4347 131.522 29.5008C131.591 29.6611 131.657 29.8184 131.704 29.9976C131.77 30.202 131.814 30.4032 131.884 30.6076C131.95 30.8529 132.041 31.1233 132.132 31.3717C132.245 31.6421 132.38 31.9126 132.516 32.183C132.582 32.3434 132.673 32.5226 132.739 32.6798C132.786 32.793 132.852 32.8842 132.896 32.9943C133.009 33.3779 133.214 33.7395 133.393 34.1231C133.506 34.4155 133.641 34.686 133.777 35.0004C133.821 35.1136 133.868 35.2488 133.912 35.384C134.025 35.8117 134.204 36.2393 134.387 36.645C134.431 36.7361 134.475 36.8053 134.522 36.8934C134.544 36.9625 134.497 37.0286 134.431 37.0506C134.295 37.0506 134.16 37.0506 134.025 37.0506C133.732 37.0506 133.437 37.0757 133.144 37.1198C133.056 37.1418 132.965 37.1418 132.874 37.1418C132.22 37.1638 131.591 37.211 131.028 37.211Z" fill="white"/>
  </g>
  <defs>
    <clipPath id="clip0_613_737">
      <rect width="141" height="71" fill="white"/>
    </clipPath>
  </defs>
</svg>