<svg xmlns="http://www.w3.org/2000/svg" width="50" height="50" viewBox="0 0 50 50" fill="none">
  <mask id="mask0_613_793" style="mask-type:luminance" maskUnits="userSpaceOnUse" x="16" y="0" width="26" height="19">
    <path d="M16.915 0H41.477V18.2692H16.915V0Z" fill="white"/>
  </mask>
  <g mask="url(#mask0_613_793)">
    <path d="M21.395 18.21C21.3015 18.21 21.208 18.1858 21.1228 18.1374C20.9086 18.0155 20.7994 17.7643 20.8549 17.5222L22.2634 11.3949L17.5605 11.9717C17.3214 12.0009 17.0907 11.8707 16.9898 11.6486C16.8897 11.4275 16.9418 11.1654 17.1204 11.0009C20.3536 8.01699 24.4925 6.57051 26.0739 6.09809L23.667 0.794605C23.5885 0.620994 23.6025 0.419004 23.7043 0.257913C23.8068 0.0976563 23.9822 0 24.1716 0H28.8663C29.083 0 29.2798 0.127704 29.37 0.32719L31.939 5.98875C33.0986 6.30676 37.7304 7.7307 41.2746 11.0009C41.4524 11.1654 41.5054 11.4275 41.4045 11.6486C41.3044 11.8707 41.0728 12 40.8337 11.9717L36.1308 11.3949L37.5394 17.5222C37.5956 17.7643 37.4864 18.0155 37.2722 18.1374C37.0572 18.2601 36.7892 18.2242 36.613 18.0505C36.5774 18.0163 33.0283 14.5716 29.1971 14.5716C25.356 14.5716 21.8176 18.0155 21.7821 18.0505C21.6762 18.1557 21.5364 18.21 21.395 18.21ZM22.983 10.1813C23.1393 10.1813 23.2899 10.2481 23.3957 10.3674C23.5165 10.5035 23.5645 10.6913 23.5231 10.8691L22.3097 16.1475C23.7936 15.0249 26.3783 13.4499 29.1971 13.4499C32.0167 13.4499 34.6006 15.0249 36.0853 16.1475L34.8719 10.8691C34.8306 10.6913 34.8785 10.5035 34.9993 10.3674C35.1201 10.2314 35.2979 10.1629 35.4782 10.1855L39.0571 10.6245C35.5088 8.02868 31.4617 7.0204 31.4154 7.00955C31.25 6.96949 31.1119 6.8543 31.0416 6.69822L28.5106 1.12179H25.0359L27.3535 6.22997C27.423 6.38271 27.4213 6.55799 27.3485 6.70907C27.2766 6.86014 27.1409 6.97032 26.9796 7.00955C26.9333 7.0204 22.8821 8.03285 19.3388 10.6237L22.916 10.1855C22.9392 10.183 22.9615 10.1813 22.983 10.1813Z" fill="black"/>
  </g>
  <path d="M29.1969 44.699C20.2798 44.699 13.0244 37.3623 13.0244 28.3437C13.0244 25.2562 13.8796 22.2497 15.4975 19.6481C17.0715 17.1182 19.2964 15.0716 21.9316 13.7286C22.2054 13.5892 22.5387 13.7002 22.6768 13.9773C22.8141 14.2536 22.7041 14.5908 22.4303 14.7302C17.313 17.3377 14.1336 22.5536 14.1336 28.3437C14.1336 36.7438 20.8911 43.578 29.1969 43.578C37.5036 43.578 44.2611 36.7438 44.2611 28.3437C44.2611 22.5536 41.0817 17.3377 35.9635 14.7302C35.6906 14.5908 35.5806 14.2536 35.7179 13.9773C35.856 13.7011 36.1893 13.5892 36.4623 13.7286C39.0983 15.0716 41.3232 17.1182 42.8972 19.6481C44.515 22.2497 45.3703 25.2562 45.3703 28.3437C45.3695 37.3623 38.1149 44.699 29.1969 44.699Z" fill="black"/>
  <path d="M29.1977 18.8536C28.8917 18.8536 28.6436 18.6024 28.6436 18.2927V14.0108C28.6436 13.7012 28.8917 13.45 29.1977 13.45C29.5046 13.45 29.7527 13.7012 29.7527 14.0108V18.2927C29.7527 18.6024 29.5046 18.8536 29.1977 18.8536Z" fill="black"/>
  <path d="M19.2584 28.9045H13.5794C13.2734 28.9045 13.0244 28.6533 13.0244 28.3436C13.0244 28.034 13.2734 27.7827 13.5794 27.7827H19.2584C19.5644 27.7827 19.8133 28.034 19.8133 28.3436C19.8133 28.6533 19.5644 28.9045 19.2584 28.9045Z" fill="black"/>
  <path d="M29.1977 44.7C28.8917 44.7 28.6436 44.4487 28.6436 44.1391V38.3949C28.6436 38.0852 28.8917 37.834 29.1977 37.834C29.5046 37.834 29.7527 38.0852 29.7527 38.3949V44.1391C29.7527 44.4487 29.5046 44.7 29.1977 44.7Z" fill="black"/>
  <path d="M44.816 28.9045H39.1362C38.8302 28.9045 38.582 28.6533 38.582 28.3436C38.582 28.034 38.8302 27.7827 39.1362 27.7827H44.816C45.122 27.7827 45.3701 28.034 45.3701 28.3436C45.3701 28.6533 45.122 28.9045 44.816 28.9045Z" fill="black"/>
  <path d="M23.4151 18.7749C23.2241 18.7749 23.0371 18.6748 22.9346 18.4945L22.0587 16.9595C21.9057 16.6916 21.9966 16.3486 22.2613 16.1942C22.5268 16.0389 22.8659 16.1307 23.019 16.3995L23.8949 17.9336C24.0479 18.2015 23.9577 18.5446 23.6922 18.6998C23.6045 18.7507 23.5094 18.7749 23.4151 18.7749Z" fill="black"/>
  <path d="M19.1806 23.056C19.0864 23.056 18.9912 23.0318 18.9036 22.9809L15.3941 20.9317C15.1295 20.7773 15.0385 20.4343 15.1915 20.1655C15.3445 19.8976 15.6836 19.8058 15.9491 19.961L19.4586 22.0101C19.7232 22.1646 19.8142 22.5076 19.6612 22.7755C19.5586 22.9558 19.3725 23.056 19.1806 23.056Z" fill="black"/>
  <path d="M15.6722 36.8022C15.4803 36.8022 15.2942 36.7012 15.1917 36.5218C15.0387 36.253 15.1288 35.9108 15.3943 35.7555L18.9037 33.7064C19.1692 33.5512 19.5084 33.6438 19.6614 33.9118C19.8144 34.1797 19.7234 34.5227 19.4587 34.678L15.9493 36.7271C15.8616 36.778 15.7665 36.8022 15.6722 36.8022Z" fill="black"/>
  <path d="M21.388 42.583C21.2945 42.583 21.1986 42.5588 21.1117 42.5079C20.8462 42.3535 20.7552 42.0104 20.9083 41.7425L22.9347 38.1926C23.0877 37.9247 23.4268 37.8329 23.6923 37.9873C23.9578 38.1425 24.048 38.4856 23.895 38.7535L21.8685 42.3025C21.766 42.4828 21.5799 42.583 21.388 42.583Z" fill="black"/>
  <path d="M37.007 42.5831C36.816 42.5831 36.629 42.483 36.5265 42.3027L34.5001 38.7537C34.347 38.4857 34.438 38.1427 34.7035 37.9874C34.969 37.8322 35.3081 37.9248 35.4612 38.1928L37.4868 41.7426C37.6398 42.0105 37.5496 42.3536 37.2841 42.508C37.1964 42.5589 37.1013 42.5831 37.007 42.5831Z" fill="black"/>
  <path d="M42.7232 36.8022C42.6289 36.8022 42.5338 36.778 42.4461 36.7271L38.9367 34.678C38.6712 34.5227 38.5802 34.1797 38.734 33.9118C38.887 33.6438 39.2262 33.5512 39.4908 33.7064L43.0003 35.7555C43.2658 35.9108 43.3568 36.253 43.2037 36.5218C43.1012 36.7012 42.9143 36.8022 42.7232 36.8022Z" fill="black"/>
  <path d="M39.2146 23.056C39.0227 23.056 38.8366 22.9558 38.734 22.7755C38.5802 22.5076 38.6712 22.1646 38.9367 22.0101L42.4461 19.961C42.7116 19.8058 43.0507 19.8976 43.2037 20.1655C43.3568 20.4343 43.2658 20.7773 43.0003 20.9317L39.4908 22.9809C39.404 23.0318 39.308 23.056 39.2146 23.056Z" fill="black"/>
  <path d="M34.9798 18.7749C34.8855 18.7749 34.7904 18.7507 34.7035 18.6998C34.438 18.5446 34.347 18.2015 34.5001 17.9336L35.376 16.3995C35.529 16.1307 35.8681 16.0389 36.1336 16.1942C36.3991 16.3486 36.4901 16.6916 36.3371 16.9595L35.4603 18.4945C35.3578 18.6748 35.1717 18.7749 34.9798 18.7749Z" fill="black"/>
  <path d="M29.1977 32.309C28.8917 32.309 28.6436 32.0586 28.6436 31.749V28.3435C28.6436 28.245 28.6692 28.1482 28.718 28.0631L32.4383 21.546C32.5914 21.2772 32.9305 21.1854 33.196 21.3406C33.4615 21.4951 33.5525 21.8381 33.3986 22.106L29.7527 28.4937V31.749C29.7527 32.0586 29.5046 32.309 29.1977 32.309Z" fill="black"/>
  <mask id="mask1_613_793" style="mask-type:luminance" maskUnits="userSpaceOnUse" x="8" y="10" width="42" height="40">
    <path d="M8.39258 10.7905H49.9996V49.3589H8.39258V10.7905Z" fill="white"/>
  </mask>
  <g mask="url(#mask1_613_793)">
    <path d="M29.1968 49.3565C17.7405 49.3565 8.41895 39.9306 8.41895 28.3437C8.41895 21.3367 11.8564 14.8138 17.6139 10.8967C17.8679 10.7239 18.212 10.7923 18.3832 11.0494C18.5544 11.3065 18.4866 11.6545 18.2326 11.8273C12.782 15.5357 9.5281 21.7098 9.5281 28.3437C9.5281 39.3121 18.3517 48.2347 29.1968 48.2347C40.0427 48.2347 48.8656 39.3121 48.8656 28.3437C48.8656 21.7098 45.6117 15.5357 40.161 11.8273C39.9071 11.6545 39.8401 11.3065 40.0105 11.0494C40.1817 10.7923 40.5266 10.7239 40.7805 10.8967C46.5381 14.8138 49.9747 21.3359 49.9747 28.3437C49.9747 39.9306 40.654 49.3565 29.1968 49.3565Z" fill="black"/>
  </g>
  <path d="M25.7661 11.6387C25.5833 11.6387 25.4046 11.5477 25.2988 11.3808C25.1333 11.1196 25.2086 10.7732 25.4658 10.6054C28.0472 8.92938 30.3491 8.92938 32.9305 10.6054C33.1877 10.7732 33.263 11.1196 33.0976 11.3808C32.9313 11.6412 32.5889 11.7172 32.3309 11.5494C30.1349 10.123 28.2615 10.123 26.0655 11.5494C25.972 11.6095 25.8686 11.6387 25.7661 11.6387Z" fill="black"/>
</svg>