<svg xmlns="http://www.w3.org/2000/svg" width="51" height="50" viewBox="0 0 51 50" fill="none">
  <mask id="mask0_613_1027" style="mask-type:luminance" maskUnits="userSpaceOnUse" x="0" y="0" width="51" height="50">
    <path d="M0 0H50.1038V50H0V0Z" fill="white"/>
  </mask>
  <g mask="url(#mask0_613_1027)">
    <path d="M49.9204 48.9387L45.4039 43.2524V18.4227C45.4039 16.9449 44.284 15.7695 42.8747 15.7695H41.6466V6.89926C41.6466 6.86091 41.6466 6.82345 41.6466 6.7851C41.6466 6.74765 41.61 6.7093 41.61 6.67184C41.61 6.67184 41.61 6.63349 41.5743 6.63349C41.5377 6.59603 41.5377 6.55768 41.5019 6.52023C39.479 4.39765 37.4195 2.27419 35.3958 0.114155C35.36 0.0758062 35.3234 0.038349 35.2877 0.038349C35.2877 0.038349 35.2877 0.038349 35.2511 0.038349C35.2153 -5.82077e-08 35.1796 0 35.1073 0C35.0707 0 35.0349 0 34.9983 0H9.05708C8.76858 0 8.51497 0.265768 8.51497 0.568993V15.8453H7.28693C5.87761 15.8453 4.75765 17.0207 4.75765 18.4985V43.3665L0.242059 49.052C0.0973827 49.2036 0.0607883 49.4694 0.169721 49.6584C0.242059 49.8484 0.458222 50 0.675236 50H49.4863C49.7034 50 49.8838 49.8858 49.9927 49.6584C50.1008 49.3552 50.065 49.0903 49.9204 48.9387ZM39.8399 6.33027H35.577V1.8577C36.6247 2.95644 37.708 4.09443 38.7556 5.19317L39.8399 6.33027ZM42.9112 16.9066C43.7061 16.9066 44.3563 17.5888 44.3563 18.4227V42.9117H41.6824V16.9066H42.9112ZM9.59919 1.06129H34.4928V6.89926C34.4928 7.20248 34.7456 7.46736 35.0349 7.46736H40.599V42.9117H9.59919V1.06129ZM7.28693 16.9066H8.51497V42.9117H5.84187V18.4227C5.84187 17.5888 6.49206 16.9066 7.28693 16.9066ZM1.83094 48.7487L5.55252 44.0488H44.6448L48.3664 48.7487H1.83094ZM16.5002 16.7933C16.6449 17.0965 16.9334 17.324 17.2951 17.3998C17.3674 17.3998 17.4398 17.4372 17.5121 17.4372C17.7649 17.4372 18.0534 17.324 18.2346 17.134L23.7621 11.9408C24.0515 11.6759 24.2319 11.2586 24.2319 10.8412C24.2319 10.4622 24.0872 10.1215 23.8702 9.8557C23.6174 9.55248 23.2923 9.40086 22.8949 9.36341C22.5341 9.32506 22.1724 9.47667 21.883 9.74244L18.0176 13.3811L17.2228 11.7517C16.8611 11.0311 16.0305 10.7654 15.3437 11.1069C15.3437 11.1069 15.3079 11.1069 15.3079 11.1444C14.9828 11.3344 14.7658 11.6376 14.6577 11.9792C14.5488 12.3582 14.5854 12.7372 14.7658 13.1163L16.5002 16.7933ZM15.633 12.3198C15.6688 12.244 15.7054 12.1682 15.7777 12.1308C15.7777 12.1308 15.7777 12.1308 15.8134 12.1308C15.9581 12.055 16.1385 12.1308 16.2109 12.2824L17.3308 14.5566C17.4032 14.7082 17.5479 14.8215 17.7283 14.8598C17.9095 14.8973 18.0534 14.8598 18.198 14.7082L22.5698 10.5763C22.6422 10.5005 22.7145 10.5005 22.7868 10.5005C22.8592 10.5005 22.9672 10.538 23.0038 10.6138C23.0753 10.6896 23.0753 10.7654 23.0753 10.8412C23.0753 10.9553 23.0396 11.0311 22.9672 11.1069L19.4984 14.405L17.4398 16.3001L15.633 12.6231C15.5964 12.5098 15.5964 12.434 15.633 12.3198ZM16.5002 27.0664C16.6449 27.3696 16.9334 27.597 17.2951 27.6728C17.3674 27.6728 17.4398 27.7103 17.5121 27.7103C17.7649 27.7103 18.0534 27.597 18.2346 27.4071L23.7621 22.2139C24.0515 21.9481 24.2319 21.5316 24.2319 21.1143C24.2319 20.7352 24.0872 20.3946 23.8702 20.1288C23.6174 19.8256 23.2923 19.6739 22.8949 19.6365C22.5341 19.5981 22.1724 19.7498 21.883 20.0155L18.0176 23.6542L17.2228 22.0239C16.8611 21.3042 16.0305 21.0385 15.3437 21.38C15.3437 21.38 15.3079 21.38 15.3079 21.4175C14.9828 21.6074 14.7658 21.9107 14.6577 22.2514C14.5488 22.6304 14.5854 23.0094 14.7658 23.3893L16.5002 27.0664ZM15.633 22.5929C15.6688 22.5171 15.7054 22.4413 15.7777 22.403C15.7777 22.403 15.7777 22.403 15.8134 22.403C15.9581 22.3272 16.1385 22.403 16.2109 22.5546L17.3308 24.8297C17.4032 24.9813 17.5479 25.0945 17.7283 25.1329C17.9095 25.1703 18.0534 25.1329 18.198 24.9813L22.5698 20.8494C22.6422 20.7736 22.7145 20.7736 22.7868 20.7736C22.8592 20.7736 22.9672 20.811 23.0038 20.8868C23.0753 20.9627 23.0753 21.0385 23.0753 21.1143C23.0753 21.2284 23.0396 21.3042 22.9672 21.38L19.4984 24.678L17.4398 26.5732L15.633 22.8962C15.5964 22.782 15.5964 22.7062 15.633 22.5929ZM21.8473 30.2877L17.981 33.9273L17.1862 32.297C16.8253 31.5773 15.9939 31.3115 15.3079 31.6531C15.3079 31.6531 15.2713 31.6531 15.2713 31.6906C14.9462 31.8805 14.7301 32.1838 14.6211 32.5244C14.5131 32.9035 14.5488 33.2825 14.6935 33.6615L16.5002 37.3386C16.6449 37.6418 16.9334 37.8692 17.2951 37.945C17.3674 37.945 17.4398 37.9834 17.5121 37.9834C17.7649 37.9834 18.0534 37.8692 18.2346 37.6802L23.7621 32.487C24.0515 32.2212 24.2319 31.8047 24.2319 31.3873C24.2319 31.0083 24.0872 30.6667 23.8702 30.4019C23.3289 29.7954 22.4251 29.7571 21.8473 30.2877ZM23.0038 31.6531L19.535 34.9511L17.4755 36.8463L15.6688 33.1692C15.633 33.0934 15.633 32.9793 15.633 32.9035C15.6688 32.8277 15.7054 32.7519 15.7777 32.7144C15.7777 32.7144 15.7777 32.7144 15.8134 32.7144C15.9581 32.6386 16.1385 32.7144 16.2109 32.866L17.3308 35.1402C17.4032 35.2918 17.5479 35.406 17.7283 35.4434C17.9095 35.4818 18.0534 35.4434 18.198 35.2918L22.5698 31.1225C22.7145 31.0083 22.8949 31.0083 23.0396 31.1599C23.1119 31.2357 23.1119 31.3115 23.1119 31.3873C23.1119 31.4632 23.0753 31.5773 23.0038 31.6531ZM25.4242 13.3811C25.4242 13.0779 25.6769 12.813 25.9663 12.813H37.2025C37.4919 12.813 37.7446 13.0779 37.7446 13.3811C37.7446 13.6844 37.4919 13.9501 37.2025 13.9501H25.9663C25.6412 13.9501 25.4242 13.6844 25.4242 13.3811ZM25.4242 23.6542C25.4242 23.351 25.6769 23.0852 25.9663 23.0852H37.2025C37.4919 23.0852 37.7446 23.351 37.7446 23.6542C37.7446 23.9574 37.4919 24.2232 37.2025 24.2232H25.9663C25.6412 24.2232 25.4242 23.9958 25.4242 23.6542ZM25.4242 33.9273C25.4242 33.6241 25.6769 33.3583 25.9663 33.3583H37.2025C37.4919 33.3583 37.7446 33.6241 37.7446 33.9273C37.7446 34.2305 37.4919 34.4954 37.2025 34.4954H25.9663C25.6412 34.4954 25.4242 34.268 25.4242 33.9273Z" fill="black"/>
  </g>
</svg>