<svg width="30" height="30" viewBox="0 0 30 30" fill="none" xmlns="http://www.w3.org/2000/svg">
<g id="card-text 1" clip-path="url(#clip0_415_3111)">
<path id="Vector" d="M27.1875 5.625C27.4361 5.625 27.6746 5.72377 27.8504 5.89959C28.0262 6.0754 28.125 6.31386 28.125 6.5625V23.4375C28.125 23.6861 28.0262 23.9246 27.8504 24.1004C27.6746 24.2762 27.4361 24.375 27.1875 24.375H2.8125C2.56386 24.375 2.3254 24.2762 2.14959 24.1004C1.97377 23.9246 1.875 23.6861 1.875 23.4375V6.5625C1.875 6.31386 1.97377 6.0754 2.14959 5.89959C2.3254 5.72377 2.56386 5.625 2.8125 5.625H27.1875ZM2.8125 3.75C2.06658 3.75 1.35121 4.04632 0.823762 4.57376C0.296316 5.10121 0 5.81658 0 6.5625L0 23.4375C0 24.1834 0.296316 24.8988 0.823762 25.4262C1.35121 25.9537 2.06658 26.25 2.8125 26.25H27.1875C27.9334 26.25 28.6488 25.9537 29.1762 25.4262C29.7037 24.8988 30 24.1834 30 23.4375V6.5625C30 5.81658 29.7037 5.10121 29.1762 4.57376C28.6488 4.04632 27.9334 3.75 27.1875 3.75H2.8125Z" fill="white"/>
<path id="Vector_2" d="M5.625 10.3125C5.625 10.0639 5.72377 9.8254 5.89959 9.64959C6.0754 9.47377 6.31386 9.375 6.5625 9.375H23.4375C23.6861 9.375 23.9246 9.47377 24.1004 9.64959C24.2762 9.8254 24.375 10.0639 24.375 10.3125C24.375 10.5611 24.2762 10.7996 24.1004 10.9754C23.9246 11.1512 23.6861 11.25 23.4375 11.25H6.5625C6.31386 11.25 6.0754 11.1512 5.89959 10.9754C5.72377 10.7996 5.625 10.5611 5.625 10.3125ZM5.625 15C5.625 14.7514 5.72377 14.5129 5.89959 14.3371C6.0754 14.1613 6.31386 14.0625 6.5625 14.0625H23.4375C23.6861 14.0625 23.9246 14.1613 24.1004 14.3371C24.2762 14.5129 24.375 14.7514 24.375 15C24.375 15.2486 24.2762 15.4871 24.1004 15.6629C23.9246 15.8387 23.6861 15.9375 23.4375 15.9375H6.5625C6.31386 15.9375 6.0754 15.8387 5.89959 15.6629C5.72377 15.4871 5.625 15.2486 5.625 15ZM5.625 19.6875C5.625 19.4389 5.72377 19.2004 5.89959 19.0246C6.0754 18.8488 6.31386 18.75 6.5625 18.75H17.8125C18.0611 18.75 18.2996 18.8488 18.4754 19.0246C18.6512 19.2004 18.75 19.4389 18.75 19.6875C18.75 19.9361 18.6512 20.1746 18.4754 20.3504C18.2996 20.5262 18.0611 20.625 17.8125 20.625H6.5625C6.31386 20.625 6.0754 20.5262 5.89959 20.3504C5.72377 20.1746 5.625 19.9361 5.625 19.6875Z" fill="white"/>
</g>
<defs>
<clipPath id="clip0_415_3111">
<rect width="30" height="30" fill="white"/>
</clipPath>
</defs>
</svg>
