<svg width="30" height="30" viewBox="0 0 30 30" fill="none" xmlns="http://www.w3.org/2000/svg">
<g id="house 1">
<path id="Vector" d="M16.3249 2.8124C15.9732 2.46089 15.4964 2.26343 14.9992 2.26343C14.502 2.26343 14.0252 2.46089 13.6736 2.8124L1.21048 15.2737C1.12332 15.3608 1.05417 15.4643 1.007 15.5782C0.959827 15.6921 0.935547 15.8141 0.935547 15.9374C0.935547 16.0607 0.959827 16.1827 1.007 16.2966C1.05417 16.4105 1.12332 16.514 1.21048 16.6012C1.38652 16.7772 1.62528 16.8761 1.87423 16.8761C1.9975 16.8761 2.11956 16.8518 2.23345 16.8046C2.34734 16.7575 2.45082 16.6883 2.53798 16.6012L3.74923 15.388V25.3124C3.74923 26.0583 4.04555 26.7737 4.57299 27.3011C5.10044 27.8286 5.81581 28.1249 6.56173 28.1249H23.4367C24.1827 28.1249 24.898 27.8286 25.4255 27.3011C25.9529 26.7737 26.2492 26.0583 26.2492 25.3124V15.388L27.4605 16.6012C27.6365 16.7772 27.8753 16.8761 28.1242 16.8761C28.3732 16.8761 28.6119 16.7772 28.788 16.6012C28.964 16.4251 29.0629 16.1864 29.0629 15.9374C29.0629 15.6884 28.964 15.4497 28.788 15.2737L24.3742 10.8618V4.6874C24.3742 4.43876 24.2755 4.20031 24.0996 4.02449C23.9238 3.84867 23.6854 3.7499 23.4367 3.7499H21.5617C21.3131 3.7499 21.0746 3.84867 20.8988 4.02449C20.723 4.20031 20.6242 4.43876 20.6242 4.6874V7.11178L16.3249 2.8124ZM24.3742 13.513V25.3124C24.3742 25.561 24.2755 25.7995 24.0996 25.9753C23.9238 26.1511 23.6854 26.2499 23.4367 26.2499H6.56173C6.31309 26.2499 6.07463 26.1511 5.89882 25.9753C5.723 25.7995 5.62423 25.561 5.62423 25.3124V13.513L14.9992 4.13803L24.3742 13.513Z" fill="white"/>
</g>
</svg>
