<svg width="30" height="22" viewBox="0 0 30 22" fill="none" xmlns="http://www.w3.org/2000/svg">
<g id="Mask group">
<g id="Group">
<g id="Group_2">
<g id="Clip path group">
<mask id="mask0_415_3513" style="mask-type:luminance" maskUnits="userSpaceOnUse" x="0" y="0" width="30" height="22">
<g id="bbc6ee8b61">
<path id="Vector" d="M30 0H0V21.2338H30V0Z" fill="white"/>
</g>
</mask>
<g mask="url(#mask0_415_3513)">
<g id="Group_3">
<g id="Clip path group_2">
<mask id="mask1_415_3513" style="mask-type:luminance" maskUnits="userSpaceOnUse" x="0" y="0" width="30" height="22">
<g id="04087ec56f">
<path id="Vector_2" d="M0.109375 0.0546875H29.8917V21.1401H0.109375V0.0546875Z" fill="white"/>
</g>
</mask>
<g mask="url(#mask1_415_3513)">
<g id="Group_4">
<path id="Vector_3" d="M15.2352 5.52151C13.4949 3.75685 11.6694 2.68162 9.65589 3.21962C4.96763 4.47291 2.79433 19.3846 8.86373 19.0597C11.9114 18.8969 14.23 15.9953 17.2327 10.5804C18.206 12.0604 19.1458 13.5618 20.0277 15.0966C17.461 18.5765 14.0314 20.9241 10.6215 21.1059C7.52445 21.2718 4.93795 20.5398 3.13981 19.0019C-3.06428 13.6957 1.29905 2.93121 7.44074 0.655188C11.432 -0.823353 15.2877 0.988487 18.0827 3.95318C20.46 6.47575 22.0199 9.67178 23.6012 12.7179C25.2433 15.8797 26.6473 18.4867 27.9805 13.9872L29.8395 14.8014C30.1005 18.2858 27.2203 21.3814 24.5182 19.7994C23.3136 19.094 22.8775 17.6565 21.8586 15.5197C20.4881 12.6464 17.961 8.28455 15.2352 5.52151ZM20.4242 4.64032C21.1585 3.11004 21.8358 1.55768 22.4544 0.0715332H27.3497L27.3025 0.191764C26.2486 2.85055 24.9557 6.11202 23.4034 9.27456C22.5054 7.6735 21.5375 6.11734 20.4242 4.64032Z" fill="#024577"/>
</g>
</g>
</g>
</g>
</g>
</g>
</g>
</g>
</g>
</svg>
