<svg width="30" height="30" viewBox="0 0 30 30" fill="none" xmlns="http://www.w3.org/2000/svg">
<g id="box-arrow-left 1" clip-path="url(#clip0_415_3476)">
<path id="Vector" fill-rule="evenodd" clip-rule="evenodd" d="M11.25 23.4375C11.25 23.6861 11.3488 23.9246 11.5246 24.1004C11.7004 24.2762 11.9389 24.375 12.1875 24.375H27.1875C27.4361 24.375 27.6746 24.2762 27.8504 24.1004C28.0262 23.9246 28.125 23.6861 28.125 23.4375V6.5625C28.125 6.31386 28.0262 6.0754 27.8504 5.89959C27.6746 5.72377 27.4361 5.625 27.1875 5.625H12.1875C11.9389 5.625 11.7004 5.72377 11.5246 5.89959C11.3488 6.0754 11.25 6.31386 11.25 6.5625V10.3125C11.25 10.5611 11.1512 10.7996 10.9754 10.9754C10.7996 11.1512 10.5611 11.25 10.3125 11.25C10.0639 11.25 9.8254 11.1512 9.64959 10.9754C9.47377 10.7996 9.375 10.5611 9.375 10.3125V6.5625C9.375 5.81658 9.67132 5.10121 10.1988 4.57376C10.7262 4.04632 11.4416 3.75 12.1875 3.75H27.1875C27.9334 3.75 28.6488 4.04632 29.1762 4.57376C29.7037 5.10121 30 5.81658 30 6.5625V23.4375C30 24.1834 29.7037 24.8988 29.1762 25.4262C28.6488 25.9537 27.9334 26.25 27.1875 26.25H12.1875C11.4416 26.25 10.7262 25.9537 10.1988 25.4262C9.67132 24.8988 9.375 24.1834 9.375 23.4375V19.6875C9.375 19.4389 9.47377 19.2004 9.64959 19.0246C9.8254 18.8488 10.0639 18.75 10.3125 18.75C10.5611 18.75 10.7996 18.8488 10.9754 19.0246C11.1512 19.2004 11.25 19.4389 11.25 19.6875V23.4375Z" fill="white"/>
<path id="Vector_2" fill-rule="evenodd" clip-rule="evenodd" d="M0.273473 15.6637C0.186167 15.5766 0.116899 15.4732 0.0696367 15.3593C0.0223746 15.2454 -0.00195313 15.1233 -0.00195312 15C-0.00195313 14.8767 0.0223746 14.7545 0.0696367 14.6407C0.116899 14.5268 0.186167 14.4233 0.273473 14.3362L5.89847 8.71121C5.98564 8.62405 6.08912 8.55491 6.203 8.50773C6.31689 8.46056 6.43895 8.43628 6.56222 8.43628C6.68549 8.43628 6.80755 8.46056 6.92144 8.50773C7.03533 8.55491 7.13881 8.62405 7.22597 8.71121C7.31314 8.79838 7.38228 8.90186 7.42945 9.01574C7.47663 9.12963 7.50091 9.25169 7.50091 9.37496C7.50091 9.49823 7.47663 9.6203 7.42945 9.73418C7.38228 9.84807 7.31314 9.95155 7.22597 10.0387L3.20035 14.0625H19.6872C19.9359 14.0625 20.1743 14.1612 20.3501 14.3371C20.5259 14.5129 20.6247 14.7513 20.6247 15C20.6247 15.2486 20.5259 15.4871 20.3501 15.6629C20.1743 15.8387 19.9359 15.9375 19.6872 15.9375H3.20035L7.22597 19.9612C7.31314 20.0484 7.38228 20.1519 7.42945 20.2657C7.47663 20.3796 7.50091 20.5017 7.50091 20.625C7.50091 20.7482 7.47663 20.8703 7.42945 20.9842C7.38228 21.0981 7.31314 21.2015 7.22597 21.2887C7.13881 21.3759 7.03533 21.445 6.92144 21.4922C6.80755 21.5394 6.68549 21.5636 6.56222 21.5636C6.43895 21.5636 6.31689 21.5394 6.203 21.4922C6.08912 21.445 5.98564 21.3759 5.89847 21.2887L0.273473 15.6637Z" fill="white"/>
</g>
<defs>
<clipPath id="clip0_415_3476">
<rect width="30" height="30" fill="white"/>
</clipPath>
</defs>
</svg>
